<!-- Generated by IcoMoon.io -->
<svg version="1.1" xmlns="http://www.w3.org/2000/svg" width="32" height="32" viewBox="0 0 32 32">
<title>accounts</title>
<path d="M28.883 9.193c-0.386-0.374-0.872-0.646-1.414-0.773l-0.020-0.004-16.409-4.358c-0.276-0.080-0.593-0.127-0.921-0.127-0.242 0-0.479 0.025-0.707 0.073l0.022-0.004c-1.022 0.264-1.801 1.081-2.005 2.106l-0.003 0.017-0.258 0.947-0.804 2.983-0.917 3.414h-0.173c-0.066-0.006-0.143-0.009-0.22-0.009-1.515 0-2.743 1.228-2.743 2.743 0 0.078 0.003 0.154 0.010 0.23l-0.001-0.010v8.693c-0.006 0.066-0.009 0.143-0.009 0.221 0 1.515 1.228 2.742 2.742 2.742 0.078 0 0.155-0.003 0.231-0.010l-0.010 0.001h17.011c0.066 0.006 0.143 0.009 0.22 0.009 1.515 0 2.743-1.228 2.743-2.743 0-0.078-0.003-0.154-0.009-0.23l0.001 0.010v-2.528c1.049-0.245 1.85-1.084 2.034-2.136l0.002-0.016 1.377-5.135 0.631-2.323 0.258-0.947c0.102-0.271 0.161-0.585 0.161-0.912 0-0.756-0.314-1.438-0.818-1.925l-0.001-0.001zM7.253 10.828l9.954 2.639h-10.672zM24.265 25.115h-0.029c0.006 0.055 0.010 0.12 0.010 0.185 0 0.965-0.782 1.747-1.747 1.747-0.065 0-0.129-0.004-0.193-0.011l0.008 0.001h-16.983c-0.055 0.006-0.12 0.010-0.185 0.010-0.965 0-1.747-0.782-1.747-1.747 0-0.065 0.004-0.129 0.010-0.193l-0.001 0.008v-8.722c-0.006-0.056-0.010-0.12-0.010-0.186 0-0.965 0.782-1.747 1.747-1.747 0.065 0 0.129 0.004 0.193 0.011l-0.008-0.001h17.012c0.055-0.006 0.12-0.010 0.185-0.010 0.965 0 1.747 0.782 1.747 1.747 0 0.065-0.004 0.129-0.011 0.193l0.001-0.008zM26.327 20.18c-0.112 0.608-0.513 1.103-1.053 1.344l-0.012 0.005v-5.136c0-0.011 0-0.024 0-0.038 0-0.281-0.031-0.555-0.091-0.819l0.005 0.025 2.209 0.574zM27.71 14.902l-0.086 0.288-3.070-0.803c-0.545-0.55-1.3-0.891-2.136-0.891-0.036 0-0.071 0.001-0.107 0.002l0.005-0h-1.122l-13.684-3.672 0.516-1.979 20.14 5.334zM28.57 11.746l-0.115 0.43-20.141-5.336 0.115-0.43c0.089-0.683 0.579-1.231 1.223-1.403l0.012-0.003c0.15-0.032 0.322-0.051 0.498-0.051 0.221 0 0.435 0.029 0.638 0.083l-0.017-0.004 16.437 4.36c0.379 0.097 0.707 0.276 0.978 0.518l-0.002-0.002c0.306 0.306 0.496 0.73 0.496 1.198 0 0.23-0.046 0.449-0.129 0.649l0.004-0.011z"></path>
<path d="M11.67 15.676h-5.134c-0.034-0.003-0.073-0.006-0.112-0.006-0.636 0-1.152 0.516-1.152 1.152 0 0.010 0 0.021 0 0.031l-0-0.002v2.381c0 0.002 0 0.004 0 0.006 0 0.634 0.514 1.148 1.148 1.148 0.041 0 0.082-0.002 0.121-0.006l-0.005 0h5.135c0.034 0.003 0.073 0.006 0.112 0.006 0.636 0 1.152-0.516 1.152-1.152 0-0.010-0-0.021-0-0.031l0 0.002v-2.353c0-0.009 0-0.019 0-0.029 0-0.636-0.516-1.152-1.152-1.152-0.040 0-0.079 0.002-0.117 0.006l0.005-0zM11.9 19.233c0 0.086 0 0.144-0.229 0.144h-5.134c-0.229 0-0.229-0.057-0.229-0.144v-2.38c0-0.086 0-0.144 0.229-0.144h5.135c0.229 0 0.229 0.057 0.229 0.144z"></path>
<path d="M22.457 22.503h-17.27c-0.285 0-0.516 0.231-0.516 0.516s0.231 0.516 0.516 0.516h17.27c0.285 0 0.516-0.231 0.516-0.516s-0.231-0.516-0.516-0.516v0z"></path>
<path d="M7.138 24.254h-1.951c-0.285 0-0.516 0.231-0.516 0.516s0.231 0.516 0.516 0.516h1.951c0.285 0 0.516-0.231 0.516-0.516s-0.231-0.516-0.516-0.516v0z"></path>
<path d="M13.391 24.254h-4.274c-0.285 0-0.516 0.231-0.516 0.516s0.231 0.516 0.516 0.516h4.274c0.001 0 0.001 0 0.002 0 0.283 0 0.513-0.229 0.514-0.512v-0.005c-0.009-0.282-0.235-0.508-0.515-0.516h-0.001z"></path>
</svg>
