<!-- Generated by IcoMoon.io -->
<svg version="1.1" xmlns="http://www.w3.org/2000/svg" width="32" height="32" viewBox="0 0 32 32">
<title>atm</title>
<path d="M28.2 2.785h-24.4c-1.272 0.009-2.3 1.042-2.3 2.315 0 0 0 0 0 0v0 5.23c0 0 0 0 0 0 0 1.273 1.028 2.306 2.299 2.315h4.336v14.145c0.003 1.338 1.087 2.422 2.425 2.425h10.88c1.338-0.003 2.422-1.087 2.425-2.425v-14.145h4.335c1.272-0.008 2.3-1.042 2.3-2.315 0-0 0-0 0-0v0-5.23c0 0 0-0 0-0 0-1.273-1.028-2.306-2.299-2.315h-0.001zM21.44 28.080h-10.88c-0.711-0.003-1.287-0.579-1.29-1.29v-17.97h2.8v15.045c0 0.313 0.254 0.567 0.568 0.567s0.568-0.254 0.568-0.567v0-15.045h9.53v17.97c-0.003 0.713-0.582 1.29-1.295 1.29 0 0 0 0 0 0v0zM23.3 7.69h-14.6c-0.312 0-0.565 0.253-0.565 0.565v0 1.305h-2.040v-3.245h19.81v3.245h-2.040v-1.305c0-0.312-0.253-0.565-0.565-0.565v0zM28.2 11.5h-4.335v-0.805h2.605c0.312 0 0.565-0.253 0.565-0.565v0-4.385c0-0.312-0.253-0.565-0.565-0.565v0h-20.94c-0.312 0-0.565 0.253-0.565 0.565v0 4.38c0 0.312 0.253 0.565 0.565 0.565v0h2.605v0.81h-4.335c-0.652 0-1.18-0.528-1.18-1.18v0-5.22c0-0.652 0.528-1.18 1.18-1.18v0h24.4c0.652 0 1.18 0.528 1.18 1.18v0 5.23c-0.006 0.647-0.532 1.17-1.18 1.17 0 0-0 0-0 0v0z"></path>
<path d="M13.19 26.035c-0.008-0.040-0.018-0.075-0.031-0.109l0.001 0.004c-0.015-0.038-0.032-0.071-0.051-0.102l0.001 0.002c-0.042-0.062-0.093-0.113-0.153-0.154l-0.002-0.001-0.1-0.050-0.105-0.030c-0.033-0.007-0.071-0.011-0.11-0.011s-0.077 0.004-0.114 0.012l0.004-0.001-0.105 0.030-0.1 0.050c-0.062 0.041-0.114 0.093-0.154 0.153l-0.001 0.002c-0.018 0.029-0.035 0.061-0.049 0.096l-0.001 0.004c-0.012 0.030-0.022 0.065-0.029 0.101l-0.001 0.004c-0.007 0.033-0.011 0.071-0.011 0.11s0.004 0.077 0.012 0.114l-0.001-0.004c0.007 0.040 0.018 0.075 0.031 0.109l-0.001-0.004c0.015 0.038 0.032 0.071 0.051 0.102l-0.001-0.002c0.041 0.062 0.093 0.114 0.153 0.154l0.002 0.001 0.1 0.050 0.105 0.030h0.22l0.105-0.030 0.1-0.050c0.062-0.042 0.113-0.093 0.154-0.153l0.001-0.002c0.018-0.029 0.035-0.062 0.049-0.096l0.001-0.004c0.012-0.030 0.023-0.065 0.029-0.101l0.001-0.004c0.007-0.033 0.011-0.071 0.011-0.11s-0.004-0.077-0.011-0.114l0.001 0.004z"></path>
<path d="M19.55 13.1c-0.306 0.008-0.55 0.258-0.55 0.565 0 0 0 0 0 0v0 6.56c0 0.313 0.254 0.567 0.567 0.567s0.567-0.254 0.567-0.567v0-6.56c0-0 0-0 0-0 0-0.312-0.253-0.565-0.565-0.565-0.007 0-0.014 0-0.021 0l0.001-0z"></path>
<path d="M20.105 11.28c-0.007-0.040-0.018-0.075-0.031-0.109l0.001 0.004c-0.015-0.039-0.032-0.071-0.051-0.102l0.001 0.002c-0.021-0.032-0.044-0.060-0.070-0.085l-0-0-0.085-0.070-0.1-0.050-0.105-0.030c-0.033-0.007-0.071-0.011-0.11-0.011s-0.077 0.004-0.114 0.012l0.004-0.001-0.105 0.030-0.1 0.050-0.090 0.080c-0.025 0.025-0.048 0.053-0.069 0.083l-0.001 0.002c-0.018 0.028-0.035 0.061-0.049 0.096l-0.001 0.004c-0.012 0.030-0.023 0.065-0.029 0.102l-0.001 0.003c-0.006 0.032-0.010 0.068-0.010 0.105s0.004 0.073 0.011 0.108l-0.001-0.004c0.007 0.040 0.018 0.075 0.031 0.109l-0.001-0.004c0.015 0.039 0.032 0.071 0.051 0.102l-0.001-0.002c0.022 0.032 0.045 0.060 0.070 0.085v0c0.025 0.026 0.053 0.049 0.083 0.069l0.002 0.001 0.1 0.050 0.105 0.030h0.22l0.105-0.030 0.1-0.050c0.062-0.041 0.114-0.093 0.154-0.153l0.001-0.002c0.018-0.029 0.035-0.062 0.049-0.096l0.001-0.004c0.012-0.030 0.023-0.065 0.029-0.102l0-0.003c0.007-0.033 0.011-0.071 0.011-0.11s-0.004-0.077-0.012-0.114l0.001 0.004z"></path>
<path d="M19.55 22.030c-1.229 0-2.225 0.996-2.225 2.225s0.996 2.225 2.225 2.225c1.229 0 2.225-0.996 2.225-2.225v0c-0.003-1.228-0.997-2.222-2.225-2.225h-0zM19.55 25.345c-0.602 0-1.090-0.488-1.090-1.090s0.488-1.090 1.090-1.090c0.602 0 1.090 0.488 1.090 1.090v0c0 0.602-0.488 1.090-1.090 1.090v0z"></path>
</svg>
