<svg height="512" viewBox="0 0 128 128" width="512" xmlns="http://www.w3.org/2000/svg"><g id="number"><text fill="#24253a" font-family="MyriadPro-Regular, Myriad Pro" font-size="40" letter-spacing=".002em" transform="translate(53.681 -54.265)">1<tspan x="-10.3" y="228">11</tspan><tspan x="-10.3" y="456">21</tspan><tspan x="-10.3" y="684">31</tspan><tspan x="-10.3" y="912">41</tspan><tspan x="-10.3" y="1140">51</tspan><tspan x="-10.3" y="1368">61</tspan><tspan x="-10.3" y="1596">71</tspan><tspan x="-10.3" y="1824">81</tspan><tspan x="-10.3" y="2052">91</tspan><tspan x="-20.599" y="2280">101</tspan><tspan x="-20.599" y="2508">111</tspan><tspan x="-20.599" y="2736">121</tspan><tspan x="-20.599" y="2964">131</tspan><tspan x="-20.599" y="3192">141</tspan><tspan x="-20.599" y="3420">151</tspan><tspan x="-20.599" y="3648">161</tspan><tspan x="-20.599" y="3876">171</tspan><tspan x="-20.599" y="4104">181</tspan><tspan x="-20.599" y="4332">191</tspan><tspan x="-20.599" y="4560">201</tspan><tspan x="-20.599" y="4788">211</tspan><tspan x="-20.599" y="5016">221</tspan><tspan x="-20.599" y="5244">231</tspan><tspan x="-20.599" y="5472">241</tspan></text></g><g id="icon"><circle cx="64.511" cy="95.833" fill="#f6c863" r="9.667"/><path d="m67.948 22.448v10.932h-7.9v-10.932a3.948 3.948 0 0 1 3.952-3.948 3.948 3.948 0 0 1 3.948 3.948z" fill="#eab54e"/><path d="m100.415 90.833h-72.83l1.834-3.3a52.691 52.691 0 0 0 6.616-25.561v-7.616c0-15.307 12.067-28.2 27.37-28.517a27.963 27.963 0 0 1 28.55 27.954v8.155a52.689 52.689 0 0 0 6.614 25.559z" fill="#f6c863"/><rect fill="#eab54e" height="8.75" rx="4.375" width="80" x="24" y="87.083"/></g></svg>