<!-- Generated by IcoMoon.io -->
<svg version="1.1" xmlns="http://www.w3.org/2000/svg" width="32" height="32" viewBox="0 0 32 32">
<title>beneficiaries</title>
<path d="M16.34 25.31c-0.090-0.090-0.214-0.145-0.351-0.145-0.275 0-0.498 0.223-0.498 0.498s0.223 0.498 0.498 0.498c0.275 0 0.498-0.223 0.498-0.498v-0c0-0 0-0 0-0 0-0.138-0.056-0.263-0.147-0.353l-0-0z"></path>
<path d="M26.129 16.918l-1.668-0.398v-0.662c0.932-0.593 1.542-1.621 1.543-2.791v-1.864c0-0 0-0 0-0 0-1.822-1.477-3.299-3.299-3.299-0.982 0-1.864 0.429-2.468 1.11l-0.003 0.003c-0.549-1.851-2.233-3.179-4.228-3.181h-0c-1.997 0.003-3.683 1.335-4.221 3.158l-0.008 0.031c-0.608-0.689-1.492-1.121-2.478-1.121-1.822 0-3.299 1.477-3.299 3.299 0 0 0 0.001 0 0.001v-0 1.864c0.001 1.17 0.611 2.197 1.529 2.782l0.013 0.008v0.662l-1.669 0.399c-1.544 0.374-2.672 1.743-2.672 3.377 0 0.003 0 0.006 0 0.009v-0 3.361c0 0.275 0.223 0.498 0.498 0.498v0h3.999v1.5c0 0.275 0.223 0.498 0.498 0.498v0h5.486c0.276 0 0.5-0.224 0.5-0.5s-0.224-0.5-0.5-0.5v0h-2.228v-2.195c0-0.276-0.224-0.5-0.5-0.5s-0.5 0.224-0.5 0.5v0 2.2h-1.753v-2.255c0-0.003 0-0.006 0-0.009 0-1.713 1.183-3.149 2.776-3.537l0.025-0.005 2.459-0.59 1.582 3.6c0.079 0.177 0.253 0.299 0.456 0.299 0 0 0.001 0 0.001 0h-0c0 0 0.001 0 0.001 0 0.203 0 0.378-0.121 0.455-0.296l0.001-0.003 1.58-3.595 2.453 0.586c1.618 0.393 2.801 1.829 2.801 3.542 0 0.004 0 0.008-0 0.013v-0.001 0.557c-0.025 0.058-0.040 0.125-0.040 0.195s0.015 0.138 0.041 0.199l-0.001-0.003v1.307h-1.743v-2.203c0-0.276-0.224-0.5-0.5-0.5s-0.5 0.224-0.5 0.5v0 2.2h-2.446c-0.276 0-0.5 0.224-0.5 0.5s0.224 0.5 0.5 0.5v0h5.692c0.275 0 0.498-0.223 0.498-0.498v0-1.503h4.009c0.275 0 0.498-0.223 0.498-0.498v0-3.361c0-0.003 0-0.008 0-0.012 0-1.632-1.126-3-2.644-3.371l-0.024-0.005zM22.703 8.904c1.272 0 2.303 1.031 2.303 2.303v0 0.174h-1.432c0 0-0 0-0 0-1.133 0-2.194-0.305-3.107-0.837l0.029 0.016c0.288-0.964 1.166-1.654 2.206-1.656h0zM20.4 12.985c0-0.051 0-1.345 0-1.345 0.924 0.465 2.014 0.737 3.167 0.737h1.432v0.689c-0.062 1.222-1.068 2.19-2.3 2.19s-2.238-0.967-2.3-2.184l-0-0.005zM12.604 10.235c0.026-1.858 1.538-3.355 3.4-3.355s3.374 1.496 3.4 3.352l0 0.002v0.062l-1.856-1.091c-0.073-0.044-0.16-0.070-0.254-0.070-0.154 0-0.291 0.070-0.383 0.179l-0.001 0.001c-0.698 0.831-1.737 1.355-2.898 1.355-0.002 0-0.004 0-0.006 0h-1.403zM6.997 11.326v-0.124c0.010-1.264 1.037-2.285 2.303-2.285 1.035 0 1.91 0.682 2.2 1.621l0.004 0.016c-0.883 0.516-1.944 0.821-3.076 0.821h-1.432zM6.997 13.066v-0.69h1.432c1.155-0 2.245-0.273 3.212-0.757l-0.041 0.019v1.427c-0.062 1.222-1.068 2.19-2.3 2.19s-2.238-0.967-2.3-2.184l-0-0.005zM7.697 22.909v0.255h-1.498v-2.223c0-0.276-0.224-0.5-0.5-0.5s-0.5 0.224-0.5 0.5v0 2.222h-1v-2.863c0-0.001 0-0.003 0-0.004 0-1.164 0.804-2.14 1.887-2.403l0.017-0.003 1.585-0.378 1.035 2.478c-0.638 0.788-1.025 1.804-1.025 2.909 0 0.004 0 0.008 0 0.012v-0.001zM9.297 18.77l-0.759-1.819v-0.672c0.227 0.056 0.488 0.088 0.756 0.088s0.529-0.032 0.778-0.093l-0.022 0.005v0.63c-0.001 0.007-0.001 0.015-0.001 0.024s0 0.017 0.001 0.025l-0-0.001zM11.265 18.386c-0.325 0.079-0.606 0.179-0.874 0.303l0.029-0.012 0.487-1.166 1.585 0.38c0.14 0.034 0.26 0.074 0.375 0.122l-0.016-0.006zM13.747 17.344c-0.294-0.185-0.635-0.332-0.998-0.421l-0.024-0.005-1.674-0.401v-0.658c0.419-0.267 0.765-0.612 1.025-1.017l0.008-0.013c0.386 0.743 0.953 1.346 1.642 1.766l0.020 0.011zM17.245 18.084l-1.245 2.839-1.251-2.845v-1.031c0.376 0.116 0.808 0.183 1.256 0.183 0.442 0 0.868-0.065 1.271-0.186l-0.031 0.008zM16.005 16.23c-1.877-0.002-3.398-1.523-3.401-3.4v-1.157h1.404c0.002 0 0.004 0 0.006 0 1.317 0 2.51-0.534 3.374-1.397l-0 0 2.011 1.183v1.49c-0.067 1.825-1.561 3.28-3.396 3.283h-0zM18.246 16.615v0c0.715-0.429 1.286-1.033 1.664-1.753l0.012-0.024c0.268 0.414 0.611 0.755 1.014 1.012l0.013 0.008v0.656l-1.674 0.401c-0.389 0.095-0.732 0.243-1.042 0.438l0.014-0.008v-0.729zM20.72 18.385l-1.581-0.378c0.102-0.044 0.224-0.085 0.351-0.116l0.017-0.004 1.581-0.379 0.489 1.171c-0.243-0.114-0.528-0.215-0.825-0.288l-0.032-0.007zM21.944 16.964c0.002-0.016 0.003-0.035 0.004-0.054v-0.632c0.227 0.056 0.488 0.088 0.756 0.088s0.529-0.032 0.778-0.093l-0.022 0.005v0.663l-0.764 1.828zM27.8 23.163h-0.999v-2.221c0-0.276-0.224-0.5-0.5-0.5s-0.5 0.224-0.5 0.5v0 2.222h-1.508v-0.255c0-0.003 0-0.006 0-0.009 0-1.104-0.386-2.119-1.030-2.915l0.007 0.009 1.038-2.485 1.589 0.38c1.1 0.266 1.905 1.242 1.905 2.406 0 0.002 0 0.004 0 0.007v-0z"></path>
<path d="M14.677 12.273c-0.090-0.089-0.214-0.145-0.351-0.145-0.275 0-0.498 0.223-0.498 0.498s0.223 0.498 0.498 0.498c0.275 0 0.498-0.223 0.498-0.498v-0c0-0 0-0 0-0 0-0.138-0.056-0.263-0.147-0.353l-0-0z"></path>
<path d="M18.020 12.273c-0.090-0.089-0.214-0.145-0.351-0.145-0.275 0-0.498 0.223-0.498 0.498s0.223 0.498 0.498 0.498c0.275 0 0.498-0.223 0.498-0.498v-0c0-0 0-0 0-0 0-0.138-0.056-0.263-0.147-0.353l-0-0z"></path>
<path d="M16.962 13.956c-0.090-0.091-0.215-0.147-0.354-0.147s-0.263 0.056-0.354 0.147l-0 0c-0.069 0.068-0.163 0.111-0.268 0.111s-0.199-0.042-0.268-0.111v0c-0.091-0.091-0.215-0.146-0.354-0.146-0.276 0-0.5 0.224-0.5 0.5 0 0.138 0.056 0.263 0.146 0.354v0c0.25 0.249 0.594 0.403 0.975 0.403s0.725-0.154 0.975-0.403l-0 0c0.080-0.095 0.128-0.219 0.128-0.354s-0.049-0.259-0.129-0.354l0.001 0.001z"></path>
</svg>
