<svg xmlns="http://www.w3.org/2000/svg" width="18.282" height="18.28" viewBox="0 0 18.282 18.28">  <path id="pencil" d="M16.182.707a2.518,2.518,0,0,0-3.557,0l-.89.9L2.255,11.076l-.02.02s0,.01-.01.01c-.01.015-.025.03-.035.045s-.005.005-.005.01-.015.025-.025.04,0,.01-.01.015-.01.025-.015.04,0,0,0,.01l-2.1,6.324a.5.5,0,0,0,.121.513.506.506,0,0,0,.357.146.594.594,0,0,0,.161-.025l6.319-2.108s0,0,.01,0a.182.182,0,0,0,.045-.02.018.018,0,0,0,.01,0c.015-.01.035-.02.05-.03s.03-.025.045-.035.01-.005.01-.01.015-.01.02-.02L17.546,5.622a2.517,2.517,0,0,0,0-3.557ZM6.824,14.935l-3.5-3.5,8.764-8.764,3.5,3.5ZM2.829,12.364l3.059,3.059L1.294,16.952ZM16.836,4.918l-.533.538-3.5-3.5.539-.538a1.509,1.509,0,0,1,2.133,0l1.368,1.368A1.514,1.514,0,0,1,16.836,4.918Zm0,0" transform="translate(0 0.029)" fill="white"/></svg>