<!-- Generated by IcoMoon.io -->
<svg version="1.1" xmlns="http://www.w3.org/2000/svg" width="32" height="32" viewBox="0 0 32 32">
<title>dhuhr</title>
<path d="M7.75 16c-0-0.594-0.482-1.076-1.076-1.076h-2.15c-0.574 0.026-1.030 0.497-1.030 1.075s0.456 1.049 1.027 1.075l0.002 0h2.15c0.593-0 1.075-0.481 1.076-1.074v-0zM8.826 22.097c-0 0-0.001 0-0.001 0-0.297 0-0.565 0.12-0.76 0.314v0l-1.434 1.435c-0.177 0.191-0.286 0.448-0.286 0.731 0 0.594 0.482 1.076 1.076 1.076 0.282 0 0.538-0.108 0.73-0.286l-0.001 0.001 1.435-1.435c0.195-0.195 0.316-0.464 0.316-0.761 0-0.594-0.482-1.076-1.075-1.076-0 0-0 0-0.001 0h0zM16 7.753c0.594 0 1.076-0.482 1.076-1.076v0 0-2.155c0.001-0.014 0.001-0.030 0.001-0.046 0-0.594-0.482-1.076-1.076-1.076s-1.076 0.482-1.076 1.076c0 0.016 0 0.033 0.001 0.049l-0-0.002v2.15c0 0.001 0 0.001 0 0.002 0 0.593 0.479 1.073 1.071 1.076h0zM23.172 9.903c0.001 0 0.002 0 0.003 0 0.296 0 0.564-0.12 0.758-0.314l1.435-1.435c0.188-0.193 0.303-0.458 0.303-0.749 0-0.594-0.482-1.076-1.076-1.076-0.291 0-0.555 0.116-0.749 0.303l-1.435 1.434c-0.195 0.195-0.315 0.464-0.315 0.761 0 0.594 0.482 1.076 1.076 1.076v0zM8.068 9.585c0.193 0.184 0.455 0.298 0.744 0.298 0.595 0 1.076-0.482 1.076-1.076 0-0.289-0.114-0.551-0.298-0.744l0 0-1.435-1.435c-0.195-0.195-0.464-0.316-0.762-0.316-0.595 0-1.077 0.482-1.077 1.077 0 0.297 0.12 0.566 0.315 0.761v0zM27.478 14.924h-2.154c-0.014-0.001-0.030-0.001-0.046-0.001-0.594 0-1.076 0.482-1.076 1.076s0.482 1.076 1.076 1.076c0.016 0 0.033-0 0.049-0.001l-0.002 0h2.153c0.574-0.026 1.030-0.497 1.030-1.075s-0.456-1.049-1.027-1.075l-0.002-0zM23.933 22.412c-0.192-0.182-0.453-0.294-0.739-0.294-0.595 0-1.076 0.482-1.076 1.076 0 0.286 0.112 0.546 0.294 0.739l-0-0.001 1.435 1.435c0.192 0.182 0.453 0.294 0.739 0.294 0.595 0 1.076-0.482 1.076-1.076 0-0.286-0.112-0.546-0.294-0.739l0 0.001zM16 24.25c-0.594 0-1.076 0.482-1.076 1.076v0 2.153c0.026 0.574 0.497 1.030 1.075 1.030s1.049-0.456 1.075-1.027l0-0.002v-2.154c-0.001-0.593-0.481-1.073-1.074-1.075h-0zM16 8.469c-0 0-0 0-0.001 0-4.16 0-7.531 3.372-7.531 7.531s3.372 7.532 7.532 7.532c4.16 0 7.532-3.372 7.532-7.532 0-0 0-0 0-0.001v0c0-0 0-0 0-0.001 0-4.159-3.372-7.531-7.531-7.532h-0zM16 21.381c-0 0-0 0-0.001 0-2.971 0-5.38-2.409-5.38-5.38s2.409-5.38 5.38-5.38c2.971 0 5.38 2.408 5.38 5.379v0c-0 2.971-2.409 5.379-5.379 5.38h-0z"></path>
</svg>
