<!-- Generated by IcoMoon.io -->
<svg version="1.1" xmlns="http://www.w3.org/2000/svg" width="32" height="32" viewBox="0 0 32 32">
<title>fajr</title>
<path d="M16 10.594c0.497 0 0.9-0.403 0.9-0.9v0-1.8c0-0.497-0.403-0.9-0.9-0.9s-0.9 0.403-0.9 0.9v0 1.8c0 0.497 0.403 0.9 0.9 0.9v0zM28.614 23.208h-25.232c-0 0-0.001 0-0.002 0-0.497 0-0.9 0.403-0.9 0.9s0.402 0.899 0.898 0.9h25.237c0 0 0.001 0 0.002 0 0.497 0 0.9-0.403 0.9-0.9s-0.402-0.899-0.898-0.9h-0.006zM26.814 14.569l1.274-1.274c0.163-0.163 0.264-0.388 0.264-0.637 0-0.498-0.403-0.901-0.901-0.901-0.249 0-0.474 0.101-0.637 0.264v0l-1.274 1.275c-0.163 0.163-0.264 0.388-0.264 0.637 0 0.498 0.403 0.901 0.901 0.901 0.249 0 0.474-0.101 0.637-0.264v0zM5.186 14.569c0.163 0.164 0.389 0.265 0.638 0.265 0.498 0 0.902-0.404 0.902-0.902 0-0.249-0.101-0.474-0.263-0.637l-1.274-1.274c-0.163-0.163-0.388-0.264-0.637-0.264-0.498 0-0.901 0.403-0.901 0.901 0 0.249 0.101 0.474 0.264 0.637v0zM7.186 21.405c0.86-4.142 4.48-7.21 8.816-7.21s7.955 3.068 8.806 7.152l0.010 0.058h1.9c-0.698-5.084-5.224-9.012-10.717-9.012s-10.020 3.931-10.712 9.015z"></path>
</svg>
