<!-- Generated by IcoMoon.io -->
<svg version="1.1" xmlns="http://www.w3.org/2000/svg" width="32" height="32" viewBox="0 0 32 32">
<title>investments</title>
<path d="M29.456 18.171h-5.642c-0.479 0.001-0.867 0.389-0.868 0.868v0h-2.606c-0.201 0.001-0.37 0.142-0.413 0.33l-0.001 0.003-3.558-0.832c-0.089-0.022-0.192-0.035-0.298-0.035-0.177 0-0.346 0.036-0.5 0.101l0.008-0.003-3.399 1.39c-0.434 0.179-0.762 0.539-0.893 0.984l-0.003 0.011-7.497-2.018c-0.113-0.035-0.242-0.056-0.377-0.056-0.719 0-1.302 0.583-1.302 1.302v0 0.97c0 0 0 0.001 0 0.002 0 0.449 0.228 0.845 0.575 1.079l0.005 0.003 4.822 3.214c0.043 0.029 0.094 0.051 0.149 0.063l0.003 0 8.036 1.687c0.089 0.022 0.191 0.034 0.296 0.034 0.001 0 0.001 0 0.002 0h-0c0.001 0 0.003 0 0.005 0 0.104 0 0.205-0.012 0.302-0.036l-0.009 0.002 3.609-0.852v0.034c0 0.24 0.194 0.434 0.434 0.434v0h2.724c0.152 0.261 0.43 0.433 0.749 0.434h5.643c0.24 0 0.434-0.194 0.434-0.434v0 0-8.245c0-0.24-0.194-0.434-0.434-0.434v0zM19.882 25.497l-3.78 0.892c-0.031 0.008-0.067 0.013-0.104 0.013s-0.073-0.005-0.108-0.013l-7.966-1.671-4.753-3.167c-0.117-0.079-0.193-0.211-0.193-0.361 0-0 0-0.001 0-0.001v0-0.972c0-0.001 0-0.002 0-0.003 0-0.141 0.068-0.267 0.174-0.345l0.001-0.001c0.072-0.053 0.162-0.085 0.259-0.085 0.049 0 0.096 0.008 0.14 0.023l-0.003-0.001 7.752 2.087c0.208 0.617 0.78 1.054 1.455 1.055h3.244v-0.868h-3.244c-0.366-0.002-0.663-0.299-0.663-0.665 0-0.277 0.169-0.515 0.41-0.615l0.004-0.002 3.4-1.391c0.049-0.020 0.105-0.032 0.164-0.032 0.035 0 0.068 0.004 0.101 0.012l-0.003-0.001 3.735 0.873zM22.946 25.984h-2.171v-6.077h2.171zM29.023 26.418h-5.209v-7.379h5.209z"></path>
<path d="M16.435 10.445v-2.257h3.038c1.677-0.002 3.037-1.361 3.039-3.039v-0c0-0 0-0.001 0-0.001 0-0.239-0.194-0.433-0.433-0.434h-3.473c-1.102 0.001-2.066 0.588-2.598 1.466l-0.008 0.013c-0.539-0.892-1.503-1.48-2.604-1.482h-3.473c-0.24 0-0.434 0.194-0.434 0.434v0c0 0 0 0 0 0 0 1.679 1.36 3.040 3.038 3.042h3.040v2.258c-3.657 0.206-6.544 3.222-6.544 6.912 0 0.999 0.212 1.949 0.593 2.807l-0.018-0.044 0.794-0.35c-0.321-0.712-0.508-1.544-0.508-2.42 0-1.661 0.673-3.165 1.761-4.254l-0 0c1.101-1.109 2.625-1.798 4.31-1.803h0.045c0.005 0 0.012-0 0.018-0 3.338 0 6.048 2.684 6.091 6.011l0 0.004 0.868-0.005c-0.044-3.661-2.912-6.637-6.523-6.857l-0.019-0.001zM18.605 5.58h2.997c-0.209 0.999-1.082 1.738-2.128 1.739h-2.997c0.209-0.999 1.082-1.738 2.128-1.739h0zM12.527 7.32c-1.045-0.002-1.917-0.741-2.124-1.725l-0.002-0.014h2.996c1.045 0.002 1.917 0.741 2.124 1.725l0.002 0.014z"></path>
<path d="M16 12.527h-0.031c-0.002 0-0.005 0-0.008 0-1.295 0-2.473 0.501-3.351 1.319l0.003-0.003c-0.854 0.787-1.388 1.911-1.388 3.16 0 0.007 0 0.013 0 0.020v-0.001c0.004 0.644 0.152 1.252 0.413 1.796l-0.011-0.025 0.786-0.37c-0.199-0.412-0.317-0.895-0.32-1.406v-0.001c0-0.003 0-0.006 0-0.009 0-1.001 0.428-1.902 1.112-2.529l0.002-0.002c0.721-0.67 1.69-1.081 2.755-1.081 0.004 0 0.008 0 0.012 0h0.026c0.043-0.002 0.093-0.003 0.144-0.003 2.014 0 3.659 1.58 3.763 3.567l0 0.009 0.868-0.006c-0.109-2.473-2.141-4.437-4.631-4.437-0.051 0-0.102 0.001-0.152 0.002l0.007-0z"></path>
<path d="M26.542 25.071c0 0.349-0.283 0.633-0.633 0.633s-0.633-0.283-0.633-0.633c0-0.349 0.283-0.633 0.633-0.633s0.633 0.283 0.633 0.633z"></path>
</svg>
