<!-- Generated by IcoMoon.io -->
<svg version="1.1" xmlns="http://www.w3.org/2000/svg" width="32" height="32" viewBox="0 0 32 32">
<title>isha</title>
<path d="M26.456 15.423c-0.102-0.068-0.226-0.108-0.36-0.108s-0.259 0.040-0.363 0.11l0.002-0.002c-1.039 0.592-2.274 0.96-3.59 1.009l-0.014 0c-0.064 0.002-0.14 0.004-0.216 0.004-1.728 0-3.288-0.72-4.396-1.876l-0.002-0.002c-1.192-1.186-1.93-2.828-1.93-4.642 0-1.331 0.397-2.569 1.079-3.602l-0.015 0.024c0.069-0.101 0.11-0.226 0.11-0.361s-0.041-0.259-0.112-0.363l0.001 0.002c-0.134-0.259-0.4-0.433-0.707-0.433-0.006 0-0.011 0-0.017 0h0.001c-5.973 0-10.814 4.842-10.814 10.814s4.842 10.814 10.814 10.814v0c2.999-0.044 5.722-1.185 7.796-3.039l-0.012 0.010c1.94-2.020 3.143-4.759 3.173-7.78l0-0.006c-0.041-0.256-0.203-0.467-0.424-0.575l-0.005-0.002zM22.56 22.633c-1.706 1.753-4.089 2.841-6.725 2.841-5.181 0-9.381-4.2-9.381-9.381 0-4.807 3.616-8.77 8.276-9.317l0.044-0.004c-0.421 0.93-0.667 2.016-0.667 3.16 0 2.212 0.918 4.21 2.395 5.633l0.002 0.002c1.438 1.427 3.419 2.309 5.606 2.309 0.006 0 0.012 0 0.018-0h-0.001c1.154-0.018 2.242-0.281 3.22-0.741l-0.048 0.020c-0.335 2.153-1.319 4.033-2.741 5.479l0.001-0.001z"></path>
</svg>
