<!-- Generated by IcoMoon.io -->
<svg version="1.1" xmlns="http://www.w3.org/2000/svg" width="32" height="32" viewBox="0 0 32 32">
<title>trade-finance</title>
<path d="M29.894 19.833h-9.102c-1.641 0-1.876 1.371-1.91 2.395h-3.521c-0.962 0.011-1.737 0.793-1.737 1.756 0 0.881 0.649 1.611 1.496 1.737l0.010 0.001 6.081 0.81c0.019 0.003 0.040 0.004 0.062 0.004 0 0 0 0 0 0h-0c0 0 0 0 0 0 0.047 0 0.092-0.007 0.134-0.019l-0.003 0.001 3.29-0.94h5.202c0.264 0 0.479-0.214 0.479-0.479v0 0-4.789c0-0.264-0.214-0.479-0.479-0.479v0zM24.145 24.742l-2.91 0.834-5.98-0.798c-0.393-0.054-0.693-0.388-0.693-0.791 0-0.441 0.357-0.798 0.798-0.798 0 0 0.001 0 0.001 0h6.388v-0.96h-1.905c0.051-1.204 0.318-1.437 0.948-1.437h3.355zM26.062 24.624h-0.959v-3.832h0.958zM29.417 24.624h-2.397v-3.832h2.395z"></path>
<path d="M16.479 12.168h-0.958c-0.794 0-1.437 0.644-1.437 1.437s0.644 1.437 1.437 1.437v0h0.96c0.794 0 1.437-0.644 1.437-1.437s-0.644-1.437-1.437-1.437v0zM16.479 14.084h-0.958c-0.265 0-0.479-0.214-0.479-0.479s0.214-0.479 0.479-0.479v0h0.958c0.265 0 0.479 0.214 0.479 0.479s-0.215 0.479-0.479 0.479v0z"></path>
<path d="M24.771 17.16c-0.049-0.018-0.105-0.029-0.163-0.029-0.206 0-0.382 0.13-0.449 0.313l-0.001 0.003c-0.123 0.342-0.241 0.617-0.372 0.884l0.023-0.052c-0.030 0.061-0.047 0.132-0.047 0.207 0 0.151 0.070 0.286 0.18 0.374l0.001 0.001c0.026 0.021 0.056 0.041 0.087 0.056l0.003 0.001c0.061 0.030 0.132 0.048 0.208 0.048 0.189 0 0.352-0.109 0.43-0.268l0.001-0.003c0.119-0.238 0.25-0.542 0.366-0.854l0.022-0.069c0.018-0.048 0.028-0.104 0.028-0.163 0-0.206-0.13-0.382-0.313-0.449l-0.003-0.001z"></path>
<path d="M24.667 14.8c-0.011 0.329-0.039 0.64-0.083 0.945l0.005-0.046c-0.002 0.014-0.002 0.031-0.002 0.047 0 0.265 0.215 0.479 0.48 0.479 0.235 0 0.431-0.169 0.472-0.392l0-0.003c0.042-0.288 0.073-0.633 0.086-0.982l0-0.017c0-0.002 0-0.004 0-0.006 0-0.265-0.215-0.479-0.48-0.479-0.256 0-0.465 0.201-0.479 0.453l-0 0.001z"></path>
<path d="M24.662 11.527v0c-0.201 0.060-0.345 0.243-0.345 0.46 0 0.047 0.007 0.093 0.020 0.136l-0.001-0.003c0.069 0.227 0.14 0.523 0.196 0.825l0.009 0.055c0.047 0.219 0.239 0.381 0.469 0.381 0.265 0 0.48-0.215 0.48-0.479 0-0.025-0.002-0.049-0.005-0.072l0 0.003c-0.071-0.396-0.15-0.725-0.245-1.048l0.017 0.069c-0.059-0.202-0.243-0.347-0.46-0.347-0.047 0-0.093 0.007-0.136 0.020l0.003-0.001z"></path>
<path d="M7.677 17.354c0.065-0.081 0.104-0.185 0.104-0.298 0-0.047-0.007-0.093-0.020-0.137l0.001 0.003c-0.070-0.228-0.141-0.524-0.197-0.825l-0.008-0.054c-0.044-0.223-0.238-0.389-0.471-0.389-0.265 0-0.479 0.215-0.479 0.48 0 0.017 0.001 0.034 0.003 0.051l-0-0.002c0.001 0.010 0.003 0.018 0.005 0.027l-0-0.001c0.070 0.393 0.15 0.723 0.246 1.045l-0.017-0.067c0.029 0.098 0.085 0.179 0.16 0.239l0.001 0.001c0.081 0.065 0.185 0.105 0.299 0.105 0.151 0 0.285-0.069 0.373-0.178l0.001-0.001z"></path>
<path d="M8.445 18.592c-0.082-0.153-0.241-0.255-0.423-0.255-0.265 0-0.479 0.214-0.479 0.479 0 0.082 0.021 0.159 0.057 0.227l-0.001-0.003v0.006c0.171 0.318 0.331 0.58 0.505 0.833l-0.020-0.030c0.009 0.017 0.030 0.048 0.041 0.064 0.026 0.037 0.055 0.068 0.089 0.095l0.001 0.001c0.080 0.063 0.181 0.1 0.292 0.1 0.104 0 0.2-0.033 0.278-0.089l-0.001 0.001c0.123-0.090 0.202-0.234 0.202-0.396 0-0.102-0.032-0.198-0.085-0.276l0.001 0.002c-0.143-0.208-0.294-0.456-0.432-0.711l-0.023-0.046z"></path>
<path d="M10.842 22.003c0.062-0.080 0.099-0.181 0.099-0.292 0-0.154-0.073-0.291-0.185-0.378l-0.001-0.001-0.070-0.057c-0.21-0.168-0.419-0.349-0.609-0.532-0.087-0.088-0.207-0.142-0.341-0.142-0.265 0-0.479 0.215-0.479 0.479 0 0.131 0.053 0.25 0.138 0.337l-0-0 0.017 0.017c0.21 0.206 0.442 0.405 0.677 0.592l0.082 0.064c0.080 0.062 0.182 0.099 0.292 0.099 0.154 0 0.291-0.073 0.379-0.186l0.001-0.001z"></path>
<path d="M9.771 17.917h11.977v-11.977c0-0 0-0 0-0.001 0-0.264-0.214-0.479-0.479-0.479 0 0 0 0 0 0h-11.020c-0.264 0-0.479 0.214-0.479 0.479v0 1.437h-0.482c-0 0-0 0-0 0-0.132 0-0.252 0.053-0.338 0.14v0l-1.774 1.775h-5.072c-0.264 0-0.479 0.214-0.479 0.479v0 4.791c0 0.264 0.214 0.479 0.479 0.479v0h7.666zM4.98 14.083h-2.395v-3.833h2.395zM6.897 14.083h-0.962v-3.833h0.958zM11.687 16.958h-0.958v-0.958h0.479c0.264 0 0.479 0.214 0.479 0.479v0zM20.791 16.958h-0.958v-0.479c0-0 0-0 0-0.001 0-0.264 0.214-0.479 0.479-0.479 0 0 0 0 0 0h0.479zM20.791 15.042h-0.479c-0.794 0-1.437 0.643-1.437 1.437v0 0.479h-6.23v-0.479c0-0 0-0 0-0.001 0-0.794-0.643-1.437-1.437-1.437h-0.479v-2.396h2.204c0.899 0 1.629-0.729 1.629-1.629v0-0.096c-0.001-0.243-0.055-0.474-0.152-0.681l0.004 0.010h4.461v0.479c0 0.794 0.643 1.437 1.437 1.437v0h0.479zM20.791 11.209h-0.479c-0.264 0-0.479-0.214-0.479-0.479v0-0.479h0.958zM10.73 6.418h10.060v0.958h-10.060zM10.73 8.334h10.060v0.955h-10.060zM7.855 14.083v-4.113l1.636-1.636h0.28v1.437c0 0.264 0.214 0.479 0.479 0.479v0h2.683c0.37 0 0.67 0.301 0.67 0.671v0 0.096c0 0.371-0.3 0.671-0.671 0.671v0h-2.681c-0.264 0-0.479 0.214-0.479 0.479v0 1.917z"></path>
<path d="M12.167 21.27c-0.264 0-0.479 0.214-0.479 0.479v0 0 0.961h-0.958c-0.265 0-0.479 0.215-0.479 0.479s0.214 0.479 0.479 0.479h1.437c0.264 0 0.479-0.214 0.479-0.479v0-1.44c0-0.264-0.214-0.479-0.479-0.479v0z"></path>
<path d="M23.187 11.688c0.264 0 0.479-0.214 0.479-0.479v0 0-0.959h0.958c0.265 0 0.479-0.214 0.479-0.479s-0.215-0.479-0.479-0.479v0h-1.437c-0.264 0-0.479 0.214-0.479 0.479v0 0 1.437c0 0 0 0.001 0 0.001 0 0.264 0.214 0.479 0.479 0.479 0 0 0 0 0 0v0z"></path>
</svg>
