<!-- Generated by IcoMoon.io -->
<svg version="1.1" xmlns="http://www.w3.org/2000/svg" width="32" height="32" viewBox="0 0 32 32">
<title>user</title>
<path d="M15.892 18.167h0.199c0.036 0.001 0.078 0.001 0.12 0.001 1.688 0 3.206-0.73 4.255-1.891l0.004-0.005c2.392-2.696 1.994-7.318 1.951-7.759-0.155-3.311-1.723-4.896-3.013-5.635-0.962-0.547-2.114-0.872-3.34-0.876h-0.107c-0.005-0-0.012-0-0.018-0-1.219 0-2.365 0.315-3.359 0.869l0.035-0.018c-1.305 0.739-2.895 2.323-3.050 5.662-0.043 0.441-0.441 5.063 1.951 7.759 1.050 1.165 2.564 1.894 4.248 1.894 0.044 0 0.088-0 0.132-0.002l-0.007 0zM11.226 8.667c0-0.019 0.007-0.037 0.007-0.050 0.205-4.454 3.364-4.933 4.722-4.933h0.075c1.677 0.037 4.529 0.72 4.722 4.933-0 0.003-0 0.006-0 0.010 0 0.014 0.003 0.028 0.007 0.041l-0-0.001c0.007 0.043 0.441 4.267-1.535 6.492-0.748 0.821-1.821 1.334-3.014 1.334-0.066 0-0.131-0.002-0.196-0.005l0.009 0h-0.062c-0.055 0.003-0.12 0.004-0.185 0.004-1.191 0-2.262-0.513-3.005-1.33l-0.003-0.003c-1.969-2.211-1.548-6.454-1.541-6.492z"></path>
<path d="M28.758 25.832v-0.019c0-0.050-0.007-0.099-0.007-0.155-0.037-1.231-0.118-4.103-2.815-5.026l-0.062-0.019c-1.961-0.549-3.676-1.352-5.221-2.389l0.064 0.041c-0.138-0.103-0.312-0.165-0.5-0.165-0.463 0-0.839 0.375-0.839 0.839 0 0.291 0.148 0.547 0.373 0.698l0.003 0.002c1.627 1.105 3.515 1.991 5.536 2.558l0.136 0.033c1.448 0.515 1.609 2.062 1.653 3.479-0 0.007-0 0.016-0 0.025 0 0.046 0.002 0.091 0.007 0.136l-0-0.006c0.001 0.059 0.002 0.128 0.002 0.198 0 0.608-0.048 1.204-0.141 1.786l0.008-0.064c-3.047 1.606-6.658 2.549-10.49 2.549-0.163 0-0.325-0.002-0.487-0.005l0.024 0c-0.125 0.002-0.272 0.004-0.42 0.004-3.849 0-7.478-0.946-10.666-2.618l0.126 0.060c-0.085-0.505-0.133-1.087-0.133-1.681 0-0.084 0.001-0.168 0.003-0.251l-0 0.012c0-0.050 0.007-0.099 0.007-0.155 0.043-1.416 0.205-2.963 1.653-3.479 2.157-0.603 4.044-1.489 5.741-2.635l-0.069 0.044c0.207-0.154 0.339-0.398 0.339-0.673 0-0.463-0.375-0.839-0.839-0.839-0.172 0-0.332 0.052-0.466 0.141l0.003-0.002c-1.48 1-3.196 1.803-5.032 2.319l-0.125 0.030c-0.025 0.007-0.043 0.012-0.062 0.019-2.696 0.926-2.777 3.802-2.815 5.026 0 0.007 0 0.016 0 0.025 0 0.046-0.002 0.091-0.007 0.136l0.001-0.006v0.019c-0.004 0.105-0.007 0.229-0.007 0.354 0 0.875 0.118 1.723 0.339 2.528l-0.016-0.067c0.064 0.165 0.177 0.299 0.32 0.389l0.003 0.002c0.186 0.124 4.653 2.97 12.127 2.97s11.94-2.852 12.127-2.97c0.145-0.094 0.257-0.228 0.321-0.386l0.002-0.006c0.194-0.736 0.305-1.58 0.305-2.45 0-0.125-0.002-0.249-0.007-0.372l0.001 0.018z"></path>
</svg>
