<!-- Generated by IcoMoon.io -->
<svg version="1.1" xmlns="http://www.w3.org/2000/svg" width="32" height="32" viewBox="0 0 32 32">
<title>credit-card-settlement</title>
<path d="M29.831 18.282c-0.364-0.62-1.028-1.031-1.787-1.031-0.374 0-0.725 0.1-1.028 0.274l0.010-0.005c-0.179 0.088-2.463 1.21-4.338 1.998-0.15 0.064-0.253 0.21-0.253 0.38 0 0.228 0.185 0.412 0.412 0.412 0.058 0 0.113-0.012 0.162-0.033l-0.003 0.001c1.97-0.829 4.372-2.015 4.396-2.026l0.023-0.012c0.177-0.104 0.39-0.165 0.617-0.165 0.455 0 0.853 0.246 1.069 0.612l0.003 0.006c0.395 0.684-0.222 1.433-0.523 1.738-2.047 1.652-7.711 5.884-9.615 5.884-2.11 0-8.032-1.255-9.48-1.569v-6.73c2.873-0.422 4.393 0.107 7.58 1.218 0.97 0.338 2.069 0.721 3.404 1.148 0.344 0.123 0.586 0.445 0.586 0.825 0 0.099-0.016 0.193-0.046 0.281l0.002-0.006c-0.115 0.429-0.5 0.74-0.958 0.74-0.066 0-0.131-0.006-0.193-0.019l0.006 0.001c-0.811-0.153-5.588-0.8-5.791-0.829-0.017-0.002-0.036-0.004-0.055-0.004-0.228 0-0.412 0.185-0.412 0.412 0 0.208 0.154 0.38 0.355 0.408l0.002 0c0.049 0.007 4.959 0.673 5.752 0.821 0.107 0.021 0.231 0.034 0.357 0.034h0c0.821-0.013 1.509-0.565 1.727-1.317l0.003-0.013c0.052-0.155 0.082-0.333 0.082-0.519 0-0.721-0.452-1.336-1.089-1.578l-0.012-0.004h-0.008l-0.034-0.012c-1.334-0.426-2.433-0.809-3.403-1.147-3.179-1.108-4.857-1.691-7.852-1.272v-0.342c0-0.227-0.184-0.411-0.411-0.411v0h-1.239v-0.411c0-0.227-0.184-0.411-0.411-0.411v0h-5.097c-0.227 0-0.411 0.184-0.411 0.411v0 9.060c0 0.228 0.185 0.412 0.412 0.412s0.412-0.185 0.412-0.412v-8.657h4.27v9.893h-0.821v-0.411c0-0.228-0.185-0.412-0.412-0.412s-0.412 0.185-0.412 0.412v0 0 0.411h-3.039c-0.228 0-0.412 0.185-0.412 0.412s0.185 0.412 0.412 0.412v0h5.096c0.227 0 0.411-0.184 0.411-0.411v-0.433h1.241c0.227 0 0.411-0.184 0.411-0.411v-0.292c1.725 0.373 7.339 1.549 9.48 1.549 1.127 0 3.125-1.004 6.108-3.070 2.15-1.486 4.023-2.997 4.041-3.010 0.012-0.010 0.023-0.019 0.033-0.029v0c0.896-0.902 1.146-1.929 0.669-2.754zM8.674 25.076v0.398h-0.821v-8.223h0.821z"></path>
<path d="M25.031 4.856h-12.644c-0.835 0-1.511 0.677-1.511 1.511v7.147c0 0.835 0.677 1.511 1.511 1.511v0h12.644c0.835 0 1.511-0.677 1.511-1.511v0 0-7.147c-0.001-0.834-0.677-1.51-1.511-1.511h-0zM11.699 6.366c0-0.378 0.306-0.684 0.684-0.684v0h12.647c0.378 0 0.684 0.306 0.684 0.684v0 0.137h-14.015zM25.715 13.514c0 0.378-0.306 0.684-0.684 0.684v0h-12.644c-0.378 0-0.684-0.306-0.684-0.684v0-3.985h14.012zM11.697 8.704v-1.374h14.018v1.374z"></path>
<path d="M16.785 11.452h-3.848c-0.228 0-0.412 0.185-0.412 0.412s0.185 0.412 0.412 0.412v0h3.848c0.228 0 0.412-0.185 0.412-0.412s-0.185-0.412-0.412-0.412v0z"></path>
<path d="M24.479 11.452h-1.099c-0.228 0-0.412 0.185-0.412 0.412s0.185 0.412 0.412 0.412v0h1.099c0.228 0 0.412-0.185 0.412-0.412s-0.185-0.412-0.412-0.412v0z"></path>
</svg>
