<!-- Generated by IcoMoon.io -->
<svg version="1.1" xmlns="http://www.w3.org/2000/svg" width="32" height="32" viewBox="0 0 32 32">
<title>financial-facility-request</title>
<path d="M25.202 8.878l-5.196-5.196c-0.094-0.094-0.224-0.152-0.367-0.152h-10.913c-1.147 0.001-2.077 0.931-2.078 2.078v20.783c0.001 1.147 0.931 2.077 2.078 2.078h14.55c1.146-0.002 2.075-0.932 2.077-2.078v-17.147c0-0 0-0.001 0-0.001 0-0.143-0.057-0.272-0.15-0.366l0 0zM20.158 5.301l3.423 3.425h-2.382c-0.573-0.002-1.037-0.466-1.039-1.039v-0zM24.315 26.39c-0.002 0.573-0.466 1.037-1.039 1.039h-14.55c-0.573-0.002-1.037-0.466-1.039-1.039v-20.784c0.001-0.574 0.466-1.039 1.039-1.040h10.393v3.12c0.001 1.147 0.931 2.077 2.078 2.078h3.118z"></path>
<path d="M21.717 18.078h-11.43c-0.012-0.001-0.025-0.002-0.039-0.002-0.288 0-0.521 0.233-0.521 0.521s0.233 0.521 0.521 0.521c0.014 0 0.028-0.001 0.041-0.002l-0.002 0h11.43c0.012 0.001 0.025 0.002 0.039 0.002 0.288 0 0.521-0.233 0.521-0.521s-0.233-0.521-0.521-0.521c-0.014 0-0.028 0.001-0.041 0.002l0.002-0z"></path>
<path d="M21.717 14.961h-11.43c-0.27 0.021-0.482 0.246-0.482 0.52s0.211 0.498 0.48 0.519l0.002 0h11.43c0.012 0.001 0.025 0.002 0.039 0.002 0.288 0 0.521-0.233 0.521-0.521s-0.233-0.521-0.521-0.521c-0.014 0-0.028 0.001-0.041 0.002l0.002-0z"></path>
<path d="M21.717 21.196h-11.43c-0.012-0.001-0.025-0.002-0.039-0.002-0.288 0-0.521 0.233-0.521 0.521s0.233 0.521 0.521 0.521c0.014 0 0.028-0.001 0.041-0.002l-0.002 0h11.43c0.012 0.001 0.025 0.002 0.039 0.002 0.288 0 0.521-0.233 0.521-0.521s-0.233-0.521-0.521-0.521c-0.014 0-0.028 0.001-0.041 0.002l0.002-0z"></path>
<path d="M16.52 24.314h-6.234c-0.012-0.001-0.025-0.002-0.039-0.002-0.288 0-0.521 0.233-0.521 0.521s0.233 0.521 0.521 0.521c0.014 0 0.028-0.001 0.041-0.002l-0.002 0h6.236c0.012 0.001 0.025 0.002 0.039 0.002 0.288 0 0.521-0.233 0.521-0.521s-0.233-0.521-0.521-0.521c-0.014 0-0.028 0.001-0.041 0.002l0.002-0z"></path>
<path d="M14.961 12.363c0 0.288 0.233 0.521 0.521 0.521v0h6.234c0.012 0.001 0.025 0.002 0.039 0.002 0.288 0 0.521-0.233 0.521-0.521s-0.233-0.521-0.521-0.521c-0.014 0-0.028 0.001-0.041 0.002l0.002-0h-6.236c-0.286 0.001-0.518 0.232-0.52 0.518v0z"></path>
<path d="M11.325 11.843h-1.038c-0.012-0.001-0.025-0.002-0.039-0.002-0.288 0-0.521 0.233-0.521 0.521s0.233 0.521 0.521 0.521c0.014 0 0.028-0.001 0.041-0.002l-0.002 0h0.521c0.021 0.27 0.246 0.482 0.52 0.482s0.498-0.211 0.519-0.48l0-0.002v-0.098c0.609-0.22 1.036-0.793 1.036-1.466 0-0.859-0.696-1.556-1.556-1.556-0.001 0-0.001 0-0.002 0h0c-0.27-0.021-0.482-0.246-0.482-0.52s0.211-0.498 0.48-0.519l0.002-0h1.042c0.012 0.001 0.025 0.002 0.039 0.002 0.288 0 0.521-0.233 0.521-0.521s-0.233-0.521-0.521-0.521c-0.014 0-0.028 0.001-0.041 0.002l0.002-0h-0.521c0.001-0.012 0.002-0.025 0.002-0.039 0-0.288-0.233-0.521-0.521-0.521s-0.521 0.233-0.521 0.521c0 0.014 0.001 0.028 0.002 0.041l-0-0.002v0.098c-0.609 0.22-1.036 0.793-1.036 1.466 0 0.859 0.696 1.556 1.556 1.556 0.001 0 0.001 0 0.002 0h-0c0.27 0.021 0.482 0.246 0.482 0.52s-0.211 0.498-0.48 0.519l-0.002 0z"></path>
</svg>
