<!-- Generated by IcoMoon.io -->
<svg version="1.1" xmlns="http://www.w3.org/2000/svg" width="32" height="32" viewBox="0 0 32 32">
<title>card-summary</title>
<path d="M17.991 12.814c-0.003 0-0.006 0-0.010 0-0.942 0-1.815 0.298-2.529 0.806l0.013-0.009h-4.643c-0.202 0.023-0.357 0.192-0.357 0.398s0.156 0.376 0.356 0.398l0.002 0h3.782c-0.371 0.447-0.657 0.98-0.824 1.562l-0.008 0.031h-2.95c-0.202 0.023-0.357 0.192-0.357 0.398s0.156 0.376 0.356 0.398l0.002 0h2.804c-0.011 0.134-0.018 0.267-0.018 0.401 0 0.001 0 0.002 0 0.003 0 0.424 0.060 0.834 0.171 1.223l-0.008-0.031h-2.95c-0.013-0.002-0.028-0.002-0.043-0.002-0.221 0-0.401 0.179-0.401 0.401s0.179 0.401 0.401 0.401c0.015 0 0.030-0.001 0.045-0.003l-0.002 0h3.261c0.741 1.432 2.211 2.394 3.905 2.394 2.42 0 4.382-1.962 4.382-4.382s-1.962-4.382-4.381-4.382h-0zM17.991 20.778c-0.005 0-0.010 0-0.015 0-1.966 0-3.56-1.589-3.569-3.552v-0.001q0-0.015 0-0.030c0-0 0-0 0-0.001 0-0.236 0.022-0.466 0.065-0.69l-0.004 0.023c0.007-0.023 0.012-0.050 0.015-0.078l0-0.002c0.184-0.857 0.656-1.582 1.308-2.086l0.008-0.006c0.033-0.019 0.062-0.041 0.087-0.067l0-0c0.583-0.427 1.315-0.684 2.106-0.684 1.98 0 3.586 1.605 3.586 3.586s-1.605 3.585-3.584 3.586h-0z"></path>
<path d="M20.182 15.243c-0.062-0.043-0.139-0.069-0.222-0.069-0.133 0-0.251 0.066-0.322 0.168l-0.001 0.001-0.013 0.019-2.11 3.185-1.235-1.235c-0.071-0.071-0.17-0.115-0.279-0.115-0.218 0-0.394 0.177-0.394 0.394 0 0.109 0.044 0.207 0.115 0.279l1.592 1.592c0.067 0.074 0.162 0.12 0.269 0.12 0.004 0 0.007-0 0.011-0h-0c0.008 0.001 0.016 0.001 0.025 0.001 0.133 0 0.247-0.082 0.293-0.199l0.001-0.002 2.389-3.583c0.043-0.062 0.069-0.139 0.069-0.222 0-0.133-0.066-0.251-0.168-0.322l-0.001-0.001z"></path>
<path d="M25.558 4.053h-15.53c-0.006-0-0.013-0-0.021-0-1.082 0-1.96 0.871-1.972 1.95v0.001q0 0.021 0 0.042v16.325h-2.785c-0.006-0-0.014-0-0.022-0-0.64 0-1.161 0.513-1.173 1.151v0.001q0 0.021 0 0.043v1.992c0.004 1.318 1.071 2.385 2.388 2.389h15.131c0.617-0.006 1.176-0.247 1.594-0.638l-0.001 0.001c0.489-0.419 0.797-1.037 0.797-1.727 0-0.009-0-0.018-0-0.026v0.001-15.93h2.785c0.006 0 0.014 0 0.022 0 0.64 0 1.161-0.513 1.173-1.151v-0.001q0-0.021 0-0.043v-1.992c-0.005-1.316-1.070-2.383-2.386-2.388h-0zM6.444 27.15c-0.879-0.002-1.591-0.714-1.594-1.593v-1.992c0-0.221 0.179-0.401 0.401-0.401v0h13.935v2.389c-0 0.010-0 0.022-0 0.034 0 0.6 0.227 1.147 0.6 1.56l-0.002-0.002h-13.34zM23.169 6.443v19.113c-0.003 0.47-0.201 0.893-0.517 1.192l-0.001 0.001c-0.279 0.226-0.631 0.372-1.015 0.4l-0.006 0c-0.017-0.002-0.036-0.003-0.055-0.003h-0c-0 0-0 0-0.001 0-0.274 0-0.532-0.070-0.756-0.192l0.008 0.004c-0.509-0.3-0.845-0.846-0.845-1.47 0-0.005 0-0.010 0-0.015v0.001-2.705c0-0.008 0.001-0.017 0.001-0.026 0-0.208-0.168-0.376-0.376-0.376-0.009 0-0.018 0-0.027 0.001l0.001-0h-10.749v-16.323c-0-0.007-0-0.015-0-0.023 0-0.64 0.513-1.161 1.15-1.173h13.784c-0.072 0.087-0.141 0.184-0.205 0.285l-0.007 0.012c-0.221 0.335-0.361 0.741-0.382 1.178l-0 0.006q-0.003 0.055-0.003 0.112zM27.15 8.435c0 0.221-0.179 0.401-0.401 0.401h-2.784v-2.393c0.018-0.866 0.724-1.56 1.593-1.56s1.574 0.695 1.593 1.559l0 0.002z"></path>
<path d="M13.611 7.239h4.778c0.013 0.002 0.028 0.002 0.043 0.002 0.221 0 0.401-0.179 0.401-0.401s-0.179-0.401-0.401-0.401c-0.015 0-0.030 0.001-0.045 0.003l0.002-0h-4.778c-0.013-0.002-0.028-0.002-0.043-0.002-0.221 0-0.401 0.179-0.401 0.401s0.179 0.401 0.401 0.401c0.015 0 0.030-0.001 0.045-0.003l-0.002 0z"></path>
<path d="M10.824 9.628h10.349c0.013 0.002 0.028 0.002 0.043 0.002 0.221 0 0.401-0.179 0.401-0.401s-0.179-0.401-0.401-0.401c-0.015 0-0.030 0.001-0.045 0.003l0.002-0h-10.349c-0.013-0.002-0.028-0.002-0.043-0.002-0.221 0-0.401 0.179-0.401 0.401s0.179 0.401 0.401 0.401c0.015 0 0.030-0.001 0.045-0.003l-0.002 0z"></path>
<path d="M10.824 12.017h10.349c0.202-0.023 0.357-0.192 0.357-0.398s-0.156-0.376-0.356-0.398l-0.002-0h-10.349c-0.013-0.002-0.028-0.002-0.043-0.002-0.221 0-0.401 0.179-0.401 0.401s0.179 0.401 0.401 0.401c0.015 0 0.030-0.001 0.045-0.003l-0.002 0z"></path>
</svg>
