<!-- Generated by IcoMoon.io -->
<svg version="1.1" xmlns="http://www.w3.org/2000/svg" width="32" height="32" viewBox="0 0 32 32">
<title>lock-closed</title>
<path d="M22.725 14.48v-6.431c0-3.335-2.534-6.049-5.642-6.049h-2.166c-3.111 0-5.642 2.713-5.642 6.049v6.431c-1.91 1.866-3.095 4.468-3.095 7.347 0 0.012 0 0.023 0 0.035v-0.002c-0.003 0.094-0.005 0.205-0.005 0.316 0 5.426 4.399 9.825 9.825 9.825s9.825-4.399 9.825-9.825c0-0.111-0.002-0.221-0.005-0.332l0 0.016c0-0.010 0-0.022 0-0.034 0-2.878-1.184-5.48-3.092-7.344l-0.002-0.002zM11.149 13.044v-4.995c0-2.302 1.69-4.174 3.768-4.174h2.165c2.077 0 3.767 1.873 3.767 4.174v4.995q-0.384-0.225-0.786-0.412l-0.029-0.014-0.113-0.051q-0.084-0.038-0.169-0.074l-0.079-0.034q-0.127-0.053-0.253-0.101h-0.006c-0.807-0.32-1.742-0.538-2.718-0.608l-0.030-0.002-0.067-0.004q-0.115-0.008-0.231-0.011h-0.076c-0.098 0-0.196-0.005-0.295-0.005s-0.197 0-0.295 0.005h-0.076q-0.116 0.004-0.231 0.011l-0.067 0.004c-1.006 0.072-1.941 0.289-2.813 0.632l0.064-0.022h-0.006q-0.127 0.049-0.253 0.101l-0.079 0.034q-0.085 0.036-0.169 0.074l-0.113 0.051-0.028 0.014q-0.398 0.188-0.784 0.412zM16 30.128c-4.409-0.097-7.946-3.694-7.946-8.117 0-0.053 0.001-0.105 0.002-0.158l-0 0.008c-0-0.016-0-0.035-0-0.054 0-3.023 1.611-5.671 4.021-7.13l0.037-0.021c0.037-0.022 0.075-0.044 0.113-0.063l0.127-0.069c0.073-0.039 0.148-0.079 0.222-0.115l0.072-0.035c0.767-0.382 1.661-0.645 2.604-0.737l0.032-0.003h0.024q0.163-0.015 0.327-0.023h0.038c0.11-0.005 0.219-0.008 0.329-0.008s0.22 0 0.329 0.008h0.038q0.164 0.008 0.327 0.023h0.024c0.975 0.095 1.869 0.358 2.681 0.76l-0.045-0.020 0.072 0.035c0.075 0.037 0.148 0.076 0.222 0.115 0.042 0.023 0.084 0.046 0.127 0.069s0.075 0.044 0.113 0.063c2.446 1.481 4.057 4.127 4.057 7.15 0 0.020-0 0.039-0 0.059l0-0.003c0.001 0.045 0.001 0.097 0.001 0.15 0 4.424-3.538 8.021-7.939 8.117l-0.009 0z"></path>
<path d="M18.766 20.334c-0.001-1.527-1.239-2.764-2.766-2.764s-2.766 1.238-2.766 2.766c0 0.796 0.336 1.513 0.874 2.018l0.002 0.001-0.663 2.977c-0.014 0.061-0.022 0.131-0.022 0.203 0 0 0 0.001 0 0.001v-0c0 0.813 0.796 1.425 1.851 1.425h1.45c1.055 0 1.85-0.613 1.85-1.425-0-0.072-0.008-0.143-0.024-0.21l0.001 0.006-0.663-2.977c0.54-0.505 0.876-1.221 0.876-2.016 0-0.002 0-0.003 0-0.005v0zM15.422 25.086l0.577-2.59 0.578 2.59zM16.409 21.128c-0.178 0.094-0.319 0.237-0.406 0.412l-0.002 0.005c-0.090-0.18-0.231-0.324-0.403-0.415l-0.005-0.002c-0.289-0.151-0.482-0.449-0.482-0.792 0-0.492 0.399-0.891 0.891-0.891s0.891 0.399 0.891 0.891c0 0.343-0.194 0.641-0.478 0.79l-0.005 0.002z"></path>
</svg>
