<!-- Generated by IcoMoon.io -->
<svg version="1.1" xmlns="http://www.w3.org/2000/svg" width="32" height="32" viewBox="0 0 32 32">
<title>maghrib</title>
<path d="M16 9.33c0.633-0.001 1.146-0.514 1.148-1.147v-1.155c0-0.634-0.514-1.147-1.148-1.147s-1.148 0.514-1.148 1.147v0 1.148c0 0.002 0 0.003 0 0.005 0 0.632 0.509 1.144 1.139 1.15h0.001zM8.795 10.419c0.207 0.326 0.566 0.54 0.975 0.54 0.635 0 1.15-0.515 1.15-1.15 0-0.196-0.049-0.381-0.136-0.543l0.003 0.006-0.573-0.996c-0.207-0.326-0.566-0.54-0.975-0.54-0.635 0-1.15 0.515-1.15 1.15 0 0.196 0.049 0.381 0.136 0.543l-0.003-0.006zM26.758 15.54c0.211-0 0.409-0.058 0.579-0.157l-0.005 0.003 0.996-0.573c0.367-0.197 0.613-0.578 0.613-1.017 0-0.635-0.515-1.15-1.15-1.15-0.226 0-0.437 0.065-0.615 0.178l0.005-0.003-0.996 0.573c-0.35 0.201-0.582 0.573-0.582 0.999 0 0.634 0.514 1.148 1.148 1.148 0.003 0 0.006 0 0.009-0h-0zM21.886 10.989c0.171 0.106 0.378 0.169 0.6 0.169 0.411 0 0.772-0.216 0.975-0.54l0.003-0.005 0.003-0.005 0.6-0.98c0.114-0.176 0.182-0.391 0.182-0.621 0-0.635-0.515-1.15-1.15-1.15-0.422 0-0.791 0.227-0.991 0.566l-0.003 0.005-0.6 0.98c-0.106 0.171-0.169 0.378-0.169 0.6 0 0.411 0.216 0.772 0.54 0.975l0.005 0.003zM29.571 19.22h-4.7c-0.694-4.325-4.398-7.59-8.866-7.59s-8.172 3.265-8.859 7.538l-0.007 0.051h-4.71c-0.635 0-1.15 0.515-1.15 1.15s0.515 1.15 1.15 1.15v0h15.642c0.635 0 1.15-0.515 1.15-1.15s-0.515-1.15-1.15-1.15v0h-8.6c0.662-3.044 3.333-5.29 6.529-5.29 3.615 0 6.559 2.875 6.671 6.463l0 0.010c0.019 0.62 0.525 1.115 1.147 1.116h5.75c0.635 0 1.15-0.515 1.15-1.15s-0.515-1.15-1.15-1.15v0zM25.028 23.82h-17.942c-0.635 0-1.15 0.515-1.15 1.15s0.515 1.15 1.15 1.15v0h17.939c0.635 0 1.15-0.515 1.15-1.15s-0.515-1.15-1.15-1.15v0zM3.821 14.509l0.981 0.6c0.171 0.106 0.377 0.168 0.599 0.168 0.635 0 1.15-0.515 1.15-1.15 0-0.414-0.218-0.776-0.546-0.979l-0.005-0.003-0.981-0.6c-0.171-0.106-0.378-0.169-0.6-0.169-0.635 0-1.15 0.515-1.15 1.15 0 0.413 0.218 0.776 0.545 0.979l0.005 0.003z"></path>
</svg>
