<!-- Generated by IcoMoon.io -->
<svg version="1.1" xmlns="http://www.w3.org/2000/svg" width="32" height="32" viewBox="0 0 32 32">
<title>new-card-request</title>
<path d="M16.845 20.029h6.788c0.007 0 0.016 0.001 0.024 0.001 0.221 0 0.401-0.179 0.401-0.401 0-0.009-0-0.017-0.001-0.025l0 0.001v-3.819c0-0.007 0.001-0.016 0.001-0.024 0-0.221-0.179-0.401-0.401-0.401-0.009 0-0.017 0-0.025 0.001l0.001-0h-6.788c-0.007-0-0.016-0.001-0.024-0.001-0.221 0-0.401 0.179-0.401 0.401 0 0.009 0 0.017 0.001 0.025l-0-0.001v3.818c-0 0.007-0.001 0.016-0.001 0.024 0 0.221 0.179 0.401 0.401 0.401 0.009 0 0.017-0 0.025-0.001l-0.001 0zM17.269 16.21h5.939v2.972h-5.939z"></path>
<path d="M5.389 14.514h3.394c0.234 0 0.424-0.19 0.424-0.424s-0.19-0.424-0.424-0.424v0h-3.394c-0.234 0-0.424 0.19-0.424 0.424s0.19 0.424 0.424 0.424v0z"></path>
<path d="M10.48 14.514h3.394c0.234 0 0.424-0.19 0.424-0.424s-0.19-0.424-0.424-0.424v0h-3.394c-0.234 0-0.424 0.19-0.424 0.424s0.19 0.424 0.424 0.424v0z"></path>
<path d="M5.389 16.21h5.515c0.234 0 0.424-0.19 0.424-0.424s-0.19-0.424-0.424-0.424v0h-5.515c-0.234 0-0.424 0.19-0.424 0.424s0.19 0.424 0.424 0.424v0z"></path>
<path d="M13.875 15.363h-1.273c-0.234 0-0.424 0.19-0.424 0.424s0.19 0.424 0.424 0.424v0h1.275c0.234 0 0.424-0.19 0.424-0.424s-0.19-0.424-0.424-0.424v0z"></path>
<path d="M28.342 10.103c-0.267-0.358-0.675-0.598-1.14-0.636l-0.006-0-1.017-0.124v-2.040c-0.003-0.936-0.761-1.694-1.697-1.697h-19.518c-0.936 0.003-1.694 0.761-1.697 1.696v13.577c0.003 0.765 0.509 1.41 1.205 1.623l0.012 0.003c-0 0.011-0 0.025-0 0.039 0 0.859 0.655 1.564 1.493 1.644l0.007 0.001 19.77 2.207c0.005 0 0.012 0 0.018 0 0.848 0 1.551-0.621 1.678-1.433l0.001-0.010 1.273-13.621c0.005-0.049 0.008-0.105 0.008-0.162 0-0.407-0.148-0.78-0.393-1.068l0.002 0.002zM4.117 8.575h21.213v2.546h-21.213zM4.965 6.454h19.517c0.468 0.002 0.846 0.38 0.848 0.848v0.424h-21.214v-0.424c0.001-0.468 0.38-0.847 0.848-0.849h0zM4.117 20.88v-8.911h21.213v8.91c-0.002 0.468-0.38 0.846-0.848 0.848h-19.517c-0.468-0.002-0.846-0.38-0.848-0.848v-0zM27.875 11.163l-1.273 13.621c-0.046 0.433-0.41 0.767-0.851 0.767-0.029 0-0.057-0.001-0.085-0.004l0.004 0-19.558-2.208c-0.403-0.044-0.72-0.361-0.763-0.76l-0-0.004h19.135c0.936-0.003 1.695-0.761 1.698-1.697v-10.734l0.976 0.085c0.227 0.011 0.424 0.125 0.55 0.295l0.001 0.002c0.11 0.143 0.176 0.324 0.176 0.52 0 0.041-0.003 0.081-0.008 0.12l0.001-0.005z"></path>
</svg>
