<!-- Generated by IcoMoon.io -->
<svg version="1.1" xmlns="http://www.w3.org/2000/svg" width="32" height="32" viewBox="0 0 32 32">
<title>plus-add</title>
<path d="M17.203 17.157h10.7c0.014 0.001 0.031 0.001 0.049 0.001 0.665 0 1.204-0.539 1.204-1.204 0-0.648-0.512-1.177-1.153-1.203l-0.002-0q-0.047 0-0.094 0h-10.7v-10.7c-0.027-0.643-0.555-1.154-1.202-1.154s-1.175 0.511-1.202 1.152l-0 0.002v10.7h-10.706c-0.017-0.001-0.037-0.001-0.057-0.001-0.664 0-1.203 0.539-1.203 1.203 0 0.65 0.516 1.18 1.162 1.202l0.002 0q0.047 0 0.094 0h10.7v10.7c-0.001 0.014-0.001 0.031-0.001 0.048 0 0.665 0.539 1.204 1.204 1.204 0.648 0 1.177-0.512 1.203-1.154l0-0.002q0-0.047 0-0.094z"></path>
</svg>
