<!-- Generated by IcoMoon.io -->
<svg version="1.1" xmlns="http://www.w3.org/2000/svg" width="32" height="32" viewBox="0 0 32 32">
<title>portfolio-position-report</title>
<path d="M21.582 4.146h-14.184c-0.799 0.001-1.447 0.648-1.448 1.447v4.921c0.010 0.259 0.222 0.465 0.482 0.465s0.473-0.206 0.482-0.464l0-0.001v-4.921c0-0.267 0.216-0.483 0.483-0.483v0h14.184c0.267 0 0.483 0.216 0.483 0.483v0 17.947c0 0.267-0.216 0.483-0.483 0.483v0h-14.184c-0.267 0-0.483-0.216-0.483-0.483v0-8.957c0-0.005 0-0.012 0-0.018 0-0.267-0.216-0.483-0.483-0.483s-0.483 0.216-0.483 0.483c0 0.006 0 0.013 0 0.019l-0-0.001v8.957c0.001 0.799 0.648 1.447 1.447 1.448h14.184c0.799-0.001 1.447-0.648 1.448-1.448v-17.947c-0.001-0.799-0.648-1.447-1.448-1.448h-0z"></path>
<path d="M6.774 12.334c-0.087-0.087-0.208-0.141-0.341-0.141-0.267 0-0.483 0.216-0.483 0.483s0.216 0.483 0.483 0.483c0.267 0 0.483-0.216 0.483-0.483v0c0-0 0-0 0-0 0-0.133-0.054-0.254-0.141-0.341v0z"></path>
<path d="M8.707 26.099c-0.087-0.087-0.208-0.141-0.341-0.141-0.266 0-0.482 0.216-0.482 0.482s0.216 0.482 0.482 0.482c0.266 0 0.482-0.216 0.482-0.482v-0c0-0 0-0 0-0 0-0.133-0.054-0.254-0.141-0.341v0z"></path>
<path d="M24.481 6.079c-0.267 0-0.483 0.216-0.483 0.483v0 18.913c0 0.267-0.216 0.483-0.483 0.483v0h-13.219c-0.259 0.010-0.465 0.222-0.465 0.482s0.206 0.473 0.464 0.482l0.001 0h13.22c0.799-0.001 1.447-0.648 1.448-1.448v-18.913c0-0.267-0.216-0.483-0.483-0.483v0z"></path>
<path d="M26.414 8.009c-0.267 0-0.483 0.216-0.483 0.483v0 18.909c0 0.267-0.216 0.483-0.483 0.483v0h-15.149c-0.259 0.010-0.465 0.222-0.465 0.482s0.206 0.473 0.464 0.482l0.001 0h15.15c0.799-0.001 1.447-0.648 1.448-1.448v-18.913c0-0.267-0.216-0.483-0.483-0.483v0z"></path>
<path d="M13.767 7.717h-4.635c-0.267 0-0.483 0.216-0.483 0.483v0 0 4.631c0 0.267 0.216 0.483 0.483 0.483v0h4.632c0.267 0 0.483-0.216 0.483-0.483v0 0-4.631c0 0 0 0 0 0 0-0.265-0.214-0.481-0.479-0.483h-0zM13.284 12.349h-3.667v-3.667h3.667z"></path>
<path d="M12.214 15.503c-0.087-0.087-0.208-0.141-0.341-0.141s-0.254 0.054-0.341 0.141v0l-1.283 1.283-0.594-0.594c-0.086-0.080-0.201-0.128-0.328-0.128-0.267 0-0.483 0.216-0.483 0.483 0 0.127 0.049 0.242 0.129 0.328l-0-0 0.936 0.936c0.087 0.087 0.208 0.141 0.341 0.141s0.254-0.054 0.341-0.141v0l1.624-1.624c0.087-0.087 0.141-0.208 0.141-0.341s-0.054-0.254-0.141-0.341v0z"></path>
<path d="M20.12 16.16h-5.629c-0.259 0.010-0.465 0.222-0.465 0.482s0.206 0.473 0.464 0.482l0.001 0h5.629c0.259-0.010 0.465-0.222 0.465-0.482s-0.206-0.473-0.464-0.482l-0.001-0z"></path>
<path d="M19.846 7.717h-3.379c-0.005-0-0.012-0-0.018-0-0.267 0-0.483 0.216-0.483 0.483s0.216 0.483 0.483 0.483c0.006 0 0.013-0 0.019-0l-0.001 0h3.38c0.259-0.010 0.465-0.222 0.465-0.482s-0.206-0.473-0.464-0.482l-0.001-0z"></path>
<path d="M19.846 10.033h-3.379c-0.005-0-0.012-0-0.018-0-0.267 0-0.483 0.216-0.483 0.483s0.216 0.483 0.483 0.483c0.006 0 0.013-0 0.019-0l-0.001 0h3.38c0.259-0.010 0.465-0.222 0.465-0.482s-0.206-0.473-0.464-0.482l-0.001-0z"></path>
<path d="M19.846 12.349h-3.379c-0.005-0-0.012-0-0.018-0-0.267 0-0.483 0.216-0.483 0.483s0.216 0.483 0.483 0.483c0.006 0 0.013-0 0.019-0l-0.001 0h3.38c0.259-0.010 0.465-0.222 0.465-0.482s-0.206-0.473-0.464-0.482l-0.001-0z"></path>
<path d="M12.214 19.188c-0.087-0.087-0.208-0.141-0.341-0.141s-0.254 0.054-0.341 0.141v0l-1.283 1.283-0.594-0.594c-0.089-0.099-0.217-0.161-0.36-0.161-0.267 0-0.483 0.216-0.483 0.483 0 0.134 0.055 0.256 0.144 0.344l0.952 0.952c0.087 0.087 0.208 0.141 0.341 0.141s0.254-0.054 0.341-0.141v0l1.624-1.624c0.087-0.087 0.141-0.208 0.141-0.341s-0.054-0.254-0.141-0.341v0z"></path>
<path d="M20.12 19.827h-5.629c-0.006-0-0.013-0-0.019-0-0.267 0-0.483 0.216-0.483 0.483s0.216 0.483 0.483 0.483c0.006 0 0.011-0 0.017-0l-0.001 0h5.632c0.006 0 0.013 0 0.019 0 0.267 0 0.483-0.216 0.483-0.483s-0.216-0.483-0.483-0.483c-0.006 0-0.011 0-0.017 0l0.001-0z"></path>
</svg>
