<!-- Generated by IcoMoon.io -->
<svg version="1.1" xmlns="http://www.w3.org/2000/svg" width="32" height="32" viewBox="0 0 32 32">
<title>statement</title>
<path d="M9.364 20.092h9.636c0.304 0 0.551-0.247 0.551-0.551s-0.247-0.551-0.551-0.551v0h-9.636c-0.304 0-0.551 0.247-0.551 0.551s0.247 0.551 0.551 0.551v0z"></path>
<path d="M28.631 16.054h-19.268c-0.304 0-0.551 0.247-0.551 0.551s0.247 0.551 0.551 0.551v0h19.271c0.304 0 0.551-0.247 0.551-0.551s-0.247-0.551-0.551-0.551v0z"></path>
<path d="M9.364 11.282h9.636c0.304 0 0.551-0.247 0.551-0.551s-0.247-0.551-0.551-0.551h-9.636c-0.304 0-0.551 0.247-0.551 0.551s0.247 0.551 0.551 0.551v0z"></path>
<path d="M9.364 8.346h19.271c0.304 0 0.551-0.247 0.551-0.551s-0.247-0.551-0.551-0.551h-19.271c-0.304 0-0.551 0.247-0.551 0.551s0.247 0.551 0.551 0.551v0z"></path>
<path d="M30.831 4.308h-30.277c-0.304 0-0.55 0.246-0.55 0.55v0 8.81c0 0.304 0.246 0.55 0.55 0.55h30.277c0.304 0 0.55-0.246 0.55-0.55v0-8.81c0-0.304-0.246-0.55-0.55-0.55v0zM30.281 13.118h-29.179v-7.708h29.182z"></path>
<path d="M7.157 15.321h-4.401c-0.304 0-0.55 0.246-0.55 0.55v0 4.405c0 0.304 0.246 0.55 0.55 0.55v0h4.405c0.304 0 0.55-0.246 0.55-0.55v0-4.405c0 0 0 0 0 0 0-0.304-0.246-0.55-0.55-0.55-0.001 0-0.003 0-0.004 0h0zM6.607 19.726h-3.303v-3.303h3.303z"></path>
<path d="M18.996 25.599h-9.632c-0.304 0-0.551 0.247-0.551 0.551s0.247 0.551 0.551 0.551v0h9.636c0.304 0 0.551-0.247 0.551-0.551s-0.247-0.551-0.551-0.551v0z"></path>
<path d="M28.631 22.662h-19.268c-0.304 0-0.551 0.247-0.551 0.551s0.247 0.551 0.551 0.551v0h19.271c0.304 0 0.551-0.247 0.551-0.551s-0.247-0.551-0.551-0.551v0z"></path>
<path d="M7.157 21.927h-4.401c-0.304 0-0.55 0.246-0.55 0.55v0 4.405c0 0.304 0.246 0.55 0.55 0.55v0h4.405c0.304 0 0.55-0.246 0.55-0.55v0-4.405c0 0 0 0 0 0 0-0.304-0.246-0.55-0.55-0.55-0.001 0-0.003 0-0.004 0h0zM6.607 26.332h-3.303v-3.303h3.303z"></path>
<path d="M2.756 12.017h4.405c0.304 0 0.55-0.246 0.55-0.55v0-4.405c0-0.304-0.246-0.55-0.55-0.55v0h-4.405c-0.304 0-0.55 0.246-0.55 0.55v0 4.405c0 0.304 0.246 0.55 0.55 0.55v0zM3.306 7.612h3.303v3.303h-3.306z"></path>
</svg>
