<!-- Generated by IcoMoon.io -->
<svg version="1.1" xmlns="http://www.w3.org/2000/svg" width="32" height="32" viewBox="0 0 32 32">
<title>card1</title>
<path d="M0.776 28.095c-0.479-0.466-0.776-1.116-0.776-1.836 0-0.014 0-0.027 0-0.041l-0 0.002v-20.172c-0-0.012-0-0.025-0-0.039 0-0.722 0.3-1.374 0.781-1.839l0.001-0.001c0.465-0.479 1.116-0.776 1.835-0.776 0.013 0 0.027 0 0.040 0l-0.002-0h26.542c0.012-0 0.025-0 0.039-0 0.72 0 1.37 0.297 1.835 0.775l0.001 0.001c0.479 0.465 0.776 1.115 0.776 1.834 0 0.015-0 0.029-0 0.044l0-0.002v20.17c-0.004 1.464-1.191 2.65-2.655 2.654h-26.574c-0.003 0-0.006 0-0.009 0-0.719 0-1.368-0.296-1.833-0.773l-0.001-0.001zM2.121 26.224c0.004 0.291 0.239 0.526 0.53 0.53h26.542c0.292-0.003 0.527-0.239 0.53-0.53v-0h0.005v-10.085h-27.603zM2.121 6.048v3.719h27.602v-3.719c-0.004-0.291-0.239-0.527-0.53-0.53h-26.539c-0.291 0.004-0.527 0.239-0.53 0.53v0zM11.585 23.658v-2.123h6.37v2.126zM5.215 23.658v-2.123h4.249v2.126z"></path>
</svg>
