<svg xmlns="http://www.w3.org/2000/svg" width="8.527" height="17.812" viewBox="0 0 8.527 17.812">
  <path id="CDM" d="M188.263,104.016a2.231,2.231,0,1,1,2.369-2.227.949.949,0,0,0,1.895,0,4.077,4.077,0,0,0-3.316-3.907v-.992a.949.949,0,0,0-1.895,0v.992A4.077,4.077,0,0,0,184,101.789a4.146,4.146,0,0,0,4.263,4.008,2.231,2.231,0,1,1-2.368,2.227.949.949,0,0,0-1.895,0,4.077,4.077,0,0,0,3.316,3.907v.992a.949.949,0,0,0,1.895,0v-.992a4.077,4.077,0,0,0,3.316-3.907A4.146,4.146,0,0,0,188.263,104.016Z" transform="translate(-184 -96)" fill="#fff"/>
</svg>
