<!-- Generated by IcoMoon.io -->
<svg version="1.1" xmlns="http://www.w3.org/2000/svg" width="32" height="32" viewBox="0 0 32 32">
<title>checkbook</title>
<path d="M29.905 10.435h-13.905v-1.85c0-2.049-1.661-3.71-3.71-3.71v0h-10.195c-0.002 0-0.003 0-0.005 0-0.511 0-0.925 0.414-0.925 0.925 0 0 0 0 0 0v0 14.835c0 0.511 0.414 0.925 0.925 0.925v0h4.635v4.635c0 0.002 0 0.003 0 0.005 0 0.511 0.414 0.925 0.925 0.925 0 0 0 0 0 0h22.255c0.511 0 0.925-0.414 0.925-0.925v-14.835c0-0.511-0.414-0.925-0.925-0.925v0zM12.29 25.27h-3.705v-3.71h3.71c1.024 0 1.855 0.831 1.855 1.855s-0.831 1.855-1.855 1.855v0 0zM14.145 20.225c-0.529-0.314-1.167-0.5-1.848-0.5-0.002 0-0.005 0-0.007 0h-9.29v-13h9.29c1.024 0 1.855 0.83 1.855 1.855v0zM29 25.27h-13.5c0.314-0.529 0.5-1.167 0.5-1.848 0-0.002 0-0.005 0-0.007v0-3.71h2.78c0.512 0 0.927-0.415 0.927-0.927s-0.415-0.927-0.927-0.927v0h-2.78v-1.85h6.5c0.512 0 0.927-0.415 0.927-0.928s-0.415-0.928-0.927-0.928v0h-6.5v-1.855h13z"></path>
<path d="M26.195 21.56h-1.855c-0.512 0-0.927 0.415-0.927 0.927s0.415 0.927 0.927 0.927v0h1.855c0.512 0 0.927-0.415 0.927-0.927s-0.415-0.927-0.927-0.927v0z"></path>
</svg>
