<!-- Generated by IcoMoon.io -->
<svg version="1.1" xmlns="http://www.w3.org/2000/svg" width="32" height="32" viewBox="0 0 32 32">
<path style="fill:white" d="M23.051 8.95c-0.164-0.165-0.392-0.268-0.643-0.268s-0.479 0.102-0.643 0.268l-5.765 5.765-5.765-5.765c-0.165-0.165-0.392-0.266-0.643-0.266-0.502 0-0.91 0.407-0.91 0.91 0 0.251 0.102 0.479 0.266 0.643l5.765 5.765-5.765 5.765c-0.164 0.165-0.266 0.392-0.266 0.644 0 0.502 0.405 0.909 0.905 0.912h0c0.001 0 0.002 0 0.003 0 0.25 0 0.475-0.103 0.637-0.269l5.765-5.765 5.765 5.765c0.164 0.165 0.39 0.267 0.639 0.269h0c0.002 0 0.005 0 0.008 0 0.248 0 0.472-0.103 0.632-0.269l0-0c0.165-0.164 0.268-0.392 0.268-0.643s-0.102-0.479-0.268-0.643l-0-0-5.751-5.765 5.765-5.765c0.165-0.164 0.268-0.392 0.268-0.643s-0.102-0.479-0.268-0.643l-0-0z"></path>
</svg>
