<!-- Generated by IcoMoon.io -->
<svg version="1.1" xmlns="http://www.w3.org/2000/svg" width="32" height="32" viewBox="0 0 32 32">
<title>coin-dollars</title>
<path d="M0.939 32c-0.518 0-0.939-0.42-0.939-0.939v0-13.203c0.006-0.514 0.424-0.928 0.939-0.928 0 0 0 0 0 0h3.819c0.947 0.001 1.785 0.469 2.295 1.187l0.006 0.009c0.377-0.324 0.803-0.611 1.26-0.846l0.037-0.017c-1.641-1.824-2.644-4.251-2.644-6.911 0-5.718 4.636-10.354 10.354-10.354s10.354 4.636 10.354 10.354c0 0.002 0 0.004 0 0.007v-0c0 0.002 0 0.005 0 0.008 0 2.856-1.172 5.439-3.060 7.293l-0.002 0.002c-0.419 0.414-0.873 0.795-1.357 1.136l-0.034 0.022c1.153 0.107 2.097 0.894 2.435 1.951l0.006 0.020 2.759-2.967c0.515-0.545 1.242-0.885 2.049-0.885 1.555 0 2.816 1.261 2.816 2.816 0 0.628-0.206 1.208-0.553 1.676l0.005-0.008-4.506 6.069c-1.215 1.599-3.116 2.623-5.256 2.628h-14.148c-0.056-0-0.11-0.006-0.163-0.015l0.006 0.001c-0.395 1.11-1.435 1.892-2.659 1.894h-0zM1.877 30.123h2.881c0.518 0 0.939-0.42 0.939-0.939v0-9.448c0-0.518-0.42-0.939-0.939-0.939v0h-2.881zM8.228 19.584l-0.657 0.575v8.089h14.146c1.527-0.006 2.882-0.736 3.74-1.866l0.009-0.012 4.506-6.069h-0.008c0.121-0.156 0.194-0.355 0.194-0.571 0-0.518-0.42-0.939-0.939-0.939-0.273 0-0.519 0.117-0.691 0.303l-0.001 0.001-4.121 4.435c-0.516 0.552-1.248 0.896-2.060 0.897h-7.362c-0.518 0-0.939-0.42-0.939-0.939s0.42-0.939 0.939-0.939v0h6.736c0.518 0 0.939-0.42 0.939-0.939s-0.42-0.939-0.939-0.939v0h-5.697c-0.405 0-1.274-0.808-1.596-1.090-0.823-0.725-1.911-1.167-3.101-1.167s-2.278 0.442-3.107 1.171l0.005-0.005zM15.67 18.169l0.442 0.389c0.121 0.107 0.272 0.183 0.438 0.216l0.006 0.001c4.463-0.272 7.979-3.958 7.979-8.465 0-4.683-3.797-8.48-8.48-8.48s-8.48 3.797-8.48 8.48c0 0.014 0 0.027 0 0.041v-0.002c0 0.002 0 0.005 0 0.008 0 2.481 1.073 4.711 2.78 6.251l0.007 0.007c0.293-0.046 0.632-0.073 0.976-0.073 1.663 0 3.181 0.617 4.338 1.636l-0.007-0.006zM15.089 15.977v-1.095c-0.541-0.192-1.003-0.487-1.383-0.865l0 0c-0.155-0.167-0.25-0.391-0.25-0.638 0-0.518 0.42-0.939 0.939-0.939 0.236 0 0.452 0.087 0.617 0.232l-0.001-0.001c0.237 0.291 0.596 0.475 0.997 0.475 0.137 0 0.269-0.021 0.392-0.061l-0.009 0.003c0.341-0.146 0.575-0.478 0.575-0.865 0-0.518-0.42-0.939-0.939-0.939-0.001 0-0.001 0-0.002 0h0c-0.003 0-0.006 0-0.009 0-1.555 0-2.816-1.261-2.816-2.816 0-1.213 0.766-2.246 1.841-2.643l0.020-0.006 0.024-0.008v-1.096c0-0.518 0.42-0.939 0.939-0.939s0.939 0.42 0.939 0.939v0 1.091c0.693 0.255 1.273 0.678 1.711 1.22l0.006 0.007c0.15 0.166 0.243 0.387 0.243 0.63 0 0.518-0.42 0.939-0.939 0.939-0.3 0-0.567-0.14-0.739-0.359l-0.002-0.002c-0.258-0.417-0.712-0.691-1.231-0.691-0.11 0-0.218 0.012-0.321 0.036l0.010-0.002c-0.365 0.134-0.621 0.479-0.621 0.883 0 0.518 0.42 0.939 0.939 0.939 0.001 0 0.002 0 0.004 0h-0c0.001 0 0.002 0 0.003 0 1.555 0 2.816 1.261 2.816 2.816 0 1.16-0.701 2.156-1.703 2.588l-0.018 0.007c-0.053 0.023-0.105 0.042-0.159 0.062v1.1c0 0.518-0.42 0.939-0.939 0.939s-0.939-0.42-0.939-0.939v0z"></path>
</svg>
