<!-- Generated by IcoMoon.io -->
<svg version="1.1" xmlns="http://www.w3.org/2000/svg" width="32" height="32" viewBox="0 0 32 32">
<title>financing</title>
<path d="M25.132 4.421c-2.070 0.012-3.744 1.693-3.744 3.765 0 2.079 1.686 3.765 3.765 3.765s3.765-1.686 3.765-3.765c0-2.072-1.674-3.753-3.743-3.765h-0.001zM25.132 11.161c-1.625-0.009-2.938-1.328-2.938-2.954 0-1.631 1.322-2.954 2.954-2.954s2.954 1.322 2.954 2.954c0 0.004 0 0.009-0 0.013v-0.001c-0.014 1.627-1.336 2.94-2.965 2.94-0.001 0-0.003 0-0.004 0h0z"></path>
<path d="M26.329 8.793c-0.016-0.079-0.043-0.148-0.079-0.212l0.002 0.003c-0.026-0.070-0.062-0.13-0.105-0.183l0.001 0.001c-0.052-0.052-0.078-0.104-0.129-0.156-0.049-0.056-0.11-0.1-0.179-0.128l-0.003-0.001c-0.052-0.042-0.112-0.078-0.178-0.102l-0.004-0.002c-0.078-0.026-0.129-0.078-0.209-0.104-0.084-0.025-0.153-0.052-0.22-0.082l0.011 0.005c-0.041-0.007-0.076-0.025-0.104-0.052l0 0c-0.026-0.026-0.078-0.026-0.104-0.052s-0.078-0.026-0.104-0.052l-0.078-0.078c-0.031-0.024-0.051-0.062-0.052-0.104v-0c-0.017-0.025-0.027-0.055-0.027-0.088 0-0.006 0-0.011 0.001-0.017l-0 0.001v-0.129c0-0.026 0.026-0.078 0.026-0.104 0.026-0.026 0.026-0.078 0.052-0.104l0.078-0.078c0.034-0.031 0.079-0.051 0.129-0.052h0c0.032-0.017 0.069-0.027 0.109-0.027 0.007 0 0.014 0 0.020 0.001l-0.001-0h0.156c0.006-0 0.013-0.001 0.020-0.001 0.040 0 0.078 0.010 0.111 0.028l-0.001-0.001c0.051 0.007 0.094 0.017 0.137 0.028l-0.008-0.002c0.026 0 0.078 0.026 0.104 0.026 0.052 0 0.078 0.026 0.104 0.026l0.129 0.052 0.026-0.156 0.052-0.416v-0.104l-0.104-0.026c-0.026 0-0.078-0.026-0.104-0.026s-0.052-0.026-0.104-0.026c-0.035-0.010-0.078-0.019-0.123-0.026l-0.006-0.001c-0.052 0-0.078-0.026-0.129-0.026h-0.026v-0.497h-0.625v0.52h-0.026c-0.089 0.026-0.167 0.061-0.238 0.106l0.004-0.002c-0.072 0.029-0.134 0.073-0.182 0.128l-0 0.001c-0.057 0.054-0.109 0.114-0.153 0.178l-0.002 0.004c-0.048 0.058-0.084 0.128-0.103 0.205l-0.001 0.004-0.078 0.234c-0.017 0.066-0.027 0.141-0.027 0.218 0 0.015 0 0.029 0.001 0.044l-0-0.002c-0.001 0.010-0.001 0.022-0.001 0.034 0 0.063 0.010 0.123 0.029 0.179l-0.001-0.004c0.016 0.079 0.042 0.148 0.079 0.212l-0.002-0.003c0.026 0.052 0.078 0.129 0.104 0.182 0.052 0.052 0.078 0.104 0.129 0.156 0.049 0.056 0.11 0.1 0.179 0.128l0.003 0.001c0.052 0.042 0.112 0.078 0.178 0.102l0.004 0.002c0.081 0.033 0.15 0.068 0.215 0.108l-0.007-0.004c0.084 0.025 0.153 0.052 0.22 0.082l-0.011-0.005c0.041 0.007 0.076 0.025 0.104 0.052l-0-0c0.026 0.026 0.078 0.026 0.104 0.052s0.052 0.052 0.078 0.052l0.078 0.078c0.026 0.026 0.026 0.052 0.052 0.104 0.010 0.035 0.019 0.078 0.026 0.123l0.001 0.006v0.129c-0.007 0.041-0.025 0.076-0.052 0.104l-0.078 0.078c-0.029 0.031-0.064 0.057-0.102 0.077l-0.002 0.001c-0.026 0.026-0.078 0.026-0.104 0.052-0.035 0.010-0.078 0.019-0.123 0.026l-0.006 0.001h-0.337c-0.051-0.007-0.094-0.017-0.137-0.028l0.008 0.002c-0.058-0.006-0.111-0.024-0.157-0.053l0.002 0.001c-0.052-0.026-0.104-0.026-0.156-0.052-0.026 0-0.052-0.026-0.078-0.026s-0.052-0.026-0.078-0.026l-0.156-0.078-0.026 0.182-0.052 0.472v0.078l0.078 0.026c0.024-0.006 0.052-0.009 0.080-0.009 0.056 0 0.109 0.013 0.156 0.037l-0.002-0.001c0.053 0.028 0.115 0.046 0.18 0.052l0.002 0c0.052 0.026 0.129 0.026 0.209 0.052 0.052 0.017 0.112 0.027 0.175 0.027 0.012 0 0.024-0 0.035-0.001l-0.002 0h0.052v0.524h0.625v-0.546h0.026c0.089-0.026 0.167-0.061 0.238-0.106l-0.004 0.002c0.080-0.036 0.148-0.079 0.21-0.13l-0.002 0.001c0.057-0.054 0.109-0.114 0.153-0.178l0.002-0.004c0.045-0.060 0.088-0.129 0.125-0.2l0.004-0.008 0.078-0.234c0.018-0.063 0.028-0.135 0.028-0.21 0-0.018-0.001-0.035-0.002-0.052l0 0.002c0.001-0.010 0.001-0.022 0.001-0.034 0-0.064-0.011-0.126-0.030-0.183l0.001 0.004z"></path>
<path d="M23.311 12.487c-0.082-0.098-0.204-0.16-0.341-0.16-0.097 0-0.186 0.031-0.259 0.084l0.001-0.001-4.216 3.356-5.438-2.263c-0.044-0.017-0.094-0.027-0.147-0.027-0.091 0-0.176 0.030-0.245 0.080l0.001-0.001-5.827 4.164c-0.107 0.076-0.175 0.2-0.175 0.339 0 0.087 0.027 0.168 0.072 0.234l-0.001-0.001c0.068 0.11 0.187 0.182 0.324 0.182 0.005 0 0.009-0 0.014-0h-0.001c0.088-0.002 0.169-0.031 0.235-0.079l-0.001 0.001 5.644-4.034 5.466 2.264c0.047 0.017 0.1 0.027 0.156 0.027 0.097 0 0.187-0.029 0.262-0.080l-0.002 0.001 4.397-3.487c0.098-0.082 0.161-0.204 0.161-0.341 0-0.097-0.031-0.186-0.084-0.259l0.001 0.001z"></path>
<path d="M29.4 26.747h-1.927v-12.048c0-0.002 0-0.004 0-0.005 0-0.225-0.181-0.408-0.405-0.411h-3.835c-0.002-0-0.004-0-0.005-0-0.225 0-0.407 0.181-0.411 0.405v0q0 0.005 0 0.010v12.050h-1.405v-7.884c0-0.002 0-0.004 0-0.005 0-0.225-0.181-0.407-0.405-0.411h-3.863c-0.002-0-0.004-0-0.005-0-0.225 0-0.407 0.181-0.411 0.405v0q0 0.005 0 0.010v7.886h-1.402v-8.51c0-0.002 0-0.004 0-0.005 0-0.225-0.181-0.407-0.405-0.411h-3.84c-0.002-0-0.004-0-0.005-0-0.225 0-0.408 0.181-0.411 0.405v0q0 0.005 0 0.010v8.51h-1.406v-6.062c0-0.002 0-0.004 0-0.005 0-0.225-0.181-0.407-0.405-0.411h-3.862c-0.002-0-0.004-0-0.005-0-0.225 0-0.407 0.181-0.411 0.405v0q0 0.005 0 0.010v6.063h-1.952c-0.23 0-0.416 0.186-0.416 0.416s0.186 0.416 0.416 0.416h26.75c0.002 0 0.004 0 0.005 0 0.225 0 0.407-0.181 0.411-0.405v-0q0-0.005 0-0.010c0.001-0.012 0.002-0.026 0.002-0.040 0-0.208-0.168-0.376-0.376-0.376-0.006 0-0.012 0-0.017 0l0.001-0zM8.4 26.747h-2.996v-5.646h2.992zM14.49 26.747h-2.993v-8.092h2.992zM20.553 26.747h-2.992v-7.469h2.992zM26.642 26.747h-2.992v-11.632h2.992z"></path>
</svg>
