<!-- Generated by IcoMoon.io -->
<svg version="1.1" xmlns="http://www.w3.org/2000/svg" width="32" height="32" viewBox="0 0 32 32">
<title>card-status-report</title>
<path d="M13.119 13.532h7.813v0.823h-7.813v-0.823z"></path>
<path d="M13.477 9.952c-0.098-0.309-0.312-0.556-0.589-0.696l-0.007-0.003-0.802-0.401c-0.119-0.058-0.199-0.178-0.199-0.317 0-0.194 0.157-0.351 0.351-0.351 0.001 0 0.001 0 0.002 0h0.12c0.194 0 0.351 0.157 0.351 0.351v0 0.062h0.822v-0.060c-0.002-0.521-0.344-0.962-0.815-1.112l-0.008-0.002v-0.473h-0.822v0.471c-0.479 0.154-0.82 0.595-0.82 1.116 0 0.455 0.26 0.85 0.64 1.043l0.007 0.003 0.802 0.401c0.119 0.058 0.199 0.178 0.199 0.317 0 0.194-0.157 0.351-0.351 0.351-0.001 0-0.001 0-0.002 0h-0.12c-0.194 0-0.351-0.157-0.351-0.351v0-0.059h-0.82v0.060c0.002 0.521 0.344 0.962 0.815 1.112l0.008 0.002v0.471h0.824v-0.471c0.479-0.154 0.819-0.595 0.819-1.116 0-0.124-0.019-0.244-0.055-0.357l0.002 0.008z"></path>
<path d="M20.11 6.952h0.823v0.823h-0.823v-0.823z"></path>
<path d="M15.586 11.065h5.346v0.823h-5.346v-0.823z"></path>
<path d="M15.586 9.42h5.346v0.823h-5.346v-0.823z"></path>
<path d="M18.465 6.952h0.823v0.823h-0.823v-0.823z"></path>
<path d="M11.474 13.532h0.823v0.823h-0.823v-0.823z"></path>
<path d="M27.924 9.008h-2.056v-3.287c0 0 0 0 0 0 0-0.91-0.738-1.647-1.647-1.647-0.001 0-0.002 0-0.003 0h-14.798c-0.91 0-1.647 0.738-1.647 1.647v0 11.512h-3.698c-0.228 0-0.412 0.185-0.412 0.412v0 9.869c0 0.228 0.185 0.412 0.412 0.412v0h15.215c0.228 0 0.412-0.185 0.412-0.412v0-0.652l0.824-0.824 0.941 0.946c0.075 0.074 0.177 0.12 0.291 0.12s0.216-0.046 0.291-0.12v0l1.236-1.236c0.074-0.074 0.12-0.177 0.12-0.291v0-3.29h3.286c0.91 0 1.647-0.738 1.647-1.647v0-11.101c-0-0.227-0.185-0.412-0.412-0.412 0 0 0 0 0 0v0zM18.877 27.103h-14.392v-4.935h14.392zM18.877 21.346h-14.392v-1.236h14.392zM18.877 19.289h-14.392v-1.236h14.392zM22.578 5.722v19.564l-0.824 0.824-0.944-0.944c-0.075-0.074-0.177-0.12-0.291-0.12s-0.216 0.046-0.291 0.12v0l-0.53 0.534v-8.055c0-0.228-0.185-0.412-0.412-0.412v0h-10.689v-11.512c0-0.455 0.369-0.824 0.824-0.824v0h13.384c-0.142 0.236-0.226 0.52-0.228 0.823v0zM23.401 21.348v-15.627c0-0.455 0.369-0.824 0.824-0.824s0.824 0.369 0.824 0.824v0 14.802c0.002 0.304 0.087 0.587 0.233 0.829l-0.004-0.007zM27.514 20.525c0 0.455-0.369 0.824-0.824 0.824s-0.824-0.369-0.824-0.824v0-10.693h1.647z"></path>
<path d="M13.53 23.402h0.823v0.823h-0.823v-0.823z"></path>
<path d="M15.175 23.402h0.823v0.823h-0.823v-0.823z"></path>
<path d="M16.82 23.402h0.823v0.823h-0.823v-0.823z"></path>
</svg>
