<!-- Generated by IcoMoon.io -->
<svg version="1.1" xmlns="http://www.w3.org/2000/svg" width="32" height="32" viewBox="0 0 32 32">
<title>menu</title>
<path d="M6.222 24c-0.655 0-1.185-0.531-1.185-1.185s0.531-1.185 1.185-1.185v0h19.555c0.655 0 1.185 0.531 1.185 1.185s-0.531 1.185-1.185 1.185v0zM6.222 17.481c-0.655 0-1.185-0.531-1.185-1.185s0.531-1.185 1.185-1.185v0h19.555c0.655 0 1.185 0.531 1.185 1.185s-0.531 1.185-1.185 1.185v0zM6.222 10.37c-0.655 0-1.185-0.531-1.185-1.185s0.531-1.185 1.185-1.185v0h19.555c0.655 0 1.185 0.531 1.185 1.185s-0.531 1.185-1.185 1.185v0z"></path>
</svg>
