<svg xmlns="http://www.w3.org/2000/svg" width="20.44" height="25.832" viewBox="0 0 20.44 25.832">  <path id="bell" d="M73.452,20.557a4.014,4.014,0,0,1-1.22-1.661A19.217,19.217,0,0,1,70.961,11.3c0-.01,0-.019,0-.029a7.329,7.329,0,0,0-4.314-6.647V2.878A2.878,2.878,0,0,0,63.773,0h-.238a2.878,2.878,0,0,0-2.873,2.878V4.626A7.329,7.329,0,0,0,56.347,11.3,19.217,19.217,0,0,1,55.076,18.9a4.013,4.013,0,0,1-1.22,1.661.736.736,0,0,0-.4.837.77.77,0,0,0,.759.591h5.547a3.9,3.9,0,0,0,7.792,0H73.1a.77.77,0,0,0,.759-.591A.736.736,0,0,0,73.452,20.557ZM62.176,2.878a1.362,1.362,0,0,1,1.359-1.362h.238a1.362,1.362,0,0,1,1.359,1.362V4.135a7.33,7.33,0,0,0-2.957,0V2.878Zm1.478,21.438a2.388,2.388,0,0,1-2.382-2.33h4.765A2.388,2.388,0,0,1,63.654,24.315ZM66.7,20.469H55.936a7.931,7.931,0,0,0,.4-.7,19.16,19.16,0,0,0,1.529-8.47,5.793,5.793,0,1,1,11.586,0c0,.009,0,.019,0,.028a19.121,19.121,0,0,0,1.529,8.44,7.936,7.936,0,0,0,.4.7Z" transform="translate(-53.434)" fill="#fff"/></svg>