<svg width="90" height="90" xmlns="http://www.w3.org/2000/svg" viewBox="0 0 100 100" preserveAspectRatio="xMidYMid" class="lds-eclipse" style="background:0 0"><path d="M13.42 34.784a40 40 0 0073.924 30.583 40 42 22.475 01-73.923-30.583" fill="#F7931E"><animateTransform attributeName="transform" type="rotate" calcMode="linear" values="0 50 51;360 50 51" keyTimes="0;1" dur="1s" begin="0s" repeatCount="indefinite"/></path><path fill="#F7931E" d="M50 18c-18.2 0-33 14.8-33 33 0 1.5.1 3 .3 4.4 3.1-5.2 21.6-33 54.9-28.4.7.6 1.4 1.3 2.1 2-.5 0-31.6 3.2-44.6 47.3 0 .1-.1.3-.1.4C35.1 81.3 42.2 84 50 84c18.2 0 33-14.8 33-33S68.2 18 50 18z"/></svg>