<svg xmlns="http://www.w3.org/2000/svg" width="575.246" height="575.246"><g fill="#BC2626"><path d="M431.146 305.701c0 8.141-2.834 16.045-7.701 22.521v109.803c0 5.396-4.375 9.783-9.777 9.783H161.561c-5.402 0-9.777-4.385-9.777-9.783V71.292c0-5.404 4.375-9.788 9.777-9.788h18.564l17.711-25.889V.009h-60.814c-21.397 0-38.746 17.346-38.746 38.758V536.49c0 21.404 17.348 38.756 38.746 38.756h301.202c21.398 0 38.746-17.35 38.746-38.756V236.91l-45.822 11.403-.002 57.388zM287.611 546.472c-21.13 0-38.211-17.09-38.211-38.205 0-21.102 17.081-38.223 38.211-38.223 21.078 0 38.213 17.121 38.213 38.223.002 21.113-17.135 38.205-38.213 38.205zM438.222.008H283.674v53.507l-2.776 4.623-2.016 3.366h134.786c5.4 0 9.777 4.384 9.777 9.788v93.652l44.184-24.166 9.34-5.108V38.764C476.968 17.354 459.623.008 438.222.008z"/><path d="M188.777 96.731l29.35 80.25a7.036 7.036 0 01.383 3.378l-11.395 86.786c-.171 1.834.742 3.688 2.474 4.584a4.493 4.493 0 002.073.504 4.624 4.624 0 004.111-2.501l43.595-84.921a18.042 18.042 0 00.553-15.276l-26.955-63.672a7.108 7.108 0 01.457-6.43l30.777-51.31V0h-46.887v41.639l-26.477 38.709a17.982 17.982 0 00-2.059 16.383zm177.262 134.434l5.645 54.125a2.798 2.798 0 01-.834 2.33l-45.576 44.584a18.03 18.03 0 00-4.869 17.387l18.012 70.072c.418 1.723 1.77 3.148 3.613 3.635.418.105.836.154 1.254.154 2.248 0 4.299-1.514 4.871-3.787l11.354-54.686a2.76 2.76 0 01.801-1.455l45.938-44.927a18.077 18.077 0 005.422-12.897v-70.387c0-1.303.896-2.444 2.168-2.768l63.131-15.702v-58.977l-101.648 55.59a18.014 18.014 0 00-9.282 17.709z"/></g></svg>