<!-- Generated by IcoMoon.io -->
<svg version="1.1" xmlns="http://www.w3.org/2000/svg" width="32" height="32" viewBox="0 0 32 32">
<title>asr</title>
<path d="M9.999 7.534c0.171 0.276 0.473 0.457 0.817 0.457 0.529 0 0.958-0.429 0.958-0.958 0-0.168-0.043-0.325-0.119-0.462l0.002 0.005-0.478-0.829c-0.163-0.308-0.482-0.514-0.849-0.514-0.529 0-0.958 0.429-0.958 0.958 0 0.175 0.047 0.34 0.129 0.481l-0.002-0.005q0.010 0.019 0.022 0.038zM20.899 8.008c0.142 0.088 0.315 0.141 0.5 0.141 0.344 0 0.645-0.181 0.814-0.453l0.002-0.004 0.5-0.817c0.074-0.133 0.118-0.292 0.118-0.461 0-0.529-0.429-0.958-0.958-0.958-0.329 0-0.619 0.165-0.791 0.418l-0.002 0.003-0.5 0.817c-0.088 0.142-0.14 0.314-0.14 0.498 0 0.344 0.181 0.645 0.453 0.814l0.004 0.002zM26.142 21.083l-1.633-0.998c-0.133-0.074-0.292-0.118-0.461-0.118-0.529 0-0.958 0.429-0.958 0.958 0 0.329 0.165 0.619 0.418 0.791l0.003 0.002 1.633 0.998c0.133 0.074 0.292 0.118 0.461 0.118 0.529 0 0.958-0.429 0.958-0.958 0-0.329-0.165-0.619-0.418-0.791l-0.003-0.002zM25.384 16.012c0 0.529 0.429 0.957 0.958 0.957 0 0 0 0 0.001 0h0.958c0 0 0.001 0 0.002 0 0.529 0 0.958-0.429 0.958-0.958 0-0.513-0.403-0.932-0.91-0.957l-0.002-0h-1.005c-0 0-0 0-0.001 0-0.529 0-0.958 0.429-0.958 0.957v0zM24.105 12.235c0.178-0 0.344-0.049 0.487-0.134l-0.004 0.002 1.654-0.966c0.29-0.168 0.482-0.477 0.482-0.831 0-0.529-0.429-0.958-0.958-0.958-0.162 0-0.315 0.040-0.449 0.111l0.005-0.003q-0.023 0.013-0.045 0.027l-1.655 0.966c-0.286 0.169-0.474 0.476-0.474 0.827 0 0.529 0.429 0.958 0.958 0.958 0 0 0 0 0 0v0zM16 7.585c0.529 0 0.958-0.429 0.958-0.958v0-1.914c0.001-0.014 0.001-0.030 0.001-0.046 0-0.529-0.429-0.958-0.958-0.958s-0.957 0.428-0.958 0.956v0q0 0.024 0 0.047v1.915c0.001 0.528 0.429 0.956 0.957 0.957h0zM27.299 26.353h-10.652c-0.516 0-0.934-0.418-0.934-0.934s0.418-0.934 0.934-0.934v0h2.511c1.56 0 2.825-1.265 2.825-2.825s-1.265-2.825-2.825-2.825v0h-7.94c-0.484-0.807-0.77-1.78-0.77-2.82 0-3.066 2.486-5.552 5.552-5.552 3.065 0 5.55 2.484 5.552 5.548v0c0.018 0.515 0.44 0.926 0.957 0.926s0.94-0.411 0.957-0.924l0-0.002c0-0.003 0-0.006 0-0.009 0-4.125-3.344-7.469-7.469-7.469s-7.469 3.344-7.469 7.469c0 1.022 0.205 1.996 0.577 2.883l-0.018-0.049h-4.386c-0.515 0.018-0.926 0.44-0.926 0.957s0.411 0.94 0.924 0.957l0.002 0h14.456c0.503 0 0.91 0.407 0.91 0.91s-0.407 0.91-0.91 0.91v0h-2.511c-0.007-0-0.014-0-0.022-0-1.573 0-2.849 1.276-2.849 2.849 0 1.54 1.223 2.795 2.75 2.847l0.005 0q0.058 0 0.116 0h10.652c0.515-0.018 0.926-0.44 0.926-0.957s-0.411-0.94-0.924-0.957l-0.002-0zM5.858 10.938l1.633 0.998c0.133 0.074 0.292 0.118 0.461 0.118 0.529 0 0.958-0.429 0.958-0.958 0-0.329-0.165-0.619-0.418-0.791l-0.003-0.002-1.633-0.998c-0.133-0.074-0.292-0.118-0.461-0.118-0.529 0-0.958 0.429-0.958 0.958 0 0.329 0.165 0.619 0.418 0.791l0.003 0.002zM4.701 24.486h5.795c0.001 0 0.002 0 0.002 0 0.529 0 0.958-0.429 0.958-0.958 0-0.513-0.403-0.932-0.91-0.957l-0.002-0h-5.843c-0.001 0-0.002 0-0.002 0-0.529 0-0.958 0.429-0.958 0.958 0 0.513 0.403 0.932 0.91 0.957l0.002 0zM11.451 26.353h-6.75c-0.515 0.018-0.926 0.44-0.926 0.957s0.411 0.94 0.924 0.957l0.002 0h6.753c0.515-0.018 0.926-0.44 0.926-0.957s-0.411-0.94-0.924-0.957l-0.002-0zM4.701 16.969h0.957c0.014 0.001 0.030 0.001 0.046 0.001 0.529 0 0.958-0.429 0.958-0.958s-0.428-0.957-0.956-0.958h-1.004c-0.014-0.001-0.030-0.001-0.046-0.001-0.529 0-0.958 0.429-0.958 0.958s0.428 0.957 0.956 0.958h0z"></path>
</svg>
