<!-- Generated by IcoMoon.io -->
<svg version="1.1" xmlns="http://www.w3.org/2000/svg" width="32" height="32" viewBox="0 0 32 32">
<title>cards</title>
<path d="M26.042 4.036h-18.201c-1.064 0.001-1.927 0.863-1.927 1.927v1.25c-1.044 0.026-1.881 0.878-1.883 1.926v11.849c0.001 1.064 0.863 1.927 1.927 1.927h5.316c0.258 0 0.467-0.209 0.467-0.467s-0.209-0.467-0.467-0.467h-5.316c-0.548-0.001-0.992-0.445-0.992-0.992v-6.347h20.186v6.346c-0.001 0.536-0.428 0.973-0.96 0.99l-0.002 0c-0.495-2.25-2.472-3.909-4.837-3.909-2.732 0-4.947 2.215-4.947 4.947s2.215 4.947 4.947 4.947c2.732 0 4.947-2.215 4.947-4.947 0-0 0-0 0-0v0-0.107c1.002-0.076 1.786-0.907 1.787-1.92v-1.251c1.044-0.026 1.881-0.878 1.883-1.926v-11.848c-0.001-1.064-0.864-1.927-1.928-1.927h-0zM19.353 27.028c-2.215 0-4.011-1.796-4.011-4.011s1.796-4.011 4.011-4.011c2.215 0 4.011 1.796 4.011 4.011v0c0 2.215-1.796 4.011-4.011 4.011v0zM25.151 13.708h-20.186v-2.663h0.95c0.258 0 0.467-0.209 0.467-0.467s-0.209-0.467-0.467-0.467h-0.95v-0.97c0.001-0.548 0.445-0.992 0.992-0.992h18.202c0.548 0.001 0.992 0.445 0.992 0.992v0.97h-15.704c-0.258 0-0.467 0.209-0.467 0.467s0.209 0.467 0.467 0.467h15.703zM27.034 17.812c-0 0.532-0.42 0.967-0.946 0.991l-0.002 0v-9.663c-0.001-1.064-0.863-1.927-1.927-1.927h-17.31v-1.249c0.001-0.548 0.445-0.992 0.992-0.992h18.201c0.548 0.001 0.992 0.445 0.992 0.992v0z"></path>
<path d="M7.992 10.247c-0.085-0.085-0.201-0.137-0.33-0.137-0.258 0-0.467 0.209-0.467 0.467s0.209 0.467 0.467 0.467c0.257 0 0.465-0.207 0.467-0.464v-0c0-0 0-0.001 0-0.001 0-0.13-0.052-0.247-0.137-0.332l0 0z"></path>
<path d="M10.625 15.941c-0 0-0.001 0-0.002 0-0.433 0-0.839 0.118-1.187 0.323l0.011-0.006c-0.338-0.199-0.745-0.317-1.18-0.317-1.301 0-2.356 1.055-2.356 2.356s1.055 2.356 2.356 2.356c0.434 0 0.841-0.118 1.191-0.323l-0.011 0.006c0.338 0.199 0.745 0.316 1.179 0.316 1.301 0 2.356-1.055 2.356-2.356s-1.055-2.356-2.356-2.356c-0 0-0.001 0-0.001 0h0zM8.699 19.652c-0.128 0.042-0.276 0.066-0.429 0.066-0.785 0-1.421-0.636-1.421-1.421s0.636-1.421 1.421-1.421c0.153 0 0.301 0.024 0.439 0.069l-0.010-0.003c-0.269 0.377-0.43 0.847-0.43 1.355s0.161 0.978 0.436 1.363l-0.005-0.007zM9.447 19.092c-0.153-0.223-0.244-0.499-0.244-0.796s0.091-0.573 0.247-0.801l-0.003 0.005c0.153 0.223 0.245 0.499 0.245 0.797s-0.091 0.573-0.247 0.8l0.003-0.005zM10.625 19.718c-0 0-0.001 0-0.001 0-0.153 0-0.301-0.024-0.44-0.070l0.010 0.003c0.269-0.377 0.43-0.847 0.43-1.355s-0.161-0.978-0.435-1.362l0.005 0.007c0.129-0.042 0.277-0.067 0.43-0.067 0.785 0 1.421 0.636 1.421 1.421s-0.636 1.421-1.421 1.421v0z"></path>
<path d="M13.286 22.117c-0.085-0.085-0.201-0.137-0.33-0.137-0.258 0-0.467 0.209-0.467 0.467s0.209 0.467 0.467 0.467c0.257 0 0.465-0.207 0.467-0.464v-0c0-0 0-0.001 0-0.002 0-0.129-0.052-0.247-0.137-0.332l0 0z"></path>
<path d="M19.354 22.585c-0.331-0.055-0.581-0.339-0.581-0.682 0-0.381 0.309-0.691 0.691-0.691s0.69 0.309 0.691 0.69v0c0 0.258 0.209 0.467 0.467 0.467s0.467-0.209 0.467-0.467v0c-0.020-0.757-0.549-1.385-1.257-1.555l-0.011-0.002v-0.305c0-0.258-0.209-0.467-0.467-0.467s-0.467 0.209-0.467 0.467v0.305c-0.719 0.172-1.248 0.8-1.268 1.555l-0 0.002c0.035 0.901 0.773 1.618 1.679 1.618 0.020 0 0.039-0 0.059-0.001l-0.003 0c0.331 0.055 0.581 0.339 0.581 0.682 0 0.381-0.309 0.691-0.691 0.691s-0.69-0.309-0.691-0.69v-0c0-0.258-0.209-0.467-0.467-0.467s-0.467 0.209-0.467 0.467v0c0.020 0.757 0.549 1.385 1.257 1.555l0.011 0.002v0.233c0 0.258 0.209 0.467 0.467 0.467s0.467-0.209 0.467-0.467v0-0.233c0.719-0.172 1.248-0.8 1.268-1.555l0-0.002c-0.035-0.901-0.773-1.618-1.679-1.618-0.020 0-0.039 0-0.059 0.001l0.003-0z"></path>
<path d="M19.353 15.473c-0.258 0-0.467 0.209-0.467 0.467v0 0.747c0 0.258 0.209 0.467 0.467 0.467s0.467-0.209 0.467-0.467v-0.747c0-0.258-0.209-0.467-0.467-0.467v0z"></path>
<path d="M22.407 16.406c-0.058-0.027-0.125-0.043-0.197-0.043-0.186 0-0.346 0.108-0.421 0.265l-0.001 0.003v0.004l-0.314 0.679c-0.027 0.058-0.043 0.125-0.043 0.196 0 0.258 0.209 0.467 0.467 0.467 0.187 0 0.348-0.11 0.423-0.268l0.001-0.003 0.314-0.679c0.027-0.058 0.043-0.125 0.043-0.197 0-0.186-0.108-0.346-0.265-0.421l-0.003-0.001z"></path>
<path d="M17.233 17.313l-0.314-0.679c-0.076-0.161-0.237-0.271-0.424-0.271-0.258 0-0.467 0.209-0.467 0.467 0 0.071 0.016 0.139 0.044 0.199l-0.001-0.003 0.314 0.679c0.076 0.161 0.237 0.271 0.424 0.271 0.258 0 0.467-0.209 0.467-0.467 0-0.071-0.016-0.139-0.044-0.199l0.001 0.003z"></path>
</svg>
