<svg xmlns="http://www.w3.org/2000/svg" width="14.771" height="10.159" viewBox="0 0 14.771 10.159">  <g id="Card" transform="translate(200.632 -1404.707)">    <g id="Group_42995" data-name="Group 42995" transform="translate(-200.632 1404.707)">      <path id="Path_120985" data-name="Path 120985" d="M-185.858,1524.8v5.193c-.007.012-.019.024-.02.037a1.649,1.649,0,0,1-1.692,1.381c-3.8-.011-7.6,0-11.4-.005a1.606,1.606,0,0,1-1.662-1.653q0-2.409,0-4.818c0-.182.038-.221.217-.221q7.169,0,14.338,0A.664.664,0,0,1-185.858,1524.8Zm-12.462,3.6c-.041.513.142.711.693.712s.7-.213.7-.7c0-.469-.118-.709-.71-.7C-198.16,1527.7-198.364,1527.893-198.321,1528.392Z" transform="translate(200.629 -1521.248)"  fill="white"/>      <path id="Path_120986" data-name="Path 120986" d="M-199.218,1404.707h11.943c.036.011.071.024.108.032a1.587,1.587,0,0,1,1.177.96,3.581,3.581,0,0,1,.129.422v1.039a.9.9,0,0,1-.259.083q-7.125.006-14.25,0h-.072c-.135.005-.191-.062-.19-.193,0-.24,0-.481,0-.721a1.6,1.6,0,0,1,1.03-1.51C-199.477,1404.773-199.345,1404.745-199.218,1404.707Z" transform="translate(200.632 -1404.707)" fill="white"/>    </g>  </g></svg>