<!-- Generated by IcoMoon.io -->
<svg version="1.1" xmlns="http://www.w3.org/2000/svg" width="32" height="32" viewBox="0 0 32 32">
<title>cash-flow</title>
<path d="M26.772 8.539c-0.915 0.001-1.657 0.743-1.658 1.658v0c0.002 0.309 0.090 0.596 0.239 0.841l-0.004-0.007-4.373 4.374c-0.238-0.147-0.527-0.234-0.836-0.234s-0.598 0.087-0.843 0.238l0.007-0.004-1.888-1.888c0.145-0.238 0.232-0.526 0.233-0.834v-0c-0.023-0.898-0.757-1.616-1.658-1.616-0.882 0-1.603 0.688-1.655 1.556l-0 0.005q0 0.030 0 0.059c0.003 0.2 0.041 0.39 0.108 0.566l-0.004-0.011-8.144 8.14c-0.286-0.253-0.664-0.407-1.079-0.409h-0v-14.506c0.001-0.686 0.557-1.243 1.243-1.243h19.067c0.686 0.001 1.243 0.557 1.243 1.243v0.829c-0 0.005-0 0.011-0 0.017 0 0.229 0.186 0.415 0.415 0.415s0.415-0.186 0.415-0.415c0-0.006-0-0.012-0-0.018l0 0.001v-0.829c-0.001-1.144-0.928-2.072-2.073-2.073h-19.065c-1.144 0.001-2.072 0.928-2.073 2.073v14.737c-0.495 0.292-0.823 0.823-0.823 1.43 0 0.914 0.741 1.655 1.655 1.655s1.655-0.741 1.655-1.655c0-0.001 0-0.002 0-0.004v0c-0.003-0.2-0.041-0.39-0.108-0.566l0.004 0.011 8.148-8.143c0.284 0.254 0.662 0.409 1.075 0.409 0.311 0 0.601-0.088 0.848-0.24l-0.007 0.004 1.884 1.884c-0.147 0.239-0.234 0.529-0.235 0.838v0c0.019 0.901 0.754 1.625 1.658 1.625s1.639-0.723 1.658-1.623l0-0.002c-0.002-0.309-0.089-0.596-0.239-0.841l0.004 0.007 4.372-4.372c0.238 0.146 0.526 0.233 0.834 0.235h0.001v13.674c-0.001 0.686-0.557 1.243-1.243 1.243h-1.243v-11.194c-0.009-0.222-0.191-0.398-0.414-0.398s-0.405 0.176-0.414 0.397l-0 0.001v11.193h-2.488v-7.046c0-0.005 0-0.011 0-0.017 0-0.229-0.186-0.415-0.415-0.415s-0.415 0.186-0.415 0.415c0 0.006 0 0.012 0 0.017l-0-0.001v7.046h-2.487v-10.362c0-0.005 0-0.011 0-0.017 0-0.229-0.186-0.415-0.415-0.415s-0.415 0.186-0.415 0.415c0 0.006 0 0.012 0 0.017l-0-0.001v10.362h-2.488v-10.362c0-0.005 0-0.011 0-0.017 0-0.229-0.186-0.415-0.415-0.415s-0.415 0.186-0.415 0.415c0 0.006 0 0.012 0 0.017l-0-0.001v10.362h-2.488v-7.046c0-0.005 0-0.011 0-0.017 0-0.229-0.186-0.415-0.415-0.415s-0.415 0.186-0.415 0.415c0 0.006 0 0.012 0 0.017l-0-0.001v7.046h-2.487v-1.658c0-0.005 0-0.011 0-0.017 0-0.229-0.186-0.415-0.415-0.415s-0.415 0.186-0.415 0.415c0 0.006 0 0.012 0 0.017l-0-0.001v1.658h-0.415c-0.686-0.001-1.243-0.557-1.243-1.243v-0c-0.009-0.222-0.191-0.398-0.414-0.398s-0.405 0.176-0.414 0.397l-0 0.001c0.001 1.144 0.928 2.072 2.073 2.073h19.066c1.144-0.001 2.072-0.928 2.073-2.073v-13.908c0.499-0.29 0.83-0.823 0.83-1.433 0-0.912-0.74-1.652-1.652-1.652-0.002 0-0.005 0-0.007 0h0zM5.221 23.46c-0.458 0-0.829-0.371-0.829-0.829s0.371-0.829 0.829-0.829c0.458 0 0.829 0.371 0.829 0.829v0c0 0.458-0.371 0.829-0.829 0.829v0zM15.997 13.513c-0.458 0-0.829-0.371-0.829-0.829s0.371-0.829 0.829-0.829c0.458 0 0.829 0.371 0.829 0.829v0c0 0.458-0.371 0.829-0.829 0.829v0zM20.143 17.655c-0.458 0-0.829-0.371-0.829-0.829s0.371-0.829 0.829-0.829c0.458 0 0.829 0.371 0.829 0.829v0c0 0.458-0.371 0.829-0.829 0.829-0 0-0 0-0.001 0h0zM26.773 11.026c-0.226-0-0.431-0.091-0.581-0.239l0 0c0-0 0-0 0-0 0-0.002-0.001-0.005-0.003-0.006h-0c-0.003 0-0.004 0-0.006-0.003-0.147-0.149-0.237-0.354-0.237-0.58 0-0.457 0.371-0.828 0.828-0.828s0.828 0.371 0.828 0.828c0 0.457-0.371 0.828-0.828 0.828-0 0-0.001 0-0.001 0h0z"></path>
</svg>
