<!-- Generated by IcoMoon.io -->
<svg version="1.1" xmlns="http://www.w3.org/2000/svg" width="32" height="32" viewBox="0 0 32 32">
<title>cheques-status</title>
<path d="M27.085 13.801h-5.9c-0.004-0-0.009-0-0.014-0-0.208 0-0.376 0.168-0.376 0.376 0 0.203 0.16 0.368 0.361 0.376l0.001 0h5.927c0.308 0.008 0.556 0.256 0.564 0.563v11.988c-0.008 0.308-0.256 0.556-0.563 0.564h-22.172c-0.308-0.008-0.556-0.256-0.564-0.563v-11.988c0.008-0.308 0.256-0.556 0.563-0.564h9.133c0.004 0 0.009 0 0.014 0 0.208 0 0.376-0.168 0.376-0.376 0-0.203-0.161-0.368-0.361-0.376l-0.001-0h-9.162c-0.725 0.007-1.311 0.593-1.318 1.318v11.985c0.007 0.725 0.593 1.311 1.318 1.318h22.174c0.725-0.007 1.311-0.593 1.318-1.318v-11.988c0-0.003 0-0.007 0-0.011 0-0.719-0.58-1.302-1.298-1.307h-0z"></path>
<path d="M17.050 20.34c0.004 0 0.009 0 0.014 0 0.208 0 0.376-0.168 0.376-0.376 0-0.203-0.16-0.368-0.361-0.376l-0.001-0h-6.040c-0.207 0-0.376 0.168-0.376 0.376s0.168 0.376 0.376 0.376v0z"></path>
<path d="M25.207 22.444h-17.587c-0.207 0-0.376 0.168-0.376 0.376s0.168 0.376 0.376 0.376h17.549c0.006 0 0.014 0.001 0.021 0.001 0.196 0 0.355-0.159 0.355-0.355 0-0.007-0-0.015-0.001-0.022l0 0.001c0.001-0.009 0.001-0.019 0.001-0.029 0-0.181-0.139-0.33-0.316-0.346l-0.001-0z"></path>
<path d="M7.62 24.999c-0.207 0-0.376 0.168-0.376 0.376s0.168 0.376 0.376 0.376h17.549c0.006 0 0.014 0.001 0.021 0.001 0.196 0 0.355-0.159 0.355-0.355 0-0.007-0-0.015-0.001-0.022l0 0.001c0.001-0.009 0.001-0.019 0.001-0.029 0-0.181-0.139-0.33-0.316-0.346l-0.001-0h-0.022z"></path>
<path d="M26.634 20.114v-2.067c0-0.006 0.001-0.014 0.001-0.021 0-0.196-0.159-0.355-0.355-0.355-0.007 0-0.015 0-0.022 0.001l0.001-0h-7.25c-0.006-0-0.014-0.001-0.021-0.001-0.196 0-0.355 0.159-0.355 0.355 0 0.007 0 0.015 0.001 0.022l-0-0.001v2.067c-0 0.006-0.001 0.014-0.001 0.021 0 0.196 0.159 0.355 0.355 0.355 0.007 0 0.015-0 0.022-0.001l-0.001 0h7.25c0.006 0 0.014 0.001 0.021 0.001 0.196 0 0.355-0.159 0.355-0.355 0-0.007-0-0.015-0.001-0.022l0 0.001zM25.883 19.739h-6.502v-1.315h6.501z"></path>
<path d="M9.799 20.377v-3.757c0-0.006 0.001-0.014 0.001-0.021 0-0.196-0.159-0.355-0.355-0.355-0.007 0-0.015 0-0.022 0.001l0.001-0h-3.645c-0.006-0-0.014-0.001-0.021-0.001-0.196 0-0.355 0.159-0.355 0.355 0 0.007 0 0.015 0.001 0.022l-0-0.001v3.757c-0 0.006-0.001 0.014-0.001 0.021 0 0.196 0.159 0.355 0.355 0.355 0.007 0 0.015-0 0.022-0.001l-0.001 0h3.645c0.201-0.015 0.361-0.174 0.376-0.374l0-0.001zM9.047 20.002h-2.892v-3.007h2.892z"></path>
<path d="M13.708 18.198c0.068 0.057 0.156 0.091 0.252 0.091 0.073 0 0.142-0.020 0.2-0.054l-0.002 0.001 5.148-3.196 0.075-0.075c1.579-1.841 5.448-6.351 6.614-7.741 0.331-0.385 0.533-0.889 0.533-1.441 0-1.222-0.991-2.213-2.213-2.213-0.683 0-1.293 0.309-1.699 0.795l-0.003 0.003c-0.714 0.823-5.936 6.953-6.614 7.778l-0.075 0.113-2.33 5.522c-0.026 0.044-0.041 0.096-0.041 0.152 0 0.112 0.061 0.21 0.151 0.263l0.001 0.001zM23.177 4.861c0.272-0.309 0.669-0.503 1.111-0.503 0.365 0 0.7 0.133 0.958 0.352l-0.002-0.002c0.308 0.265 0.503 0.655 0.503 1.090 0 0.356-0.13 0.682-0.345 0.933l0.002-0.002-0.007 0.009-0.338 0.413-2.217-1.877zM22.351 5.876l2.218 1.874-0.639 0.753-2.217-1.877zM21.224 7.194l2.217 1.877-4.435 5.148-2.216-1.884zM16.413 13.019l1.991 1.691-3.681 2.285z"></path>
</svg>
