<svg xmlns="http://www.w3.org/2000/svg" version="1.0" width="119" height="118" preserveAspectRatio="xMidYMid meet" style=""><rect id="backgroundrect" width="100%" height="100%" x="0" y="0" fill="none" stroke="none"/>
<metadata>
Created by potrace 1.15, written by Peter Selinger 2001-2017
</metadata>

<g class="currentLayer" style=""><title>Layer 1</title><g transform="translate(0,118) scale(0.10000000149011612,-0.10000000149011612) " fill="#000000" stroke="none" id="svg_1">
<path d="M90 1152 c-59 -31 -71 -68 -68 -207 3 -112 4 -120 23 -120 19 0 20 8 23 126 4 169 2 167 172 171 117 3 125 4 125 23 0 19 -8 20 -120 23 -101 2 -126 -1 -155 -16z" id="svg_2"/>
<path d="M834 1155 c-12 -30 7 -35 130 -35 165 0 164 1 168 -170 3 -117 4 -125 23 -125 19 0 20 8 23 120 4 198 -23 225 -221 225 -94 0 -119 -3 -123 -15z" id="svg_3"/>
<path d="M555 1011 c-63 -11 -112 -39 -158 -91 -67 -75 -70 -89 -74 -414 -3 -158 -2 -299 1 -312 4 -15 14 -24 26 -24 19 0 20 8 20 298 0 168 4 313 10 333 15 52 49 99 99 134 38 27 51 30 115 30 63 0 79 -4 122 -30 30 -19 60 -49 79 -79 l30 -49 3 -319 c3 -306 4 -318 22 -318 12 0 22 9 26 24 3 14 4 157 2 318 -3 271 -5 296 -24 338 -31 66 -68 106 -127 134 -60 28 -115 37 -172 27z" id="svg_4"/>
<path d="M563 859 c-17 -5 -43 -23 -57 -40 -24 -29 -26 -37 -26 -140 l0 -109 120 0 120 0 0 109 c0 103 -2 111 -25 140 -24 27 -40 36 -85 46 -8 2 -29 -1 -47 -6z m85 -59 c28 -26 34 -52 30 -125 l-3 -60 -75 0 -75 0 -3 60 c-2 32 -1 69 3 82 8 32 44 63 75 63 14 0 36 -9 48 -20z" id="svg_5"/>
<path d="M27 354 c-4 -4 -7 -59 -7 -123 0 -196 28 -223 225 -219 112 3 120 4 120 23 0 19 -8 20 -125 23 -170 4 -168 2 -172 171 -3 104 -6 126 -18 129 -9 1 -19 0 -23 -4z" id="svg_6"/>
<path d="M1137 354 c-4 -4 -7 -62 -7 -129 0 -164 1 -163 -170 -167 -117 -3 -125 -4 -125 -23 0 -19 8 -20 120 -23 198 -4 227 25 223 223 -3 99 -6 120 -18 123 -9 1 -19 0 -23 -4z" id="svg_7"/>
</g><rect fill="#000000" stroke-dashoffset="" fill-rule="nonzero" id="svg_9" x="47" y="74" width="24" height="6" style="color: rgb(0, 0, 0);"/><rect fill="#000000" stroke-dashoffset="" fill-rule="nonzero" id="svg_8" x="47" y="88" width="26" height="5" style="color: rgb(0, 0, 0);"/></g></svg>