<?xml version="1.0" encoding="UTF-8" standalone="no"?>
<!-- Created with Inkscape (http://www.inkscape.org/) -->

<svg
   xmlns:dc="http://purl.org/dc/elements/1.1/"
   xmlns:cc="http://creativecommons.org/ns#"
   xmlns:rdf="http://www.w3.org/1999/02/22-rdf-syntax-ns#"
   xmlns:svg="http://www.w3.org/2000/svg"
   xmlns="http://www.w3.org/2000/svg"
   xmlns:sodipodi="http://sodipodi.sourceforge.net/DTD/sodipodi-0.dtd"
   xmlns:inkscape="http://www.inkscape.org/namespaces/inkscape"
   width="12.077802mm"
   height="11.950428mm"
   viewBox="0 0 42.79536 42.344036"
   id="svg2"
   version="1.1"
   inkscape:version="0.91 r13725"
   sodipodi:docname="grey.svg">
  <defs
     id="defs4" />
  <sodipodi:namedview
     id="base"
     pagecolor="#ffffff"
     bordercolor="#666666"
     borderopacity="1.0"
     inkscape:pageopacity="0.0"
     inkscape:pageshadow="2"
     inkscape:zoom="0.49497475"
     inkscape:cx="8.1040489"
     inkscape:cy="-49.151927"
     inkscape:document-units="px"
     inkscape:current-layer="layer1"
     showgrid="false"
     inkscape:window-width="1600"
     inkscape:window-height="877"
     inkscape:window-x="-8"
     inkscape:window-y="-8"
     inkscape:window-maximized="1"
     objecttolerance="20"
     fit-margin-top="0"
     fit-margin-left="0"
     fit-margin-right="0"
     fit-margin-bottom="0" />
  <metadata
     id="metadata7">
    <rdf:RDF>
      <cc:Work
         rdf:about="">
        <dc:format>image/svg+xml</dc:format>
        <dc:type
           rdf:resource="http://purl.org/dc/dcmitype/StillImage" />
        <dc:title></dc:title>
      </cc:Work>
    </rdf:RDF>
  </metadata>
  <g
     inkscape:label="Layer 1"
     inkscape:groupmode="layer"
     id="layer1"
     transform="translate(-12.12184,-25.183911)">
    <g
       id="g3347"
       transform="translate(-166.44288,-137.38074)">
      <path
         style="fill:#fefefe"
         d="m 180.00002,203.79079 c -0.55,-0.55 -1,-7.92321 -1,-16.38491 0,-14.36301 0.25794,-15.69146 3.88334,-20 3.79304,-4.50778 4.18939,-4.61509 17.04546,-4.61509 12.22113,0 13.44482,0.28272 17.11665,3.95455 3.80873,3.80872 3.95455,4.58307 3.95455,21 l 0,17.04545 -20,0 c -11,0 -20.45,-0.45 -21,-1 z"
         id="path3545"
         inkscape:connector-curvature="0" />
      <path
         style="fill:#fdfdfd"
         d="m 182.09359,202.65353 c -0.97558,-1.17549 -2.16867,-8.23255 -2.65132,-15.68235 l -0.87755,-13.54509 5.31765,-5.31765 c 5.14774,-5.14774 5.67822,-5.31765 16.60227,-5.31765 10.60115,0 11.56414,0.27953 15.9,4.61538 4.52093,4.52094 4.61538,4.91385 4.61538,19.2 0,9.34359 -0.64684,15.23146 -1.8,16.38462 -2.75011,2.75011 -34.7858,2.45893 -37.10643,-0.33726 z"
         id="path3543"
         inkscape:connector-curvature="0" />
      <path
         style="fill:#fcfcfc"
         d="m 183.70701,203.45046 c -4.43344,-2.8089 -6.12825,-24.56024 -2.46556,-31.6431 3.66093,-7.07946 7.79493,-9.01657 19.24233,-9.01657 9.75256,0 10.59774,0.2815 15.46811,5.15187 l 5.15186,5.15186 -0.30327,13.7424 c -0.20871,9.45734 -0.95987,14.399 -2.40901,15.84814 -2.39258,2.39257 -31.11576,3.02643 -34.68446,0.7654 z"
         id="path3541"
         inkscape:connector-curvature="0" />
      <path
         style="fill:#fbfbfb"
         d="m 184.16171,202.66204 c -1.60143,-1.17081 -3.08535,-3.70206 -3.29761,-5.625 -0.21226,-1.92294 -0.78773,-6.71825 -1.27882,-10.65626 -1.17954,-9.45842 -0.0252,-13.41924 5.52962,-18.9741 4.28216,-4.28216 5.38101,-4.61589 15.19839,-4.61589 10.22139,0 10.75755,0.18561 15.71263,5.43952 l 5.13013,5.43952 -0.42789,13.47049 c -0.36395,11.45772 -0.87374,13.78276 -3.41177,15.56047 -4.16228,2.91538 -29.15399,2.88617 -33.15468,-0.0388 z"
         id="path3539"
         inkscape:connector-curvature="0" />
      <path
         style="fill:#fafafa"
         d="m 184.69564,202.91579 c -2.89569,-2.28342 -4.51883,-9.4802 -4.76254,-21.11645 -0.17334,-8.27643 0.11499,-9.01456 5.41989,-13.875 5.08789,-4.66162 6.43723,-5.13355 14.67778,-5.13355 10.35551,0 15.36329,2.51028 18.98698,9.51774 3.17232,6.13458 1.69106,27.76063 -2.09641,30.60726 -3.37852,2.53926 -29.00555,2.53926 -32.2257,0 z"
         id="path3537"
         inkscape:connector-curvature="0" />
      <path
         style="fill:#f9f9f9"
         d="m 184.8502,202.86738 c -4.11517,-3.13464 -6.97018,-21.75136 -4.31774,-28.1549 3.34727,-8.08103 9.57423,-11.92871 19.20765,-11.86854 9.77517,0.0611 14.24316,2.08257 18.34039,8.29799 3.04625,4.62109 3.5004,9.84707 1.96577,22.61998 -0.74903,6.23424 -1.62669,8.03962 -4.55754,9.375 -4.93237,2.24734 -27.5961,2.04796 -30.63853,-0.26953 z"
         id="path3535"
         inkscape:connector-curvature="0" />
      <path
         style="fill:#f8f8f8"
         d="m 185.50962,202.5789 c -4.78381,-3.35071 -7.90153,-20.80638 -4.97716,-27.86642 3.30084,-7.96895 9.59257,-11.92169 18.97621,-11.92169 15.1844,0 22.51922,7.89832 20.94212,22.551 -0.48537,4.50945 -0.90799,9.68658 -0.93916,11.50473 -0.0975,5.68853 -5.42481,7.94427 -18.76161,7.94427 -8.21976,0 -13.09205,-0.70713 -15.2404,-2.21189 z"
         id="path3533"
         inkscape:connector-curvature="0" />
      <path
         style="fill:#f7f7f7"
         d="m 185.78633,202.75283 c -2.92388,-2.13799 -6.60729,-13.66765 -6.72011,-21.03499 -0.0796,-5.19734 4.60469,-13.21115 9.65744,-16.52184 2.27459,-1.49037 6.89596,-2.40521 12.15006,-2.40521 7.89329,0 8.89411,0.41487 14.4828,6.00356 l 6.00356,6.00356 -0.95179,9.37144 c -0.52349,5.15429 -0.95214,10.85902 -0.95257,12.67717 -0.001,5.67868 -5.34934,7.94427 -18.75277,7.94427 -7.85334,0 -13.11211,-0.71847 -14.91662,-2.03796 z"
         id="path3531"
         inkscape:connector-curvature="0" />
      <path
         style="fill:#f6f6f6"
         d="m 186.65252,202.97052 c -2.47211,-1.32607 -4.21103,-4.2759 -5.5588,-9.42973 -2.62753,-10.04766 -2.55435,-13.57587 0.41125,-19.8254 3.44478,-7.25934 9.96983,-10.9121 19.50496,-10.91899 13.02623,-0.009 21.27475,9.69693 19.39386,22.82145 -0.50627,3.53262 -1.19202,8.35199 -1.5239,10.70972 -0.33189,2.35773 -1.37407,5.05773 -2.31596,6 -2.5096,2.5106 -25.50804,3.00495 -29.91141,0.64295 z"
         id="path3529"
         inkscape:connector-curvature="0" />
      <path
         style="fill:#f5f5f5"
         d="m 186.84242,202.9455 c -1.87419,-0.90324 -3.77715,-3.3888 -4.22882,-5.52348 -0.45166,-2.13468 -1.44949,-5.43174 -2.21739,-7.32681 -2.06707,-5.10121 -1.70499,-10.45029 1.10876,-16.37982 3.37279,-7.10763 9.99749,-10.91204 19.01349,-10.91899 12.78095,-0.01 21.53454,9.4554 19.93708,21.55798 -1.96387,14.8785 -2.71479,17.073 -6.41974,18.76108 -4.64637,2.11703 -22.68187,2.00431 -27.19338,-0.16996 z"
         id="path3527"
         inkscape:connector-curvature="0" />
      <path
         style="fill:#f4f4f4"
         d="m 187.0212,203.02527 c -1.77585,-0.85936 -3.58337,-3.34492 -4.01671,-5.52348 -0.43334,-2.17855 -1.62291,-6.72424 -2.64349,-10.10154 -1.65582,-5.47945 -1.50942,-6.85566 1.35985,-12.78277 3.89741,-8.05098 9.81272,-11.82856 18.51061,-11.82108 12.84719,0.011 21.97054,9.7892 20.17028,21.61796 -2.52314,16.57859 -2.67287,17.01843 -6.36594,18.7011 -4.56502,2.07997 -22.65483,2.01957 -27.0146,-0.0902 z"
         id="path3525"
         inkscape:connector-curvature="0" />
      <path
         style="fill:#f3f3f3"
         d="m 188.21461,202.89368 c -2.33165,-1.22201 -4.56397,-4.85339 -6.55628,-10.66532 -3.76292,-10.97715 -2.17909,-17.91352 5.66242,-24.79845 10.4812,-9.20263 27.50045,-4.76147 32.07635,8.37029 1.87586,5.38328 1.86169,7.36665 -0.11214,15.7011 -2.698,11.3922 -5.29111,13.24526 -18.53494,13.24526 -4.95,0 -10.59093,-0.8338 -12.53541,-1.85288 z"
         id="path3523"
         inkscape:connector-curvature="0" />
      <path
         style="fill:#f2f2f2"
         d="m 188.16096,202.89368 c -5.14946,-2.65846 -9.70803,-17.50058 -7.68387,-25.01772 2.33886,-8.68589 8.95746,-13.97202 18.36474,-14.66751 9.61915,-0.71116 15.93123,2.66338 19.65324,10.50694 2.9656,6.24953 3.03878,9.77774 0.41125,19.8254 -2.39388,9.15414 -5.71806,11.20577 -18.1563,11.20577 -4.95,0 -10.61508,-0.8338 -12.58906,-1.85288 z"
         id="path3521"
         inkscape:connector-curvature="0" />
      <path
         style="fill:#f1f1f1"
         d="m 188.20885,202.89368 c -4.32892,-2.26508 -7.65577,-11.35449 -7.68625,-20.99992 -0.0656,-20.76473 29.27052,-26.51637 38.29091,-7.50731 2.40649,5.07131 2.4497,6.45333 0.50256,16.07308 -1.73323,8.56289 -2.82334,10.87536 -5.84819,12.40587 -4.77459,2.41585 -20.662,2.43363 -25.25903,0.0283 z"
         id="path3519"
         inkscape:connector-curvature="0" />
      <path
         style="fill:#f0f0f0"
         d="m 188.97968,202.83102 c -8.11418,-3.4667 -11.54301,-23.74124 -5.34722,-31.61791 6.69724,-8.51415 18.74101,-10.90833 27.5346,-5.47359 8.46425,5.23119 10.4109,12.52178 7.56829,28.34478 -0.99105,5.51656 -1.95737,6.87017 -6.15726,8.625 -6.07015,2.53627 -17.80523,2.5968 -23.59841,0.12172 z"
         id="path3517"
         inkscape:connector-curvature="0" />
      <path
         style="fill:#efefef"
         d="m 188.90104,202.79888 c -7.88671,-3.36689 -11.1925,-22.8747 -5.28276,-31.17417 6.01379,-8.44559 16.52623,-11.09725 25.90505,-6.53431 9.60641,4.67368 12.17962,12.75973 9.22671,28.9939 -1.00226,5.51011 -1.97697,6.87222 -6.17195,8.625 -6.10032,2.54887 -17.8125,2.59318 -23.67705,0.0896 z"
         id="path3515"
         inkscape:connector-curvature="0" />
      <path
         style="fill:#eeeeee"
         d="m 188.56779,202.63554 c -4.8479,-2.10992 -5.77378,-4.3516 -7.55069,-18.28116 -3.01254,-23.61591 31.08083,-29.74214 38.60711,-6.9373 1.27844,3.87373 1.24763,6.84622 -0.12572,12.12758 -1.00058,3.84787 -2.11215,8.12096 -2.47015,9.49576 -1.40157,5.38233 -19.19096,7.62948 -28.46055,3.59512 z"
         id="path3513"
         inkscape:connector-curvature="0" />
      <path
         style="fill:#ededed"
         d="m 190.04834,203.2466 c -3.86888,-1.19462 -5.13092,-2.76408 -7.125,-8.86063 -3.20237,-9.79067 -3.05078,-16.29773 0.51595,-22.14736 8.76089,-14.36833 30.7281,-11.35586 36.11016,4.95196 1.18761,3.59848 1.14198,6.62899 -0.17132,11.37759 -0.98455,3.55994 -1.8099,7.31357 -1.8341,8.3414 -0.13791,5.85624 -16.69463,9.67213 -27.49569,6.33704 z"
         id="path3511"
         inkscape:connector-curvature="0" />
      <path
         style="fill:#ececec"
         d="m 191.48395,203.83317 c -9.32754,-2.06334 -14.19303,-21.51043 -7.94548,-31.75764 8.87087,-14.54997 31.17283,-10.90704 36.01916,5.88357 1.56192,5.41143 -1.63234,19.52179 -5.3382,23.58106 -1.87911,2.05832 -16.93294,3.57659 -22.73548,2.29301 z"
         id="path3509"
         inkscape:connector-curvature="0" />
      <path
         style="fill:#ebebeb"
         d="m 191.48395,203.74646 c -9.1085,-1.77307 -14.21519,-21.38838 -8.15541,-31.32572 5.05966,-8.29727 17.02687,-11.85025 25.37451,-7.53352 10.37748,5.3664 13.47337,14.00482 9.66259,26.96137 -2.21129,7.51832 -3.36176,9.206 -7.44244,10.91762 -4.62281,1.93901 -12.47891,2.33517 -19.43925,0.98025 z"
         id="path3507"
         inkscape:connector-curvature="0" />
      <path
         style="fill:#eaeaea"
         d="m 190.50031,203.0058 c -4.99143,-1.81836 -10.00029,-11.97969 -10.00029,-20.28732 0,-13.56382 15.96862,-24.16569 27.47361,-18.24025 11.15105,5.74315 14.39463,14.52271 10.24077,27.71917 -2.4246,7.70273 -3.44022,9.07432 -7.87401,10.63373 -6.20178,2.18123 -14.14017,2.25112 -19.84008,0.17467 z"
         id="path3505"
         inkscape:connector-curvature="0" />
      <path
         style="fill:#e9e9e9"
         d="m 191.29437,203.09172 c -9.299,-2.68051 -13.87832,-20.70687 -7.77071,-30.58919 10.35747,-16.75873 36.83724,-9.26679 36.26442,10.26032 -0.31538,10.75092 -3.76057,18.02822 -9.50064,20.06828 -5.98935,2.12866 -12.21615,2.21409 -18.99307,0.26059 z"
         id="path3503"
         inkscape:connector-curvature="0" />
      <path
         style="fill:#e8e8e8"
         d="m 191.43287,203.12761 c -8.97541,-2.59475 -13.91642,-20.51017 -8.30785,-30.12314 2.80117,-4.80114 11.73761,-10.21368 16.86342,-10.21368 10.47682,0 19.81457,9.4455 19.67998,19.9071 -0.1372,10.66544 -3.58962,18.07495 -9.38098,20.13324 -5.95648,2.11697 -12.21684,2.21542 -18.85457,0.29648 z"
         id="path3501"
         inkscape:connector-curvature="0" />
      <path
         style="fill:#e7e7e7"
         d="m 191.17878,202.83113 c -4.08446,-1.44197 -5.64316,-3.24971 -8.0105,-9.29034 -4.12756,-10.53208 -2.9146,-18.06744 3.9159,-24.32713 2.8981,-2.65591 7.0509,-5.27609 9.22845,-5.82262 6.29726,-1.58051 15.14207,1.88497 19.54544,7.65808 3.34185,4.38139 3.82475,6.24451 3.19497,12.3266 -1.45999,14.09966 -2.96985,17.51195 -8.60857,19.45541 -2.85694,0.98468 -7.21945,1.79033 -9.69445,1.79033 -2.475,0 -6.78206,-0.80565 -9.57124,-1.79033 z"
         id="path3499"
         inkscape:connector-curvature="0" />
      <path
         style="fill:#e6e6e6"
         d="m 191.17878,202.90503 c -4.05508,-1.49069 -5.66019,-3.36705 -8.0105,-9.36424 -3.78697,-9.66302 -2.85041,-17.58006 2.77417,-23.45085 8.96024,-9.35248 22.4038,-8.88932 29.9716,1.03258 3.30356,4.33118 3.76337,6.15407 3.09078,12.2532 -1.34022,12.15343 -2.75368,16.94271 -5.42171,18.37059 -4.57994,2.45112 -17.1239,3.09987 -22.40434,1.15872 z"
         id="path3497"
         inkscape:connector-curvature="0" />
      <path
         style="fill:#e5e5e5"
         d="m 192.73605,203.36269 c -6.24989,-1.55793 -6.70995,-2.08583 -9.98779,-11.46046 -3.57166,-10.21493 -2.23599,-16.9944 4.51616,-22.92287 6.80494,-5.97481 13.80081,-7.24744 21.01686,-3.8232 10.23994,4.85917 13.61376,15.37294 9.09745,28.35021 -1.14187,3.28106 -3.32545,6.79204 -4.85242,7.80215 -3.82175,2.52818 -13.75323,3.55903 -19.79026,2.05417 z"
         id="path3495"
         inkscape:connector-curvature="0" />
      <path
         style="fill:#e4e4e4"
         d="m 192.01341,202.68118 c -3.15514,-1.16249 -5.86872,-2.34464 -6.03018,-2.627 -1.68515,-2.94708 -4.52335,-12.08789 -5.04974,-16.26339 -1.33243,-10.56937 11.1864,-22.10567 21.91083,-20.19119 14.13928,2.52408 19.92261,14.42418 14.53441,29.90677 -1.14187,3.28106 -3.32545,6.79204 -4.85242,7.80215 -4.55907,3.01593 -14.28621,3.66684 -20.5129,1.37266 z"
         id="path3493"
         inkscape:connector-curvature="0" />
      <path
         style="fill:#e3e3e3"
         d="m 192.51756,202.86534 c -3.91992,-1.36687 -6.06124,-3.51775 -8.53646,-8.57455 -5.41302,-11.05867 -3.80906,-19.98457 4.80939,-26.76384 6.05167,-4.76025 11.67343,-5.33486 19.27902,-1.97054 7.51865,3.32585 11.44374,9.18699 11.40793,17.03489 -0.0314,6.87918 -3.63003,16.5337 -6.95113,18.64867 -4.40844,2.80741 -14.31177,3.61189 -20.00875,1.62537 z"
         id="path3491"
         inkscape:connector-curvature="0" />
      <path
         style="fill:#e2e2e2"
         d="m 194.61908,203.37271 c -6.74751,-1.6074 -7.71681,-2.48992 -11.07635,-10.08473 -4.64741,-10.50624 -3.84579,-16.16088 3.42204,-24.13904 10.97233,-12.04474 32.58818,-3.10766 32.51267,13.44236 -0.0314,6.88904 -3.63373,16.54079 -6.95113,18.62438 -3.88158,2.43794 -12.41375,3.46569 -17.90723,2.15703 z"
         id="path3489"
         inkscape:connector-curvature="0" />
      <path
         style="fill:#e1e1e1"
         d="m 194.20911,203.28886 c -6.21092,-1.46255 -8.06456,-3.41035 -11.35116,-11.92778 -4.60657,-11.93822 0.99789,-23.93484 12.64706,-27.07163 11.70357,-3.15145 24.02579,6.19254 23.97243,18.17839 -0.0312,6.99702 -3.60992,16.64929 -6.95113,18.74784 -3.97287,2.49528 -12.45014,3.45476 -18.3172,2.07318 z"
         id="path3487"
         inkscape:connector-curvature="0" />
      <path
         style="fill:#e0e0e0"
         d="m 194.38426,203.29136 c -6.75206,-1.55126 -8.32211,-3.19493 -11.504,-12.04349 -2.29399,-6.37937 -2.48566,-8.69017 -1.10345,-13.30356 4.92369,-16.43384 25.20968,-19.142 35.16705,-4.69476 5.4086,7.84739 0.59025,27.63691 -7.12038,29.24423 -8.38542,1.74797 -10.76701,1.871 -15.43922,0.79758 z"
         id="path3485"
         inkscape:connector-curvature="0" />
      <path
         style="fill:#dfdfdf"
         d="m 188.6156,201.15313 c -1.67857,-1.17572 -4.30831,-5.83384 -5.84387,-10.35138 -2.52737,-7.43538 -2.58456,-8.75857 -0.60355,-13.96349 7.23921,-19.02039 37.33184,-14.9563 37.33184,5.04176 0,7.8751 -4.52225,18.49348 -8.52417,20.01501 -5.56801,2.11695 -18.91071,1.67425 -22.36025,-0.7419 z m 9.13442,-24.86234 c 0.50988,-0.825 -0.16512,-1.5 -1.5,-1.5 -1.33488,0 -2.00988,0.675 -1.5,1.5 0.50988,0.825 1.18488,1.5 1.5,1.5 0.31512,0 0.99012,-0.675 1.5,-1.5 z"
         id="path3483"
         inkscape:connector-curvature="0" />
      <path
         style="fill:#dedede"
         d="m 188.56282,201.11616 c -1.70759,-1.19604 -4.2438,-5.79608 -5.63602,-10.2223 -2.16426,-6.88075 -2.25185,-8.89561 -0.60404,-13.89553 4.16483,-12.6373 20.26098,-16.93243 30.32859,-8.09296 6.79529,5.96634 8.12358,12.57897 4.70514,23.4235 -1.89558,6.01348 -3.5268,8.48113 -6.3045,9.53721 -5.68203,2.1603 -18.9667,1.71731 -22.48917,-0.74992 z m 9.9372,-24.82537 c 0,-0.825 -1.0125,-1.5 -2.25,-1.5 -1.2375,0 -2.25,0.675 -2.25,1.5 0,0.825 1.0125,1.5 2.25,1.5 1.2375,0 2.25,-0.675 2.25,-1.5 z"
         id="path3481"
         inkscape:connector-curvature="0" />
      <path
         style="fill:#dddddd"
         d="m 189.92272,201.76169 c -7.02377,-2.82643 -10.51382,-21.6219 -5.44995,-29.35034 3.34037,-5.09806 9.63083,-8.12056 16.90057,-8.12056 7.88948,0 16.0847,6.83562 17.54824,14.63698 1.43605,7.65476 -3.31221,21.2056 -8.06349,23.01203 -4.46075,1.69597 -16.53346,1.59327 -20.93537,-0.17811 z m 8.2898,-25.5834 c -0.29563,-0.88688 -1.17875,-1.6125 -1.9625,-1.6125 -0.78375,0 -1.66688,0.72562 -1.9625,1.6125 -0.29563,0.88687 0.5875,1.6125 1.9625,1.6125 1.375,0 2.25813,-0.72563 1.9625,-1.6125 z"
         id="path3479"
         inkscape:connector-curvature="0" />
      <path
         style="fill:#dcdcdc"
         d="m 190.5966,202.25133 c -3.97185,-1.03503 -8.59658,-11.36602 -8.59658,-19.20356 0,-11.67739 7.31222,-18.75698 19.37332,-18.75698 7.82444,0 16.08554,6.84007 17.52442,14.50998 1.38286,7.37128 -3.28248,20.72814 -7.98903,22.87259 -3.49975,1.59459 -15.1399,1.92581 -20.31213,0.57797 z m 7.90342,-26.79907 c 0,-1.18881 -1.0125,-2.16147 -2.25,-2.16147 -2.25935,0 -3.08351,3.16649 -1.29078,4.95922 1.39986,1.39986 3.54078,-0.29178 3.54078,-2.79775 z"
         id="path3477"
         inkscape:connector-curvature="0" />
      <path
         style="fill:#dbdbdb"
         d="m 190.5966,202.25133 c -7.47114,-1.94691 -11.2773,-22.48271 -5.6355,-30.40588 8.87353,-12.46172 31.12875,-8.0121 33.90349,6.77852 1.33538,7.11817 -3.43206,20.98821 -7.9164,23.03141 -3.53225,1.6094 -15.15633,1.94979 -20.35159,0.59595 z m 7.90342,-26.79907 c 0,-1.18881 -1.0125,-2.16147 -2.25,-2.16147 -2.25935,0 -3.08351,3.16649 -1.29078,4.95922 1.39986,1.39986 3.54078,-0.29178 3.54078,-2.79775 z"
         id="path3475"
         inkscape:connector-curvature="0" />
      <path
         style="fill:#dadada"
         d="m 190.01515,201.52257 c -1.77919,-0.86084 -4.31044,-4.38148 -5.625,-7.82362 -4.79307,-12.55047 -2.01037,-22.61115 7.50266,-27.12538 11.06283,-5.24966 22.87259,-0.17049 26.31444,11.31738 2.04299,6.81889 -1.64508,19.63556 -6.66127,23.14903 -3.68003,2.57759 -16.60231,2.86723 -21.53083,0.48259 z m 9.00888,-24.43374 c 1.01174,-2.63657 -1.32461,-4.38739 -4.32055,-3.23774 -2.54094,0.97505 -1.27161,5.4397 1.54654,5.4397 1.06097,0 2.30927,-0.99088 2.77401,-2.20196 z"
         id="path3473"
         inkscape:connector-curvature="0" />
      <path
         style="fill:#d9d9d9"
         d="m 190.01515,201.52257 c -3.77274,-1.82541 -8.01513,-11.90881 -8.01513,-19.05049 0,-11.10811 9.93831,-19.25505 21.58386,-17.69339 7.32735,0.98259 13.76877,7.28593 15.1906,14.86497 1.24446,6.63351 -3.66505,19.26637 -8.45271,21.75002 -4.29526,2.22821 -15.81665,2.30134 -20.30662,0.12889 z m 9.61031,-24.85599 c 0.82014,-2.46319 -3.87972,-4.22151 -5.89557,-2.20566 -0.86266,0.86266 -1.09185,2.33966 -0.50932,3.28222 1.32533,2.14443 5.56998,1.43097 6.40489,-1.07656 z"
         id="path3471"
         inkscape:connector-curvature="0" />
      <path
         style="fill:#d8d8d8"
         d="m 190.01515,201.52257 c -3.77274,-1.82541 -8.01513,-11.90881 -8.01513,-19.05049 0,-9.94351 8.66757,-18.18129 19.12987,-18.18129 6.71481,0 14.27714,5.86352 16.76307,12.99741 1.95771,5.61803 1.87974,6.84559 -0.90199,14.2011 -1.89999,5.02397 -4.39787,8.74821 -6.64295,9.90438 -4.32675,2.22817 -15.84324,2.30118 -20.33287,0.12889 z m 9.61031,-24.85599 c 0.82014,-2.46319 -3.87972,-4.22151 -5.89557,-2.20566 -0.86266,0.86266 -1.09185,2.33966 -0.50932,3.28222 1.32533,2.14443 5.56998,1.43097 6.40489,-1.07656 z"
         id="path3469"
         inkscape:connector-curvature="0" />
      <path
         style="fill:#d7d7d7"
         d="m 191.00002,201.35206 c -4.91081,-2.48095 -8.83787,-10.71001 -8.92795,-18.7083 -0.0585,-5.19529 0.85344,-7.40691 4.85447,-11.77279 9.89367,-10.79586 26.14153,-7.42879 30.96642,6.41723 1.95771,5.61803 1.87974,6.84559 -0.90199,14.2011 -1.89999,5.02397 -4.39787,8.74821 -6.64295,9.90438 -4.65232,2.39584 -14.56549,2.37451 -19.348,-0.0416 z m 8.68141,-25.26475 c 0.54838,-2.84751 -2.86127,-4.53946 -5.66101,-2.80913 -2.72257,1.68264 -0.62005,6.34806 2.58284,5.73124 1.43677,-0.27669 2.82195,-1.59165 3.07817,-2.92211 z"
         id="path3467"
         inkscape:connector-curvature="0" />
      <path
         style="fill:#d6d6d6"
         d="m 191.00002,201.35206 c -8.3331,-4.20989 -11.7944,-21.10419 -5.86756,-28.63895 3.9475,-5.01843 10.44271,-8.42232 16.07125,-8.42232 6.25071,0 14.0809,5.85479 16.56736,12.38776 1.91339,5.02725 1.83652,6.45843 -0.76346,14.21512 -1.98471,5.9211 -4.04577,9.2094 -6.57433,10.48898 -4.75279,2.40515 -14.64275,2.38958 -19.43326,-0.0306 z m 8.70431,-25.62719 c -0.28883,-2.02428 -1.53957,-3.18408 -3.43377,-3.18408 -3.4321,0 -5.04433,5.0357 -2.17916,6.80648 3.00186,1.85525 6.10843,-0.14963 5.61293,-3.6224 z"
         id="path3465"
         inkscape:connector-curvature="0" />
      <path
         style="fill:#d5d5d5"
         d="m 191.44299,201.76919 c -4.45358,-1.79305 -9.44297,-11.99249 -9.44297,-19.30356 0,-20.37715 30.69451,-24.37791 35.99546,-4.69169 2.0732,7.69926 -2.15839,20.86334 -7.59255,23.61974 -4.19892,2.12984 -14.11475,2.32623 -18.95994,0.37551 z m 8.26134,-26.04432 c -0.28883,-2.02428 -1.53957,-3.18408 -3.43377,-3.18408 -3.4321,0 -5.04433,5.0357 -2.17916,6.80648 3.00186,1.85525 6.10843,-0.14963 5.61293,-3.6224 z"
         id="path3463"
         inkscape:connector-curvature="0" />
      <path
         style="fill:#d4d4d4"
         d="m 191.44299,201.76919 c -4.45358,-1.79305 -9.44297,-11.99249 -9.44297,-19.30356 0,-20.26104 30.72472,-24.26573 35.99546,-4.69169 2.0732,7.69926 -2.15839,20.86334 -7.59255,23.61974 -4.19892,2.12984 -14.11475,2.32623 -18.95994,0.37551 z m 7.80703,-25.4784 c 0,-4.27594 -4.73441,-6.08896 -6.16502,-2.36086 -1.36469,3.55634 0.56625,7.148 3.53548,6.57618 1.66054,-0.31979 2.62954,-1.87316 2.62954,-4.21532 z"
         id="path3461"
         inkscape:connector-curvature="0" />
      <path
         style="fill:#d3d3d3"
         d="m 191.44299,201.76919 c -4.45358,-1.79305 -9.44297,-11.99249 -9.44297,-19.30356 0,-14.81442 18.55881,-22.99644 30.62789,-13.5029 5.84354,4.59653 7.38777,12.43823 4.35993,22.13996 -2.07705,6.65523 -3.37761,8.42187 -7.45376,10.125 -5.538,2.31392 -13.12472,2.54101 -18.09109,0.5415 z m 8.55703,-23.2284 c 1.48978,-1.79507 1.48978,-2.70493 0,-4.5 -4.07645,-4.91182 -10.12192,-1.46956 -7.24453,4.125 1.65593,3.21968 4.75071,3.37987 7.24453,0.375 z"
         id="path3459"
         inkscape:connector-curvature="0" />
      <path
         style="fill:#d2d2d2"
         d="m 192.5113,201.95131 c -5.8817,-1.63682 -10.7625,-11.40104 -10.03954,-20.08447 1.77044,-21.26448 30.68528,-23.33128 36.0393,-2.57605 0.53849,2.0875 -0.14246,7.3241 -1.53597,11.8119 -2.06841,6.6613 -3.36114,8.42032 -7.44101,10.125 -5.23831,2.1887 -10.89421,2.42913 -17.02278,0.72362 z m 7.33093,-23.2204 c 2.46507,-2.97022 0.41025,-6.94012 -3.59221,-6.94012 -4.00246,0 -6.05728,3.9699 -3.59221,6.94012 2.18056,2.62742 5.00386,2.62742 7.18442,0 z"
         id="path3457"
         inkscape:connector-curvature="0" />
      <path
         style="fill:#d1d1d1"
         d="m 192.5113,201.95131 c -4.7864,-1.33201 -10.45426,-11.23029 -10.4866,-18.3137 -0.0558,-12.21465 12.30455,-21.52069 23.9498,-18.03169 11.20843,3.35813 15.50167,15.98653 9.76207,28.7147 -3.58846,7.95779 -12.05462,10.73935 -23.22527,7.63069 z m 8.23446,-24.1471 c 1.27963,-4.03176 -0.2019,-6.01342 -4.49574,-6.01342 -4.29384,0 -5.77537,1.98166 -4.49574,6.01342 0.59451,1.87313 2.27061,2.98658 4.49574,2.98658 2.22513,0 3.90123,-1.11345 4.49574,-2.98658 z"
         id="path3455"
         inkscape:connector-curvature="0" />
      <path
         style="fill:#d0d0d0"
         d="m 191.60567,201.15147 c -5.01661,-2.18396 -9.61027,-11.04397 -9.60004,-18.51603 0.014,-10.25909 11.60749,-19.59531 21.92851,-17.65908 6.30369,1.18258 14.01186,8.79126 14.23861,14.05481 0.28495,6.61438 -0.27491,9.73128 -2.7985,15.58013 -3.54575,8.21788 -13.57551,10.97767 -23.76858,6.54017 z m 9.61038,-24.38419 c 0.60431,-4.24487 -4.85325,-7.55987 -8.06191,-4.89691 -2.28425,1.89575 -2.8696,6.20494 -1.08526,7.98928 2.33664,2.33664 8.67955,0.1923 9.14717,-3.09237 z"
         id="path3453"
         inkscape:connector-curvature="0" />
      <path
         style="fill:#cfcfcf"
         d="m 191.60567,201.15147 c -4.93412,-2.14805 -9.60565,-11.00683 -9.60565,-18.21552 0,-10.28612 12.0193,-19.7663 22.42249,-17.68566 7.59465,1.51893 13.57751,8.56076 13.57751,15.98073 0,9.82494 -4.02735,18.60153 -9.39427,20.47245 -6.00597,2.09369 -11.31914,1.92117 -17.00008,-0.552 z m 9.43015,-22.81456 c 1.24087,-3.23367 -1.42385,-7.29612 -4.7858,-7.29612 -3.36195,0 -6.02667,4.06245 -4.7858,7.29612 1.23136,3.20887 8.34024,3.20887 9.5716,0 z"
         id="path3451"
         inkscape:connector-curvature="0" />
      <path
         style="fill:#cecece"
         d="m 192.00031,201.5058 c -4.57481,-1.66658 -10.00029,-11.79233 -10.00029,-18.66386 0,-17.15556 26.10969,-24.32589 33.87797,-9.30368 2.79636,5.40755 2.68373,12.43143 -0.32568,20.31147 -2.02052,5.29064 -3.39492,6.67234 -7.875,7.91678 -6.58504,1.82914 -10.1008,1.77067 -15.677,-0.26071 z m 9.49971,-25.08412 c 0,-3.83803 -3.7548,-6.56957 -7.42802,-5.40374 -3.82402,1.2137 -4.14424,7.52371 -0.48571,9.57113 3.37129,1.88667 7.91373,-0.50539 7.91373,-4.16739 z"
         id="path3449"
         inkscape:connector-curvature="0" />
      <path
         style="fill:#cdcdcd"
         d="m 192.93287,201.69303 c -3.70946,-1.12276 -5.52029,-3.04761 -7.875,-8.37081 -1.68182,-3.80203 -3.05785,-8.60356 -3.05785,-10.67006 0,-6.34 5.51506,-13.42805 12.53365,-16.10847 5.88925,-2.24913 6.90333,-2.25382 12.39271,-0.0574 6.95978,2.78475 11.07364,8.81336 11.07364,16.22776 0,5.83133 -3.26429,14.68387 -6.36276,17.25537 -2.97418,2.46835 -13.14681,3.40576 -18.70439,1.72362 z m 6.76715,-21.20224 c 3.20387,-3.20387 2.16091,-8.55226 -1.86475,-9.56264 -4.70744,-1.18149 -6.83525,0.18859 -6.83525,4.40117 0,3.5902 2.54244,6.96147 5.25,6.96147 0.9075,0 2.46,-0.81 3.45,-1.8 z"
         id="path3447"
         inkscape:connector-curvature="0" />
      <path
         style="fill:#cccccc"
         d="m 192.93287,201.69303 c -3.70946,-1.12276 -5.52029,-3.04761 -7.875,-8.37081 -3.71318,-8.39427 -3.79886,-11.26649 -0.54087,-18.13218 3.48221,-7.33821 13.38588,-11.82403 20.74366,-9.39574 7.33076,2.41937 12.73936,9.39418 12.73936,16.42839 0,6.25571 -3.16982,15.09681 -6.36276,17.74672 -2.97418,2.46835 -13.14681,3.40576 -18.70439,1.72362 z m 6.46723,-20.55021 c 4.83935,-3.23202 2.62745,-10.85203 -3.15008,-10.85203 -3.93823,0 -6.81678,3.87429 -5.57239,7.5 0.86106,2.50884 3.29468,4.45406 5.57239,4.45406 0.825,0 2.24254,-0.49591 3.15008,-1.10203 z"
         id="path3445"
         inkscape:connector-curvature="0" />
      <path
         style="fill:#cbcbcb"
         d="m 193.14398,201.74773 c -6.12659,-1.8666 -11.99516,-13.69936 -10.5678,-21.30781 1.09744,-5.84989 7.0792,-12.0618 13.67384,-14.19995 10.28087,-3.33332 21.75,5.09463 21.75,15.98272 0,6.25571 -3.16982,15.09681 -6.36276,17.74672 -2.93388,2.4349 -13.1225,3.41465 -18.49328,1.77832 z m 8.35604,-22.45694 c 3.37376,-6.30392 -5.10856,-12.29144 -10.2,-7.2 -2.44464,2.44464 -2.26138,5.02434 0.55714,7.84286 3.24981,3.2498 7.71903,2.95186 9.64286,-0.64286 z"
         id="path3443"
         inkscape:connector-curvature="0" />
      <path
         style="fill:#cacaca"
         d="m 194.75002,202.24382 c -4.43438,-1.12743 -7.51463,-4.33267 -10.47706,-10.90215 -5.50344,-12.20446 1.72453,-23.86645 15.61967,-25.20159 7.04422,-0.67686 7.87584,-0.38084 12.82013,4.56345 4.34679,4.34679 5.28726,6.39181 5.28726,11.49702 0,5.65739 -4.30494,16.90852 -7.10357,18.56544 -2.10117,1.24399 -13.10493,2.25113 -16.14643,1.47783 z m 7.0519,-23.76662 c 1.48594,-3.26127 1.27811,-4.27306 -1.435,-6.98617 -3.02539,-3.0254 -3.35108,-3.05564 -7.01974,-0.65184 -4.22924,2.77111 -4.61597,4.21229 -2.29438,8.55021 2.30384,4.30477 8.61619,3.76908 10.74912,-0.9122 z"
         id="path3441"
         inkscape:connector-curvature="0" />
      <path
         style="fill:#c9c9c9"
         d="m 194.80643,201.98336 c -8.48835,-1.81949 -15.08562,-16.79236 -11.07441,-25.13399 2.92611,-6.08509 11.08433,-11.05858 18.13982,-11.05858 4.74185,0 6.94878,1.0206 11.02818,5.1 4.15742,4.15742 5.1,6.24768 5.1,11.30976 0,9.5482 -4.80556,17.61754 -11.61862,19.50961 -3.09726,0.86014 -5.96888,1.4878 -6.38138,1.39479 -0.4125,-0.093 -2.74962,-0.59772 -5.19359,-1.12159 z m 6.39359,-21.49257 c 4.37062,-4.37062 -1.12041,-12.87959 -7.08902,-10.98522 -3.79309,1.20388 -5.63681,7.49178 -3.09481,10.5547 2.22918,2.68601 7.69719,2.91716 10.18383,0.43052 z"
         id="path3439"
         inkscape:connector-curvature="0" />
      <path
         style="fill:#c8c8c8"
         d="m 195.15802,202.21959 c -4.84899,-0.73671 -9.5233,-6.21229 -11.80532,-13.82901 -3.34711,-11.17164 6.08263,-22.58196 18.67232,-22.59418 8.42682,-0.008 15.975,7.74277 15.975,16.40415 0,9.5482 -4.80556,17.61754 -11.61862,19.50961 -3.09726,0.86014 -5.96888,1.46653 -6.38138,1.34752 -0.4125,-0.11901 -2.5914,-0.49615 -4.842,-0.83809 z m 6.32583,-22.15932 c 2.28966,-2.75887 0.79047,-9.56651 -2.37418,-10.7809 -1.26553,-0.48563 -3.94541,-0.13369 -5.9553,0.78207 -3.9782,1.81259 -4.95837,7.32533 -1.85435,10.42935 2.48664,2.48664 7.95465,2.25549 10.18383,-0.43052 z"
         id="path3437"
         inkscape:connector-curvature="0" />
      <path
         style="fill:#c7c7c7"
         d="m 194.00002,201.33113 c -4.04437,-1.3792 -6.08431,-3.47368 -8.88305,-9.12056 -3.40619,-6.87251 -3.49985,-7.70697 -1.5,-13.36411 2.68811,-7.60403 8.12111,-11.66923 16.92118,-12.66112 6.33995,-0.71461 7.29673,-0.35969 12.17136,4.51494 4.35008,4.35008 5.29051,6.39434 5.29051,11.50027 0,9.5482 -4.80556,17.61754 -11.61862,19.50961 -6.63871,1.84365 -5.78713,1.86971 -12.38138,-0.37903 z m 8.74015,-24.9198 c 0.62987,-4.22233 -2.21239,-7.62054 -6.37382,-7.62054 -7.03609,0 -9.43781,8.52875 -3.5609,12.6451 2.81207,1.96965 3.76359,2.01266 6.375,0.28816 1.68826,-1.11488 3.29014,-3.50561 3.55972,-5.31272 z"
         id="path3435"
         inkscape:connector-curvature="0" />
      <path
         style="fill:#c6c6c6"
         d="m 194.00002,201.29501 c -4.00504,-1.33823 -6.07266,-3.41183 -8.71914,-8.74434 -3.01417,-6.07341 -3.25866,-7.77176 -1.86423,-12.95027 0.8827,-3.27808 2.61256,-6.79642 3.84414,-7.81854 1.90243,-1.57888 2.23923,-1.17005 2.23923,2.71812 0,4.68612 3.25643,9.29081 6.57045,9.29081 7.40073,0 9.30484,-11.13043 2.48294,-14.51391 -3.19558,-1.58492 -3.34653,-1.96775 -1.11371,-2.82457 8.80122,-3.37734 20.58723,5.56726 20.52738,15.57857 -0.0422,7.04893 -4.87145,17.74603 -8.45382,18.72554 -7.4588,2.03942 -10.68626,2.15147 -15.51324,0.53859 z"
         id="path3433"
         inkscape:connector-curvature="0" />
      <path
         style="fill:#c5c5c5"
         d="m 189.60985,199.16579 c -7.20923,-5.87248 -8.49401,-21.36059 -2.25724,-27.21107 2.37341,-2.2264 2.50178,-2.20899 1.65245,0.2241 -2.38626,6.83585 4.75095,13.45366 10.9383,10.14229 4.10291,-2.19581 4.13785,-9.82969 0.0567,-12.37843 -4.87669,-3.04554 -3.44918,-4.60713 3.375,-3.69201 8.20167,1.09985 14.625,7.77107 14.625,15.18943 0,6.49312 -4.93481,18.12097 -8.22655,19.38413 -5.13416,1.97016 -16.89673,1.0027 -20.16362,-1.65844 z"
         id="path3431"
         inkscape:connector-curvature="0" />
      <path
         style="fill:#c4c4c4"
         d="m 190.62499,200.17062 c -6.52288,-3.79922 -9.50057,-19.86287 -4.82726,-26.04152 2.15223,-2.84551 2.20229,-2.83699 2.20229,0.375 0,4.09266 5.01434,9.28669 8.96542,9.28669 1.63098,0 4.01679,-1.60459 5.30179,-3.56575 1.9092,-2.91381 2.00863,-4.28507 0.54381,-7.5 -0.98591,-2.16384 -2.73655,-3.93425 -3.89032,-3.93425 -1.15376,0 -1.68058,-0.675 -1.1707,-1.5 1.34492,-2.17612 6.24127,-1.84011 11.2991,0.77539 4.92846,2.54861 8.9509,9.18868 8.9509,14.77576 0,5.32879 -5.26964,16.84762 -8.22655,17.98229 -3.86384,1.48269 -16.20385,1.06149 -19.14848,-0.65361 z"
         id="path3429"
         inkscape:connector-curvature="0" />
      <path
         style="fill:#c3c3c3"
         d="m 190.61065,200.1626 c -5.69162,-3.31436 -9.48008,-20.90236 -5.38456,-24.99788 1.30143,-1.30143 2.31625,-0.54492 4.125,3.075 3.23224,6.46881 9.41145,7.33415 13.02208,1.82363 2.19168,-3.34493 2.27683,-4.43954 0.59045,-7.59057 -1.08379,-2.02509 -2.53148,-3.68199 -3.21707,-3.68199 -0.68559,0 -1.24653,-0.675 -1.24653,-1.5 0,-2.22468 5.53424,-1.8179 10.5491,0.77539 4.90676,2.53739 8.9509,9.18331 8.9509,14.70944 0,5.08148 -5.51506,17.00812 -8.37172,18.10432 -3.75213,1.43982 -16.11397,0.97354 -19.01765,-0.71734 z"
         id="path3427"
         inkscape:connector-curvature="0" />
      <path
         style="fill:#c2c2c2"
         d="m 190.61065,200.1626 c -6.06513,-3.53186 -9.1563,-19.0938 -4.90834,-24.71012 2.16249,-2.85906 2.20316,-2.85489 2.25,0.23083 0.10628,7.00054 9.3827,10.5385 14.06523,5.36437 3.32955,-3.67912 3.12683,-7.11254 -0.64252,-10.88189 -4.21061,-4.21061 -2.6382,-5.22833 4.68706,-3.03362 6.75153,2.0228 11.92283,8.67221 11.93233,15.34294 0.008,5.32023 -5.42759,17.27721 -8.36611,18.40483 -3.75213,1.43982 -16.11397,0.97354 -19.01765,-0.71734 z"
         id="path3425"
         inkscape:connector-curvature="0" />
      <path
         style="fill:#c1c1c1"
         d="m 191.33492,200.784 c -2.887,-1.16069 -7.8349,-11.77704 -7.8349,-16.81077 0,-8.73036 3.38208,-12.3408 5.11023,-5.45529 1.02551,4.08595 6.18983,6.17325 11.27803,4.55832 4.33086,-1.37457 5.52551,-7.41746 2.40724,-12.17654 -3.27686,-5.00112 -2.25647,-5.82375 4.47009,-3.60379 6.19899,2.04586 11.22011,8.94543 11.2288,15.42962 0.007,5.36157 -5.1484,15.50693 -8.90068,17.51509 -2.95939,1.58381 -14.30725,1.93102 -17.75881,0.54336 z"
         id="path3423"
         inkscape:connector-curvature="0" />
      <path
         style="fill:#c0c0c0"
         d="m 191.33492,200.784 c -5.39522,-2.16909 -9.80918,-19.04879 -6.39349,-24.44977 1.58389,-2.50449 1.78416,-2.34649 4.22271,3.33156 1.44835,3.37242 2.72564,4.125 7.00095,4.125 3.63495,0 5.70282,-0.88463 6.78215,-2.90139 2.24527,-4.19531 1.90991,-8.52719 -0.87579,-11.3129 -3.3644,-3.36439 -2.11056,-3.96886 4.46594,-2.153 6.23358,1.72117 11.47023,8.53615 11.42408,14.86729 -0.0395,5.42151 -5.20214,15.98808 -8.73532,17.87898 -3.06571,1.64072 -14.37251,2.0289 -17.89123,0.61423 z"
         id="path3421"
         inkscape:connector-curvature="0" />
      <path
         style="fill:#bfbfbf"
         d="m 192.0966,200.75133 c -3.5592,-0.9275 -8.59658,-11.12391 -8.59658,-17.40078 0,-6.94376 1.50629,-7.85113 5.2465,-3.16046 3.45194,4.32915 9.65342,5.29598 13.49888,2.10453 2.87167,-2.38327 2.91586,-9.62831 0.0761,-12.46812 -3.01763,-3.01762 -1.44042,-4.00382 3.93686,-2.46163 6.38257,1.83049 8.47701,3.94437 10.45745,10.55449 1.43722,4.79701 1.2905,6.92232 -0.86812,12.57457 -1.42871,3.74104 -4.04159,7.81325 -5.8064,9.04937 -3.0298,2.12216 -12.0949,2.73242 -17.94463,1.20803 z"
         id="path3419"
         inkscape:connector-curvature="0" />
      <path
         style="fill:#bebebe"
         d="m 192.0966,200.75133 c -3.59788,-0.93758 -8.59658,-11.14959 -8.59658,-17.56226 0,-6.61688 1.99686,-7.90269 5.04596,-3.24917 7.0291,10.72777 20.48503,1.61991 14.40126,-9.74772 -1.32712,-2.47976 -1.04865,-2.90139 1.91624,-2.90139 5.35181,0 9.87196,4.01886 11.81523,10.5049 1.48102,4.94322 1.34668,6.99588 -0.83107,12.69824 -1.42871,3.74104 -4.04159,7.81325 -5.8064,9.04937 -3.0298,2.12216 -12.0949,2.73242 -17.94464,1.20803 z"
         id="path3417"
         inkscape:connector-curvature="0" />
      <path
         style="fill:#bdbdbd"
         d="m 191.58908,200.05556 c -5.59771,-2.71334 -9.72259,-14.76249 -7.25508,-21.19272 0.6437,-1.67746 1.81521,-1.1921 5.13462,2.12731 4.90943,4.90944 9.0589,5.47376 12.32092,1.67564 3.60454,-4.19694 4.11591,-7.22645 1.93074,-11.43837 -1.92,-3.70081 -1.83529,-3.93663 1.41415,-3.93663 4.6592,0 11.08143,6.70991 12.21728,12.76454 1.12289,5.9855 -3.60016,17.69252 -8.11199,20.10717 -3.75584,2.01007 -13.40379,1.95162 -17.65064,-0.10693 z"
         id="path3415"
         inkscape:connector-curvature="0" />
      <path
         style="fill:#bcbcbc"
         d="m 191.58908,200.05556 c -3.87326,-1.87746 -8.08906,-10.33461 -8.08906,-16.22714 0,-5.94399 1.90224,-6.6495 6.04343,-2.2414 5.29836,5.63984 11.21847,4.85002 14.81434,-1.97644 1.45178,-2.75609 1.37111,-4.30371 -0.41048,-7.875 -2.13369,-4.27708 -2.08792,-4.44479 1.21313,-4.44479 4.14766,0 10.68847,6.20158 11.9837,11.36218 1.33139,5.30466 -1.71158,15.34164 -5.93018,19.56025 -3.88883,3.88882 -13.53478,4.79437 -19.62488,1.84234 z"
         id="path3413"
         inkscape:connector-curvature="0" />
      <path
         style="fill:#bbbbbb"
         d="m 189.49495,197.51648 c -4.36473,-4.36472 -7.07408,-13.2499 -5.3836,-17.65522 0.80272,-2.09184 1.47756,-1.87311 4.59319,1.48871 4.42914,4.77911 10.14304,5.09325 14.44228,0.79402 3.06259,-3.06259 3.21948,-6.08101 0.63561,-12.2282 -1.74867,-4.16019 2.98018,-3.24159 8.44392,1.64027 4.00102,3.5749 4.77242,5.3351 4.76592,10.875 -0.01,8.17651 -3.91067,16.02277 -8.91174,17.92417 -7.26498,2.76214 -14.01582,1.73102 -18.58558,-2.83875 z"
         id="path3411"
         inkscape:connector-curvature="0" />
      <path
         style="fill:#bababa"
         d="m 193.03552,200.30342 c -6.0157,-2.42764 -11.28887,-14.27984 -9.00325,-20.23608 0.69733,-1.8172 1.57498,-1.53296 4.59664,1.4887 8.30391,8.30391 19.63091,1.9578 16.23793,-9.09752 -2.02887,-6.61067 0.58546,-6.95508 7.2941,-0.96091 5.6683,5.06463 6.50866,12.94148 2.32196,21.76428 -3.68285,7.76104 -12.49507,10.65423 -21.44738,7.04153 z"
         id="path3409"
         inkscape:connector-curvature="0" />
      <path
         style="fill:#b9b9b9"
         d="m 192.96247,200.2764 c -4.26596,-1.71834 -7.88276,-7.33224 -8.94633,-13.88626 -1.02164,-6.29565 1.10507,-8.10914 4.76589,-4.06398 3.52492,3.895 11.40966,3.89654 14.93334,0.003 2.06574,-2.28262 2.45892,-4.34624 1.71476,-9 -1.15415,-7.21764 0.2734,-7.60116 6.75077,-1.81363 3.81817,3.41153 4.7172,5.3603 4.671,10.125 -0.0801,8.25918 -4.14479,16.95576 -8.7419,18.70358 -4.6044,1.75059 -10.70119,1.72337 -15.14753,-0.0676 z"
         id="path3407"
         inkscape:connector-curvature="0" />
      <path
         style="fill:#b8b8b8"
         d="m 192.94299,200.26919 c -1.81886,-0.73229 -4.68761,-4.03761 -6.375,-7.34516 -5.06625,-9.93068 -3.66432,-16.1256 2.36701,-10.45946 4.20453,3.94995 10.15606,4.11378 14.26776,0.39274 2.53748,-2.29639 2.94546,-3.96029 2.2375,-9.1254 -0.82433,-6.0142 -0.7081,-6.25857 2.42556,-5.09936 8.67455,3.20893 11.30377,14.54496 5.85201,25.23129 -3.86323,7.57256 -11.79868,10.01924 -20.77484,6.40535 z"
         id="path3405"
         inkscape:connector-curvature="0" />
      <path
         style="fill:#b7b7b7"
         d="m 192.94299,200.26919 c -3.59714,-1.44824 -9.44297,-11.55767 -9.44297,-16.33012 0,-4.01035 2.23218,-5.13084 4.58167,-2.29987 3.65975,4.40972 7.40296,5.52192 12.0735,3.58732 4.67906,-1.93814 6.6548,-6.52815 5.47241,-12.71344 -0.98207,-5.13733 3.64954,-5.00011 7.76355,0.23 6.56762,8.34937 1.78883,26.23672 -7.50606,28.09569 -6.05553,1.21111 -8.82158,1.08938 -12.9421,-0.56958 z"
         id="path3403"
         inkscape:connector-curvature="0" />
      <path
         style="fill:#b6b6b6"
         d="m 194.00002,200.49437 c -5.26652,-1.40072 -11.54569,-13.99956 -9.29705,-18.65408 0.8767,-1.81473 1.63969,-2.47308 1.69553,-1.46302 0.11475,2.0758 7.74186,6.41352 11.27703,6.41352 4.3908,0 8.32449,-5.67054 8.32449,-12 0,-7.17757 2.75549,-7.94097 7.39113,-2.04771 6.20589,7.8895 2.37353,24.44187 -6.36425,27.48787 -4.91436,1.71316 -7.388,1.76318 -13.02688,0.26342 z"
         id="path3401"
         inkscape:connector-curvature="0" />
      <path
         style="fill:#b5b5b5"
         d="m 194.00002,200.49437 c -4.29577,-1.14253 -11.3917,-13.71627 -9.91396,-17.5672 0.78951,-2.05744 1.4138,-1.96095 4.86218,0.75155 4.91576,3.86673 9.66989,3.96194 14.21122,0.28459 2.73389,-2.21377 3.43837,-4.16726 3.24565,-9 -0.28292,-7.09493 1.22372,-7.68007 6.41309,-2.4907 7.02318,7.02318 3.36293,24.56716 -5.7913,27.75834 -4.91436,1.71316 -7.388,1.76318 -13.02688,0.26342 z"
         id="path3399"
         inkscape:connector-curvature="0" />
      <path
         style="fill:#b4b4b4"
         d="m 194.33807,200.72735 c -3.77585,-0.72474 -7.29947,-5.29418 -9.1591,-11.87752 -1.92021,-6.79785 -0.55434,-8.57206 3.90112,-5.0674 5.17032,4.06697 10.28077,3.78388 14.88945,-0.82479 3.17744,-3.17744 3.66734,-4.71702 2.86385,-9 -1.16665,-6.21876 0.77043,-6.69941 5.98481,-1.48503 7.02318,7.02318 3.36293,24.56716 -5.7913,27.75834 -4.54767,1.58533 -6.59775,1.66553 -12.68883,0.4964 z"
         id="path3397"
         inkscape:connector-curvature="0" />
      <path
         style="fill:#b3b3b3"
         d="m 193.21366,199.74716 c -5.12277,-2.28877 -8.21364,-7.85379 -8.21364,-14.78842 l 0,-4.69089 3.47168,3.26147 c 7.94544,7.46436 20.25542,0.90432 18.50811,-9.86306 -0.94669,-5.83375 0.83419,-6.19785 5.83839,-1.19365 5.84194,5.84193 4.41206,20.12715 -2.59427,25.9182 -3.39434,2.80557 -12.19581,3.50738 -17.01027,1.35635 z"
         id="path3395"
         inkscape:connector-curvature="0" />
      <path
         style="fill:#b2b2b2"
         d="m 194.39389,200.13279 c -5.35547,-1.5638 -9.39387,-7.66406 -9.39387,-14.19003 0,-3.90348 0.0865,-3.94032 3.69723,-1.57449 8.64767,5.66618 18.80277,0.74583 18.80277,-9.11032 0,-6.0131 3.08001,-6.60776 6.57748,-1.26993 4.30114,6.56436 2.26686,19.42586 -3.85357,24.36381 -3.0976,2.49913 -10.51336,3.33344 -15.83004,1.78096 z"
         id="path3393"
         inkscape:connector-curvature="0" />
      <path
         style="fill:#b1b1b1"
         d="m 194.72697,200.2191 c -5.04118,-1.48424 -9.72695,-8.16731 -9.72695,-13.87305 l 0,-3.73186 5.34747,2.72629 c 9.26201,4.72205 17.15253,-0.0857 17.15253,-10.45108 0,-5.43216 1.74629,-5.81887 5.94157,-1.31577 5.13443,5.51116 3.31708,19.50598 -3.21766,24.7782 -3.03428,2.44804 -10.47802,3.34496 -15.49696,1.86727 z"
         id="path3391"
         inkscape:connector-curvature="0" />
      <path
         style="fill:#b0b0b0"
         d="m 195.51688,200.41527 c -4.52731,-1.21489 -10.51686,-9.66016 -10.51686,-14.82879 0,-3.69606 0.0528,-3.71286 3.07461,-0.97817 1.78897,1.61899 5.31949,2.78248 8.44326,2.78248 6.64285,0 10.98213,-4.74785 10.98213,-12.01618 0,-2.7961 0.62601,-5.08382 1.39113,-5.08382 2.67883,0 7.60887,7.94499 7.60887,12.26205 0,4.96186 -5.2269,16.10676 -7.94277,16.93575 -4.89453,1.49399 -9.66341,1.83288 -13.04037,0.92668 z"
         id="path3389"
         inkscape:connector-curvature="0" />
      <path
         style="fill:#afafaf"
         d="m 196.30643,200.34735 c -4.78409,-0.87905 -11.30641,-8.84959 -11.30641,-13.8169 0,-2.63625 0.28352,-2.67009 4.42551,-0.52818 2.43403,1.25869 5.77139,2.28852 7.41635,2.28852 4.86821,0 10.94776,-6.27856 11.21446,-11.58156 0.33153,-6.59199 1.60565,-7.20701 5.27267,-2.54515 4.07511,5.18067 3.99112,11.84164 -0.24361,19.31827 -3.62385,6.3981 -8.48831,8.38837 -16.77897,6.865 z"
         id="path3387"
         inkscape:connector-curvature="0" />
      <path
         style="fill:#aeaeae"
         d="m 190.67525,197.66579 c -3.18155,-3.6474 -5.67523,-8.72898 -5.67523,-11.56491 0,-2.16056 0.42004,-2.16992 4.42551,-0.0986 2.43403,1.25869 5.86095,2.28852 7.61538,2.28852 4.46885,0 11.95911,-7.91334 11.95911,-12.63462 0,-2.12596 0.63672,-3.86538 1.41494,-3.86538 2.45612,0 6.08506,6.49655 6.08506,10.89352 0,5.27692 -5.05695,15.42363 -8.30879,16.67148 -5.07293,1.94666 -15.19573,0.96998 -17.51598,-1.69 z"
         id="path3385"
         inkscape:connector-curvature="0" />
      <path
         style="fill:#adadad"
         d="m 191.5405,198.10053 c -3.49565,-2.44845 -7.50083,-10.84939 -5.92417,-12.42606 0.56107,-0.56106 2.33027,-0.20192 3.93155,0.7981 3.15966,1.97324 8.77598,2.36727 12.63494,0.88645 2.93174,-1.12502 6.8172,-8.24581 6.8172,-12.49374 0,-1.69097 0.63672,-3.07449 1.41494,-3.07449 2.45612,0 6.08506,6.49655 6.08506,10.89352 0,5.27692 -5.05695,15.42363 -8.30879,16.67148 -4.3589,1.67267 -13.44889,0.98739 -16.65073,-1.25526 z"
         id="path3383"
         inkscape:connector-curvature="0" />
      <path
         style="fill:#acacac"
         d="m 191.48869,198.06424 c -1.74836,-1.22461 -3.88909,-4.26395 -4.75716,-6.7541 l -1.57831,-4.52755 8.04961,0.94607 c 7.30226,0.85824 8.40926,0.58642 11.9234,-2.92772 2.46907,-2.46906 3.87379,-5.53031 3.87379,-8.44197 0,-2.5125 0.63672,-4.56818 1.41494,-4.56818 2.45612,0 6.08506,6.49655 6.08506,10.89352 0,5.27692 -5.05695,15.42363 -8.30879,16.67148 -4.38582,1.683 -13.45726,0.98153 -16.70254,-1.29155 z"
         id="path3381"
         inkscape:connector-curvature="0" />
      <path
         style="fill:#ababab"
         d="m 190.18184,196.60897 c -2.025,-2.025 -3.68182,-5.07536 -3.68182,-6.77858 0,-2.64324 0.60411,-2.93669 4.125,-2.00381 7.00248,1.85535 11.40051,0.90525 14.95882,-3.23154 1.8789,-2.18435 3.41618,-5.6214 3.41618,-7.6379 0,-5.17033 3.74759,-4.60415 6.03218,0.91133 2.27931,5.50275 0.27233,13.91972 -4.55446,19.10067 -4.51113,4.84213 -15.28479,4.65095 -20.2959,-0.36017 z"
         id="path3379"
         inkscape:connector-curvature="0" />
      <path
         style="fill:#aaaaaa"
         d="m 193.11358,198.83229 c -3.0283,-1.2246 -7.79058,-9.86448 -6.2735,-11.38156 0.40913,-0.40913 2.56893,-0.05 4.79956,0.79809 2.23062,0.84808 4.97245,1.54197 6.09294,1.54197 3.67759,0 11.26744,-7.60829 11.26744,-11.29482 0,-5.15301 2.50254,-5.85885 5.35228,-1.5096 5.45872,8.33106 -3.03275,23.3995 -13.07909,23.20934 -2.76276,-0.0523 -6.43459,-0.66583 -8.15963,-1.36342 z"
         id="path3377"
         inkscape:connector-curvature="0" />
      <path
         style="fill:#a9a9a9"
         d="m 193.60463,199.25288 c -2.9466,-0.76847 -7.68574,-8.80827 -6.40942,-10.8734 0.45722,-0.7398 2.77265,-0.58532 5.25155,0.35036 6.99722,2.64115 14.37031,-1.5615 16.76564,-9.5564 l 1.86984,-6.24097 2.70889,3.34533 c 3.48532,4.30419 3.41755,7.74341 -0.29601,15.02259 -4.21972,8.27135 -9.92359,10.55183 -19.89049,7.95249 z"
         id="path3375"
         inkscape:connector-curvature="0" />
      <path
         style="fill:#a8a8a8"
         d="m 193.04614,198.5364 c -2.62332,-1.27023 -6.54612,-6.96047 -6.54612,-9.49552 0,-0.33481 3.20625,-0.23398 7.125,0.22406 8.52642,0.99662 14.5392,-2.75405 16.14647,-10.07188 1.17385,-5.34452 3.74003,-5.11777 5.61123,0.49582 1.85895,5.57687 -3.35446,17.09513 -8.64869,19.10799 -4.8706,1.8518 -9.50782,1.76356 -13.68789,-0.26047 z"
         id="path3373"
         inkscape:connector-curvature="0" />
      <path
         style="fill:#a7a7a7"
         d="m 195.50002,199.22664 c -3.86558,-1.42135 -7.5,-5.29035 -7.5,-7.98408 0,-2.17025 1.06773,-2.46291 6.67838,-1.83051 5.94222,0.66978 7.18231,0.24882 11.25,-3.81887 2.51439,-2.51439 4.57162,-6.02979 4.57162,-7.81201 0,-4.55567 3.34197,-2.95902 4.73882,2.26402 1.60414,5.99811 -3.27912,16.76487 -8.50481,18.75168 -4.2343,1.60988 -7.66733,1.74121 -11.23401,0.42977 z"
         id="path3371"
         inkscape:connector-curvature="0" />
      <path
         style="fill:#a6a6a6"
         d="m 194.47308,198.78032 c -3.17004,-1.27724 -6.47306,-5.74783 -6.47306,-8.76119 0,-0.87648 1.66364,-1.01296 4.125,-0.33842 8.15517,2.23495 18.25176,-3.69085 18.34165,-10.76492 0.0183,-1.44375 1.04585,-2.625 2.28335,-2.625 1.63698,0 2.25,1.68866 2.25,6.19795 0,12.92984 -9.72126,20.64529 -20.52694,16.29158 z"
         id="path3369"
         inkscape:connector-curvature="0" />
      <path
         style="fill:#a5a5a5"
         d="m 195.88821,199.23392 c -3.15881,-0.60918 -7.88819,-5.61235 -7.88819,-8.34486 0,-0.67881 2.2805,-0.80639 5.06778,-0.28349 6.95418,1.30461 14.07573,-2.5952 16.84578,-9.22488 2.59091,-6.20091 5.08644,-5.40263 5.08644,1.62707 0,6.82408 -4.31576,13.91004 -9.59883,15.76011 -2.39186,0.83761 -4.75436,1.431 -5.25,1.31865 -0.49564,-0.11235 -2.41398,-0.49602 -4.26298,-0.8526 z"
         id="path3367"
         inkscape:connector-curvature="0" />
      <path
         style="fill:#a4a4a4"
         d="m 191.05845,195.50795 c -4.4727,-4.80088 -3.80775,-5.76172 3.31657,-4.7924 5.1609,0.70218 7.18193,0.23069 10.61202,-2.47568 2.33036,-1.83868 4.8449,-4.94191 5.58787,-6.89606 2.02526,-5.32684 4.42511,-4.27994 4.42511,1.93039 0,3.56708 -1.33722,7.2366 -3.82634,10.5 -3.31945,4.35203 -4.70267,5.01659 -10.44156,5.01659 -4.87358,0 -7.42046,-0.86431 -9.67367,-3.28284 z"
         id="path3365"
         inkscape:connector-curvature="0" />
      <path
         style="fill:#a3a3a3"
         d="m 192.04594,196.11778 c -3.65908,-4.04324 -3.20792,-4.82699 2.77857,-4.82699 7.30349,0 13.38526,-3.47086 15.64621,-8.92926 1.04129,-2.51391 2.48637,-4.57074 3.21128,-4.57074 2.64387,0 1.22686,10.19201 -2.10676,15.15318 -2.93364,4.3659 -4.39696,5.16065 -10.20407,5.54192 -5.11562,0.33587 -7.40409,-0.24528 -9.32523,-2.36811 z"
         id="path3363"
         inkscape:connector-curvature="0" />
      <path
         style="fill:#a2a2a2"
         d="m 191.9825,196.04768 c -3.69808,-4.08633 -3.12502,-4.75689 4.06523,-4.75689 7.09142,0 13.56681,-3.84706 15.21471,-9.03913 1.38378,-4.35992 3.73758,-3.60082 3.73758,1.20537 0,4.28119 -3.16188,10.14587 -7.25615,13.45876 -3.51683,2.84565 -12.8665,2.33069 -15.76137,-0.86811 z"
         id="path3361"
         inkscape:connector-curvature="0" />
      <path
         style="fill:#a1a1a1"
         d="m 193.62502,197.17064 c -4.30821,-2.5093 -3.28927,-5.92896 1.5,-5.03414 5.08093,0.94932 13.2283,-3.7852 15.64636,-9.09226 2.33246,-5.11919 4.22864,-4.71717 4.22864,0.89655 0,6.24055 -8.43629,14.86882 -14.475,14.80439 -2.35125,-0.0251 -5.45625,-0.73363 -6.9,-1.57454 z"
         id="path3359"
         inkscape:connector-curvature="0" />
      <path
         style="fill:#a0a0a0"
         d="m 196.02851,197.30083 c -5.41671,-2.18552 -5.66073,-4.51004 -0.47345,-4.51004 5.80049,0 12.57377,-3.81939 15.08088,-8.50398 2.21214,-4.13341 4.36636,-4.56392 4.35847,-0.87102 -0.009,4.28688 -5.7064,12.33976 -9.84273,13.91239 -4.47062,1.69973 -4.84546,1.6986 -9.12317,-0.0274 z"
         id="path3357"
         inkscape:connector-curvature="0" />
      <path
         style="fill:#9f9f9f"
         d="m 193.50002,196.29079 c -2.2187,-2.2187 -0.7369,-3.5 4.04771,-3.5 5.62567,0 12.24968,-4.42325 13.76263,-9.19012 0.68682,-2.16397 1.46516,-2.63438 2.55521,-1.54433 2.20482,2.20482 -1.23469,9.97606 -5.71447,12.91133 -3.57492,2.34238 -12.79882,3.17538 -14.65108,1.32312 z"
         id="path3355"
         inkscape:connector-curvature="0" />
      <path
         style="fill:#9e9e9e"
         d="m 194.90706,196.19783 c -1.60476,-1.60476 0.8188,-3.40704 4.58149,-3.40704 2.33461,0 5.7876,-1.97613 8.91147,-5.1 4.11284,-4.11284 5.1,-4.56454 5.1,-2.33365 0,4.91446 -6.42771,10.76642 -12.34103,11.23561 -2.98455,0.23681 -5.79791,0.0591 -6.25193,-0.39492 z"
         id="path3353"
         inkscape:connector-curvature="0" />
      <path
         style="fill:#9d9d9d"
         d="m 200.75002,193.53638 c 3.3,-1.1675 7.60977,-3.98132 9.57726,-6.25294 3.5703,-4.12219 3.57516,-4.12304 2.49466,-0.43644 -1.62885,5.55752 -6.45183,8.95226 -12.6131,8.87795 l -5.45882,-0.0658 6,-2.12273 z"
         id="path3351"
         inkscape:connector-curvature="0" />
      <path
         style="fill:#9c9c9c"
         d="m 200.57107,194.23916 c 2.37657,-0.71158 5.92032,-2.79623 7.875,-4.63255 1.95467,-1.83632 3.55395,-2.5724 3.55395,-1.63572 0,3.31142 -6.54175,7.82057 -11.15784,7.69097 l -4.59216,-0.12893 4.32105,-1.29377 z"
         id="path3349"
         inkscape:connector-curvature="0" />
    </g>
  </g>
</svg>
