<!-- Generated by IcoMoon.io -->
<svg version="1.1" xmlns="http://www.w3.org/2000/svg" width="32" height="32" viewBox="0 0 32 32">
<title>history</title>
<path d="M17.512 1.455c-8.017 0.003-14.518 6.49-14.545 14.501v0.003c-0.002 0.099-0.003 0.215-0.003 0.331 0 1.486 0.193 2.928 0.554 4.3l-0.026-0.117-1.961-1.142c-0.147-0.087-0.324-0.138-0.512-0.138-0.562 0-1.018 0.456-1.018 1.017 0 0.373 0.201 0.699 0.5 0.876l0.005 0.003 4.591 2.676c0.010 0.005 0.019 0.007 0.028 0.011 0.043 0.023 0.093 0.044 0.145 0.062l0.007 0.002c0.027 0.011 0.063 0.022 0.099 0.032l0.008 0.002c0.038 0.008 0.083 0.013 0.129 0.016l0.003 0c0.031 0 0.063 0.013 0.097 0.013s0.034-0.006 0.052-0.007 0.032 0 0.049 0 0.048-0.014 0.073-0.017c0.055-0.009 0.103-0.021 0.15-0.036l-0.007 0.002c0.047-0.015 0.085-0.031 0.122-0.049l-0.006 0.003c0.047-0.023 0.087-0.045 0.125-0.071l-0.003 0.002c0.077-0.050 0.144-0.108 0.201-0.173l0.001-0.001c0.026-0.030 0.051-0.063 0.074-0.098l0.002-0.003c0.014-0.020 0.032-0.035 0.044-0.055s0.009-0.034 0.016-0.049 0.035-0.052 0.047-0.081l1.827-4.523c0.063-0.129 0.1-0.28 0.1-0.441 0-0.562-0.455-1.017-1.017-1.017-0.447 0-0.827 0.289-0.963 0.69l-0.002 0.007-0.938 2.322c-0.352-1.215-0.555-2.61-0.555-4.052 0-0.088 0.001-0.177 0.002-0.264l-0 0.013c0-6.909 5.6-12.509 12.509-12.509s12.509 5.601 12.509 12.509c0 6.909-5.601 12.509-12.509 12.509v0c-0.562 0-1.018 0.456-1.018 1.018s0.456 1.018 1.018 1.018v0c8.033 0 14.545-6.512 14.545-14.545s-6.512-14.545-14.545-14.545v0z"></path>
<path d="M17.122 17.957c0.095 0.037 0.204 0.060 0.318 0.065l0.002 0c0.022 0 0.045 0.014 0.068 0.014 0.125-0.002 0.243-0.027 0.352-0.070l-0.007 0.002c0.036-0.015 0.066-0.029 0.094-0.044l-0.005 0.002c0.089-0.043 0.166-0.095 0.235-0.156l-0.001 0.001c0.015-0.014 0.036-0.018 0.052-0.034l6.354-6.354c0.169-0.181 0.273-0.426 0.273-0.694 0-0.562-0.456-1.018-1.018-1.018-0.269 0-0.513 0.104-0.695 0.274l0.001-0.001-5.872 5.872-5.27-2.207c-0.11-0.044-0.238-0.070-0.371-0.070-0.562 0-1.018 0.456-1.018 1.018 0 0.412 0.244 0.766 0.595 0.927l0.006 0.003 5.906 2.471z"></path>
</svg>
