<svg xmlns:dc="http://purl.org/dc/elements/1.1/" xmlns:cc="http://creativecommons.org/ns#" xmlns:rdf="http://www.w3.org/1999/02/22-rdf-syntax-ns#" xmlns:svg="http://www.w3.org/2000/svg" xmlns="http://www.w3.org/2000/svg" xmlns:sodipodi="http://sodipodi.sourceforge.net/DTD/sodipodi-0.dtd" xmlns:inkscape="http://www.inkscape.org/namespaces/inkscape" width="101.37971mm" height="101.42487mm" viewBox="0 0 359.21944 359.37944" id="svg2" version="1.1" inkscape:version="0.91 r13725" sodipodi:docname="fab-button.svg">
  
  
  
  <g inkscape:label="Layer 1" inkscape:groupmode="layer" id="layer1" transform="translate(-481.69891,-338.3207)">
    <g id="g3347" transform="translate(387.14286,-42.857143)">
      
      
      
      
      
      
      
      
      
      
      
      
      
      
      
      
      
      
      
      
      
      
      
      
      
      
      
      
      
      
      
      
      
      
      
      
      
      
      
      
      
      
      
      
      
      
      
      
      
      
      
      
      
      
      
      
      
      
      
      
      
      
      
      
      
      
      
      
      
      
      
      
      
      
      
      
      
      
      
      
      
      
      
      
      
      
      
      
      
      
      
      
      
      
      
      
      
      
      
      
      
      
      
      
      
      
      
      
      
      
      
      
      
      
      
      
      
      
      
      
      
      
      
      
      
      
      
      
      
      
      
      
      
      
      
      
      
      
      
      
      
      
      
      
      
      
      
      
      
      
      
      
      
      
      
      
      
      
      
      
      
      
      
      
      
      
      
      
      
      
      
      
      
      
      
      
      
      
      
      
      
      
      
      
      
      
      
      
      
      
      
      
      
      
      
      
      
      
      
      
      <path style="" d="m 259.58571,737.86161 c -69.37386,-6.2014 -127.76614,-50.60988 -152.0592,-115.64402 -7.12603,-19.07686 -10.544469,-39.05704 -10.535876,-61.58029 0.0065,-17.04355 1.171521,-27.22946 4.852306,-42.42435 15.35518,-63.38873 66.33337,-114.36692 129.72211,-129.7221 15.19488,-3.68079 25.3808,-4.8458 42.42434,-4.85231 13.49007,-0.005 23.16445,0.83573 34.26767,2.97847 67.67734,13.06058 121.60854,64.43751 138.2651,131.71661 3.86218,15.60008 4.69432,23.05118 4.72409,42.3 0.0277,17.87527 -0.38177,22.3766 -3.35615,36.9 -11.77076,57.47467 -53.07098,106.45256 -108.20438,128.3195 -13.06551,5.18202 -25.33953,8.43425 -41.1,10.89019 -6.07758,0.94706 -32.45453,1.7034 -39.00001,1.1183 z m 32.06438,-28.13538 c 27.99829,-3.27513 54.68357,-14.53611 76.83089,-32.42201 6.30398,-5.09102 18.43317,-17.31197 23.25673,-23.43269 7.86157,-9.9757 15.78698,-23.34129 20.47306,-34.52624 19.58029,-46.73515 14.67993,-99.59293 -13.08798,-141.17359 -15.23691,-22.81628 -34.60742,-39.79719 -59.24624,-51.93744 -20.97248,-10.33375 -41.84784,-15.16728 -65.59084,-15.18703 -34.50864,-0.0287 -66.45094,11.09262 -93.6,32.58868 -6.17027,4.88549 -18.81222,17.52744 -23.69771,23.69771 -21.49605,27.14905 -32.61739,59.09136 -32.58868,93.6 0.0197,23.74299 4.85328,44.61835 15.18703,65.59083 16.87454,34.24711 45.09542,60.24885 80.39936,74.0772 11.56907,4.53154 26.11187,8.10718 38.1,9.36766 8.09988,0.85165 25.26876,0.72732 33.56438,-0.24308 z M 196.14842,580.70968 c -3.94166,-1.0616 -7.02662,-2.99449 -9.95803,-6.2392 -3.65115,-4.04139 -4.80496,-7.2561 -4.85858,-13.53686 -0.0397,-4.64541 0.17591,-5.87354 1.54268,-8.78878 2.02325,-4.3155 5.70695,-7.99919 10.02245,-10.02244 2.87876,-1.34966 4.20149,-1.58878 8.78877,-1.58878 4.58729,0 5.91002,0.23912 8.78878,1.58878 4.3155,2.02325 7.99919,5.70694 10.02245,10.02244 1.36676,2.91524 1.58233,4.14337 1.54268,8.78878 -0.0536,6.28076 -1.20743,9.49547 -4.85858,13.53686 -3.00414,3.32522 -6.02294,5.17721 -10.22165,6.27083 -4.16326,1.08439 -6.69476,1.07698 -10.81097,-0.0316 z m 71.42425,-0.28153 c -4.77286,-1.56226 -9.67227,-5.91915 -12.01041,-10.68048 -1.45894,-2.97092 -1.67655,-4.11611 -1.67655,-8.82304 0,-4.89616 0.18605,-5.78725 1.96233,-9.39867 2.2472,-4.56886 4.95956,-7.20339 9.7103,-9.43167 2.81173,-1.31882 4.16421,-1.56067 8.72737,-1.56067 4.69709,0 5.84441,0.21823 8.81406,1.67654 10.11862,4.96896 14.49128,17.01424 9.85376,27.14393 -4.38691,9.58225 -15.33921,14.36091 -25.38086,11.07406 z m 73.447,0.39176 c -3.33135,-0.94026 -8.64732,-4.42754 -10.4348,-6.84523 -3.43613,-4.64762 -4.09915,-6.75697 -4.09915,-13.04106 0,-7.10802 1.22172,-10.27716 5.67433,-14.71916 4.38849,-4.37802 7.65087,-5.66055 14.42567,-5.67108 6.71554,-0.0104 9.66957,1.07047 14.1091,5.16268 10.84579,9.99731 7.98374,27.77329 -5.46283,33.92934 -3.95004,1.80838 -10.16635,2.32648 -14.21232,1.18451 z" id="path3457" inkscape:connector-curvature="0"/>
      <path style="" d="m 259.58571,737.82211 c -11.90208,-0.88984 -30.45412,-4.73915 -42.3,-8.77672 -60.84097,-20.73711 -105.89942,-72.62477 -117.589515,-135.41177 -2.610874,-14.02289 -3.589158,-37.97962 -2.094859,-51.3 3.856994,-34.38176 16.400864,-65.15288 37.420844,-91.79637 6.08514,-7.7131 21.15407,-22.78202 28.86716,-28.86716 26.61626,-20.9985 57.44975,-33.56779 91.79637,-37.42084 13.32039,-1.4943 37.27712,-0.51602 51.30001,2.09485 62.787,11.6901 114.67466,56.74855 135.41177,117.58952 9.11073,26.73013 11.57339,58.28794 6.76574,86.7 -7.59513,44.88548 -31.76372,84.52188 -68.37751,112.13888 -26.34146,19.86879 -56.71829,31.56675 -90.51357,34.85631 -5.708,0.5556 -24.27601,0.67256 -30.68644,0.1933 z m 32.06438,-28.09588 c 68.76767,-8.04418 123.38405,-62.66057 131.42824,-131.42824 3.42626,-29.29019 -1.91723,-59.07035 -15.33497,-85.46437 -22.32852,-43.9224 -64.97754,-73.99396 -114.55809,-80.77418 -15.6818,-2.14452 -35.34222,-1.18223 -52.13078,2.55155 -54.07154,12.02555 -98.19568,54.8141 -111.99938,108.60928 -5.92252,23.08098 -6.32142,47.70657 -1.14428,70.64098 3.6205,16.03859 12.11382,35.97613 20.98986,49.27237 25.04102,37.51129 64.56928,61.77266 108.88502,66.83071 7.57031,0.86404 25.52141,0.73783 33.86438,-0.2381 z M 197.03327,581.01894 c -6.11352,-1.54052 -11.87639,-6.29068 -14.38057,-11.8535 -1.9804,-4.39927 -1.88856,-12.52731 0.19132,-16.93182 2.03804,-4.31592 5.83129,-8.13209 10.04847,-10.10918 2.88361,-1.35191 4.20423,-1.59082 8.79322,-1.59082 4.56435,0 5.91068,0.24088 8.7,1.5566 4.20829,1.98503 8.15838,5.93511 10.14341,10.1434 2.08338,4.4168 2.16932,12.53345 0.17952,16.95537 -3.87635,8.61434 -14.79176,14.06849 -23.67537,11.82995 z m 71.60127,-0.30121 c -4.16201,-1.16661 -6.48642,-2.6228 -9.62954,-6.03268 -3.96992,-4.30686 -5.11268,-7.38116 -5.11626,-13.76405 -0.003,-4.91401 0.17936,-5.78309 1.97685,-9.4343 2.1905,-4.44954 5.26679,-7.37936 10.06792,-9.58858 2.37065,-1.09084 4.01594,-1.35903 8.3522,-1.36147 4.70068,-0.002 5.84215,0.21409 8.81406,1.67351 4.4162,2.16867 9.02491,7.16877 10.47679,11.36654 1.66441,4.81221 1.45693,11.29461 -0.49701,15.52893 -4.35643,9.44063 -14.6861,14.34753 -24.44501,11.6121 z m 71.86882,-0.19184 c -5.84888,-1.9377 -9.48574,-5.08987 -12.58832,-10.91068 -1.23171,-2.31083 -1.42932,-3.51115 -1.42932,-8.68159 0,-5.01427 0.22225,-6.45103 1.35286,-8.74534 2.07961,-4.22014 5.08514,-7.33782 9.25153,-9.59676 3.56569,-1.93324 4.14088,-2.05787 9.49561,-2.05745 6.7153,5.3e-4 9.67623,1.08592 14.1091,5.17199 6.98127,6.43512 8.63008,16.8024 4.02525,25.30969 -4.46109,8.24173 -15.25291,12.47978 -24.21671,9.51014 z" id="path3455" inkscape:connector-curvature="0"/>
      
      
      
      
      
      
      
      
      
      
      
      
      
      
      
      
      
      
      
      
      
      
      
      
      
      
      
      
      
      
      
      
      
      
      
      
      
      
      
      
      
      
      
      
      
      
      
      
      
      
      
      
      
    </g>
  </g>
</svg>