<!-- Generated by IcoMoon.io -->
<svg version="1.1" xmlns="http://www.w3.org/2000/svg" width="32" height="32" viewBox="0 0 32 32">
<title>location-pin</title>
<path d="M15.995 2c-6.638 0.009-12.017 5.387-12.025 12.024v0.001c0 0.006-0 0.012-0 0.019 0 0.792 0.078 1.566 0.226 2.314l-0.012-0.075c0.006 0.044 0.031 0.177 0.082 0.403 0.206 0.904 0.483 1.696 0.836 2.444l-0.031-0.072c1.298 3.050 4.145 7.736 10.396 12.755 0.145 0.117 0.331 0.189 0.534 0.189s0.39-0.071 0.536-0.19l-0.002 0.001c6.245-5.020 9.101-9.705 10.394-12.755 0.323-0.677 0.6-1.468 0.79-2.292l0.015-0.079c0.050-0.227 0.076-0.358 0.082-0.403 0.134-0.678 0.212-1.458 0.214-2.256v-0.002c-0.019-6.637-5.397-12.012-12.034-12.026h-0.001zM26.133 15.988c0 0.012-0.006 0.025-0.006 0.038-0.006 0.031-0.025 0.126-0.059 0.27v0.012c-0.177 0.781-0.417 1.465-0.724 2.111l0.026-0.060c-0.006 0.006-0.006 0.019-0.012 0.025-1.176 2.786-3.755 7.038-9.365 11.673-5.607-4.635-8.189-8.887-9.365-11.673-0.006-0.006-0.006-0.019-0.012-0.025-0.276-0.583-0.515-1.267-0.684-1.979l-0.014-0.072v-0.012c-0.038-0.145-0.050-0.236-0.059-0.27 0-0.012-0.006-0.025-0.006-0.044-0.121-0.593-0.19-1.274-0.19-1.972 0-5.705 4.624-10.329 10.329-10.329s10.329 4.624 10.329 10.329c0 0.7-0.070 1.384-0.202 2.045l0.011-0.066z"></path>
<path d="M15.995 6.522c-4.217 0-7.635 3.418-7.635 7.635s3.418 7.635 7.635 7.635c4.217 0 7.635-3.418 7.635-7.635v0c-0.007-4.214-3.421-7.628-7.635-7.635h-0.001zM15.995 20.097c-3.278-0.002-5.934-2.659-5.934-5.937 0-3.279 2.658-5.937 5.937-5.937 3.278 0 5.935 2.656 5.937 5.934v0c-0.002 3.28-2.66 5.938-5.94 5.94h-0z"></path>
</svg>
