<!-- Generated by IcoMoon.io -->
<svg version="1.1" xmlns="http://www.w3.org/2000/svg" width="32" height="32" viewBox="0 0 32 32">
<title>document</title>
<path d="M19.813 3.167h-13.866v25.667h20.105v-19.43zM20.063 4.627l4.529 4.529h-4.527zM6.802 27.977v-23.954h12.405v5.989h5.988v17.965z"></path>
<path d="M10.225 10.439h3.85c0.236 0 0.428-0.192 0.428-0.428s-0.192-0.428-0.428-0.428v0h-3.85c-0.236 0-0.428 0.192-0.428 0.428s0.192 0.428 0.428 0.428v0z"></path>
<path d="M17.497 18.994h-7.272c-0.236 0-0.428 0.192-0.428 0.428s0.192 0.428 0.428 0.428v0h7.272c0.236 0 0.428-0.192 0.428-0.428s-0.192-0.428-0.428-0.428v0z"></path>
<path d="M21.775 16h-2.994c-0.236 0-0.428 0.192-0.428 0.428s0.192 0.428 0.428 0.428v0h2.994c0.236 0 0.428-0.192 0.428-0.428s-0.192-0.428-0.428-0.428v0z"></path>
<path d="M10.225 13.861h2.136c0.236 0 0.428-0.192 0.428-0.428s-0.192-0.428-0.428-0.428v0h-2.136c-0.236 0-0.428 0.192-0.428 0.428s0.192 0.428 0.428 0.428v0z"></path>
<path d="M16.642 13.861h2.994c0.236 0 0.428-0.192 0.428-0.428s-0.192-0.428-0.428-0.428v0h-2.994c-0.236 0-0.428 0.192-0.428 0.428s0.192 0.428 0.428 0.428v0z"></path>
<path d="M14.075 13.433c0.001 0.235 0.192 0.425 0.428 0.425s0.428-0.191 0.428-0.428-0.191-0.428-0.428-0.428c-0.119 0-0.226 0.048-0.303 0.126l-0 0c-0.075 0.079-0.122 0.186-0.124 0.303v0z"></path>
<path d="M12.364 16c-0.236 0-0.428 0.192-0.428 0.428s0.192 0.428 0.428 0.428v0h4.278c0.236 0 0.428-0.192 0.428-0.428s-0.192-0.428-0.428-0.428v0h-4.278z"></path>
<path d="M10.225 16.855c0 0 0 0 0 0 0.237 0 0.429-0.192 0.429-0.429s-0.192-0.429-0.429-0.429c-0.119 0-0.226 0.048-0.304 0.126v0c-0.076 0.078-0.123 0.185-0.124 0.303v0c0 0.001-0 0.003-0 0.004 0 0.232 0.187 0.421 0.419 0.423h0.009z"></path>
<path d="M21.775 21.989h-2.994c-0.236 0-0.428 0.192-0.428 0.428s0.192 0.428 0.428 0.428v0h2.994c0.236 0 0.428-0.192 0.428-0.428s-0.192-0.428-0.428-0.428v0z"></path>
<path d="M16.642 21.989h-4.278c-0.236 0-0.428 0.192-0.428 0.428s0.192 0.428 0.428 0.428v0h4.278c0.236 0 0.428-0.192 0.428-0.428s-0.192-0.428-0.428-0.428v0z"></path>
<path d="M9.921 22.113c-0.077 0.078-0.124 0.185-0.124 0.303 0 0 0 0 0 0v0c0 0.001-0 0.003-0 0.004 0 0.117 0.047 0.223 0.124 0.299v0c0.079 0.075 0.186 0.122 0.303 0.124h0c0.118-0.001 0.225-0.048 0.304-0.124l-0 0c0.075-0.079 0.122-0.186 0.124-0.303v-0c0-0 0-0.001 0-0.001 0-0.117-0.047-0.222-0.124-0.299v0c-0.079-0.075-0.187-0.122-0.305-0.122-0.117 0-0.223 0.045-0.302 0.119l0-0z"></path>
<path d="M21.471 13.13c-0.078 0.078-0.126 0.185-0.126 0.304 0 0.237 0.192 0.43 0.43 0.43s0.43-0.192 0.43-0.43c0-0.119-0.048-0.226-0.126-0.304v0c-0.080-0.073-0.187-0.118-0.304-0.118s-0.224 0.045-0.304 0.118l0-0z"></path>
<path d="M19.94 19.726c0.080-0.079 0.13-0.189 0.13-0.31 0-0.24-0.194-0.434-0.434-0.434s-0.434 0.194-0.434 0.434c0 0.24 0.194 0.434 0.434 0.434v0c0.118-0.001 0.225-0.048 0.304-0.124l-0 0z"></path>
<path d="M21.471 19.119c-0.078 0.078-0.126 0.185-0.126 0.304 0 0.237 0.192 0.43 0.43 0.43s0.43-0.192 0.43-0.43c0-0.119-0.048-0.226-0.126-0.304v0c-0.078-0.077-0.185-0.124-0.304-0.124s-0.226 0.047-0.304 0.124l0-0z"></path>
</svg>
