<svg xmlns="http://www.w3.org/2000/svg" width="512" height="512"><path fill="#52C8B1" d="M234.661 469.332C105.278 469.332 0 364.059 0 234.676S105.278.015 234.661.015c44.991 0 88.763 12.82 126.585 37.097 7.426 4.781 9.602 14.679 4.82 22.124-4.797 7.445-14.675 9.598-22.12 4.82-32.64-20.972-70.439-32.042-109.286-32.042-111.743 0-202.662 90.919-202.662 202.662 0 111.738 90.919 202.658 202.662 202.658 111.739 0 202.658-90.92 202.658-202.658 0-6.68-.32-13.292-.938-19.796-.852-8.812 5.59-16.621 14.379-17.472 8.831-.813 16.616 5.59 17.472 14.379a239.495 239.495 0 011.086 22.89c0 129.382-105.274 234.655-234.656 234.655z"/><path fill="#52C8B1" d="M261.324 288.006a15.887 15.887 0 01-11.305-4.691l-95.997-95.997c-6.25-6.254-6.25-16.386 0-22.636s16.382-6.25 22.632 0l84.693 84.693L484.676 26.042c6.254-6.25 16.387-6.25 22.637 0s6.25 16.382 0 22.632l-234.66 234.66a16.033 16.033 0 01-11.329 4.672z"/></svg>