<svg version="1.0" xmlns="http://www.w3.org/2000/svg" width="1706.667" height="1706.667" viewBox="0 0 1280 1280"><g fill="#F49711"><path d="M609.5.6C606.8.8 598 1.4 590 2c-115.8 8.5-229.6 50.3-324.9 119.4C124.1 223.4 31.2 377.1 6.6 549c-4.9 34.1-6 50.8-6 91s1.1 56.9 6 91c17.6 122.7 69.9 236.6 151.8 330.5 13.2 15.1 43.3 45.2 59.4 59.3 96.8 85 216 138.6 342.7 154.1 30.8 3.8 44.7 4.6 79.5 4.6s48.7-.8 79.5-4.6c199.3-24.4 376.4-142.7 476.7-318.4 45.6-79.9 72.2-165.1 81.5-261 2.4-25.3 2.4-85.7 0-111-8.1-83.6-28.2-155.3-63.8-227.6C1164.3 256.2 1089.4 171 994.5 107 967.4 88.7 921.9 64.2 890 50.7 827.3 24.1 763.9 8.5 691.5 1.9c-11.2-1-72.9-2-82-1.3zM694 57.5c74.8 7.4 142.4 26.6 206.9 58.9 175.5 87.9 294.7 255.9 319.5 450.6 5.7 44.4 5.7 101.6 0 146-19 148.9-93.7 284.3-209.1 378.8-86.4 70.9-189.9 115.3-299.3 128.6-27.6 3.4-39.5 4.1-72 4.1s-44.4-.7-72-4.1c-205.1-24.9-382.8-158.2-465.2-348.9-25.1-58-40-117.7-46-184.5-2.8-31.2-1.5-86.2 2.8-120 24.7-194.5 144-362.7 319.5-450.6C450.5 80.7 527 60.6 610 55.6c14.1-.8 69.2.4 84 1.9z"/><path d="M630.4 208.9c-2.3 1-5.6 3.4-7.3 5.2-2.7 2.9-362.7 625.1-374.2 646.7-3.1 5.8-3.9 8.3-3.9 12.5.1 9.1 5.2 17.6 13.5 22l4 2.2h755l4-2.2c11.3-6.1 16.6-20 11.6-30.8-1-2.2-52.1-91.1-113.6-197.5-61.4-106.4-145-251.3-185.8-321.9-40.7-70.6-75.4-129.6-77-131.2-4.4-4.4-8.5-6.2-15.7-6.6-5-.3-7.5.1-10.6 1.6zm22.1 221.6c15.2 4 28.3 16.8 33.1 32.4 2 6.6 1.8 16.4-1 52.1-2.5 30.3-5.3 66.1-11.6 145.5-1.6 20.3-3.4 38.6-4.1 40.5-4.3 12.2-14.9 19.3-28.9 19.3-14 0-24.6-7.1-28.9-19.3-.7-1.9-2.5-20.2-4.1-40.5-6.5-82.6-9.2-115.5-11.6-145.5-3.6-44.9-3.4-49.3 2.6-61 2.7-5.3 11.1-14.4 16.5-17.8 10.6-6.8 25.3-9 38-5.7zM651.4 757c6.9 2.6 13 8.5 16.4 15.8 6.8 14.8.6 32.3-14.2 40-4.4 2.3-6.3 2.7-13.6 2.7s-9.2-.4-13.6-2.7c-19-10-22.7-34.8-7.4-49.7 8-7.8 21.2-10.2 32.4-6.1z"/></g></svg>