<svg xmlns="http://www.w3.org/2000/svg" viewBox="0 0 120.9 111.97"><defs><style>.cls-1{fill:#fff}</style></defs><g id="Layer_2" data-name="Layer 2"><g id="Layer_1-2" data-name="Layer 1"><path class="cls-1" d="M64.92 112a55.5 55.5 0 01-33.71-11.28 3 3 0 113.61-4.79A50 50 0 1014.93 56a51 51 0 00.85 9.24 3 3 0 01-5.9 1.1A56.75 56.75 0 018.93 56a56 56 0 1156 56z"/><path class="cls-1" d="M17.59 79.84c.32-7.45 1.87-17.05 4.68-23.6l-9.84 7.62L0 63.42C6.11 67.1 13 74 17.59 79.84zM84 86.66a3 3 0 01-2-.77L58.37 64.67a3 3 0 01-1-2.24V28.32a3 3 0 016 0V61.1L86 81.42a3 3 0 01-2 5.24z"/></g></g></svg>