<svg version="1.1" id="Layer_1" xmlns="http://www.w3.org/2000/svg" x="0" y="0" viewBox="0 0 500 500" xml:space="preserve"><style>.st1{fill:#fff}.st2{font-family:&apos;Montserrat-SemiBold&apos;}.st3{font-size:23.0627px}.st4{fill:#67308f}</style><path d="M422.68 475.79l-347.6-12.4a7.273 7.273 0 01-7.01-7.52l3.35-93.94a7.273 7.273 0 017.52-7.01l347.6 12.4c4.01.14 7.15 3.51 7.01 7.52l-3.35 93.94c-.14 4.02-3.51 7.16-7.52 7.01z" fill="#6d3e93"/><text transform="rotate(2.046 -11274.103 5561.179)"><tspan x="0" y="0" class="st1 st2 st3">Oooppsss!</tspan><tspan x="-88.27" y="21.91" class="st1 st2 st3">Something went wrong...</tspan></text><path class="st4" d="M90.83 240.81V81.44c24.2-18.01 49.28-36.83 74.61-55.3 2.4-1.75 6.4-1.83 9.66-1.84 73.02-.1 146.03-.12 219.05-.06 13 .01 15.7 2.78 15.71 15.98.06 61.78.03 123.56.03 185.35v16.39c47.21 45.1 72.91 94.5 35.88 157.58 2.91 17.08-1.63 26.68-13.27 28.53-9.12 1.45-18.84-6.42-19.63-15.89-.97-11.6 7.11-18.36 23.33-19.53 30.66-37.63 18.36-98.16-26.09-133.92v93.69c-5.52-.3-9.65-.53-15.07-.83V39.87H179v68.07c-25.2-3.11-47.94-5.91-72.69-8.96v222.06c-5.95-.34-9.83-.57-15.2-.88v-61.69c-47.07 36.42-57.93 98.46-24.43 138.71 2.52-.9 5.21-2 7.98-2.82 8.58-2.54 16.88 1.18 20.5 9.07 3.84 8.38.83 17.72-7.19 22.3-7.7 4.4-17.78 3.32-21.75-4.6-9.8-19.55-20.89-39.06-26.6-59.91-9.44-34.5 4.39-64.71 25.31-91.75 7.52-9.73 16.48-18.32 25.9-28.66zm73-196.36c-18.34 13.55-34.64 25.6-53.39 39.47 19.76 2.53 36.17 4.62 53.39 6.82V44.45z"/><path class="st4" d="M328.57 256.05c-26.15-20.51-53.99-35.16-89.32-29.35-1.59 17.75-2.72 34.81-4.79 51.76-1.24 10.13-4.31 19.92-14.47 25.17-11.57 5.98-26.64 2.17-32.85-10.19-5.26-10.45-7.8-22.26-11.54-33.47l-7.19-6.82c3.76-4.42 5.53-7.16 7.9-9.18 44.18-37.66 108.71-37.67 152.37-.11 3.85 3.3 7.98 6.63-.11 12.19zm-119.35 26.38c-11.05-12.26-3.13-27.68-8.62-42.2l-15.07 9.59c3.03 12.28 4.95 24.82 9.53 36.29 1.79 4.49 9.75 9.33 14.56 8.99 4.6-.32 11.66-6.58 12.56-11.22 3.38-17.37 4.68-35.15 7.05-55.29-7.4 2.59-11.75 4.11-15.63 5.46-3.53 16.51 3.41 32.94-4.38 48.38zm114.21-134.44c10.33 12.04 10.33 12.04 5.43 18.43-4.63-3.48-9.28-6.97-13.84-10.4-14.73 9.7-14.73 9.7-20.05 4.49 3.65-3.95 7.32-7.94 11.4-12.36-4.03-4.3-7.75-8.26-12.45-13.27 10.94-9.01 14.18 4.36 21.22 5.25 4.31-3.23 9-6.75 13.65-10.24 5.33 6.46 5.33 6.46-5.36 18.1zm-143.42 4.77c-3.63-5.93-6.71-10.94-9.79-15.96 1.24-1.07 2.48-2.13 3.72-3.2 4.96 3.31 9.91 6.62 15.61 10.43 4.68-3.21 9.71-6.66 14.78-10.14 4.08 7.09 4.08 7.09-5.19 17.35-.86 6.98 13.87 8.58 5.61 19.36-5.2-3.7-10.12-7.2-15.37-10.94-4.48 3.54-8.8 6.95-12.99 10.26-6.27-4.93-6.27-4.93 3.62-17.16z"/></svg>