<svg xmlns="http://www.w3.org/2000/svg" width="28.413" height="40.87" viewBox="0 0 28.413 40.87">  <g id="Pin_branch_white" data-name="Pin branch white" transform="translate(-1419.678 -1502.688)">    <path id="Union_27" data-name="Union 27" d="M14.22,40.87a111.2,111.2,0,0,1-7.11-9.639,65.13,65.13,0,0,1-4.888-8.7A21.252,21.252,0,0,1,0,14.207a14.207,14.207,0,1,1,28.413,0A20.821,20.821,0,0,1,26.2,22.322a68.913,68.913,0,0,1-4.879,8.727c-3.493,5.409-7.061,9.777-7.1,9.821h0Z" transform="translate(1419.678 1502.688)" fill="#a566c4"/>    <g id="Group_43148" data-name="Group 43148" transform="translate(1424.85 1507.883)">      <path id="Path_121051" data-name="Path 121051" d="M2096.486,1505.031l9.263-6.394,9.244,6.394Z" transform="translate(-2096.486 -1498.637)" fill="#fff"/>      <g id="Group_43147" data-name="Group 43147" transform="translate(2.351 6.09)">        <rect id="Rectangle_17645" data-name="Rectangle 17645" width="2.821" height="8.464" transform="translate(0 0)" fill="#fff"/>        <rect id="Rectangle_17646" data-name="Rectangle 17646" width="2.351" height="8.464" transform="translate(11.285 0)" fill="#fff"/>        <rect id="Rectangle_17647" data-name="Rectangle 17647" width="2.821" height="8.464" transform="translate(5.643 0)" fill="#fff"/>      </g>      <rect id="Rectangle_17648" data-name="Rectangle 17648" width="15.987" height="2.821" transform="translate(1.411 12.673)" fill="#fff"/>    </g>  </g></svg>