<svg xmlns="http://www.w3.org/2000/svg" width="28.413" height="40.871" viewBox="0 0 28.413 40.871">  <g id="Pin_card_white" data-name="Pin card white" transform="translate(-1420.122 -1407.576)">    <path id="Union_24" data-name="Union 24" d="M0,14.206a14.206,14.206,0,0,1,28.413,0c0,9.361-14.192,26.664-14.192,26.664S0,24.052,0,14.206Z" transform="translate(1420.122 1407.576)" fill="#a566c4"/>    <g id="jeM5qH.tif" transform="translate(1425.765 1416.068)">      <g id="Group_43144" data-name="Group 43144" transform="translate(0 0)">        <path id="Path_121046" data-name="Path 121046" d="M-183.516,1524.81v6.016a.136.136,0,0,0-.024.043,1.911,1.911,0,0,1-1.961,1.6c-4.4-.013-8.8,0-13.2-.006a1.861,1.861,0,0,1-1.925-1.915q0-2.791,0-5.582c0-.211.044-.257.252-.257q8.306,0,16.611,0A.763.763,0,0,1-183.516,1524.81Zm-14.439,4.166c-.048.594.165.824.8.825s.814-.247.812-.81c0-.543-.137-.822-.823-.817C-197.769,1528.179-198,1528.4-197.955,1528.976Z" transform="translate(200.629 -1520.699)" fill="#fff"/>        <path id="Path_121047" data-name="Path 121047" d="M-198.993,1404.707h13.837c.042.012.083.027.125.036a1.839,1.839,0,0,1,1.363,1.112,4.141,4.141,0,0,1,.15.489v1.2a1.041,1.041,0,0,1-.3.1q-8.255.007-16.51,0c-.028,0-.056,0-.084,0-.156.006-.222-.071-.22-.224,0-.279,0-.557,0-.836a1.855,1.855,0,0,1,1.194-1.749C-199.294,1404.783-199.141,1404.751-198.993,1404.707Z" transform="translate(200.632 -1404.707)" fill="#fff"/>      </g>    </g>  </g></svg>