<svg xmlns="http://www.w3.org/2000/svg" width="512" height="512"><path fill="#6d3e93" d="M186.149 510.316h102.217c34.379 0 66.086-19.789 82.752-51.803l91.137-175.037a8.312 8.312 0 00-2.073-10.249l-9.369-7.757a53.441 53.441 0 00-40.055-14.171 54.341 54.341 0 00-38.394 20.172l-10.73 13.063-.13-190.329c-.017-23.174-18.074-42.027-40.022-42.027-8.611 0-16.009 2.904-23.309 7.83V45.352c0-23.187-17.473-41.852-39.429-41.852h-.737c-19.952 0-36.523 15.483-39.383 35.729a38.196 38.196 0 00-23.569-8.237c-21.957-.004-39.75 18.816-39.75 42.006v42.19c-6.257-4.938-14.657-7.406-23.272-7.406h-.701c-21.899 0-39.766 18.6-39.819 41.726-.139 59.979-.053 165.749.037 260.375.052 55.494 42.49 100.433 94.599 100.433zm-77.951-360.767c.033-13.952 10.412-25.081 23.133-25.081h.701c12.754 0 23.272 10.941 23.272 24.934v109.705a8.343 8.343 0 008.343 8.343 8.34 8.34 0 008.343-8.343V72.999c0-13.988 10.151-25.374 22.979-25.374 12.758 0 22.906 11.386 22.906 25.374v186.118a8.343 8.343 0 0016.684 0V45.364c0-13.992 10.689-25.178 23.448-25.178h.737c12.754 0 23.134 11.279 23.134 25.265v47.566c-.013.419-.016.823-.016 1.25 0 .184 0 .355.016.534 0 21.142-.008 44.04-.013 65.845-.012 50.574-.021 94.242 0 98.503a8.343 8.343 0 0016.685-.058c-.017-4.231-.008-47.892 0-98.445 0-22.343.009-45.832.013-67.405.484-13.529 10.669-24.368 23.125-24.368 12.743 0 23.123 11.374 23.131 25.354l.15 213.601a8.342 8.342 0 0014.787 5.292l25.505-31.044a37.81 37.81 0 0126.664-14.12 36.946 36.946 0 0127.762 9.965c.106.099.212.19.322.28l4.338 3.598-88.029 169.013c-13.781 26.474-39.818 42.82-67.952 42.82H186.149c-42.919 0-77.871-37.461-77.915-83.764-.089-94.614-.175-200.368-.036-260.319z"/></svg>