<svg version="1.1" id="Layer_1" xmlns="http://www.w3.org/2000/svg" x="0" y="0" viewBox="0 0 500 500" xml:space="preserve"><style>.st0{fill:#6d3e93}</style><circle class="st0" cx="248.21" cy="234.05" r="120.22"/><circle class="st0" cx="388.47" cy="155.34" r="20.78"/><circle class="st0" cx="327.96" cy="292.9" r="53.97"/><circle class="st0" cx="179.51" cy="165.08" r="55.7"/><circle class="st0" cx="354.12" cy="374.63" r="17.17"/><circle class="st0" cx="420.01" cy="317.72" r="10.76"/><circle class="st0" cx="108.7" cy="306.96" r="10.76"/><circle class="st0" cx="84.75" cy="155.34" r="16.02"/><path d="M225.88 288.37c-2.31 0-4.52-.97-6.08-2.67l-38.1-41.36c-3.09-3.36-2.88-8.59.48-11.68 3.37-3.08 8.59-2.88 11.68.48l31.94 34.68 76.67-85.34a8.27 8.27 0 0111.68-.62c3.4 3.05 3.68 8.28.62 11.67l-82.75 92.1a8.263 8.263 0 01-6.1 2.74h-.04z" fill="#fff"/></svg>