<svg xmlns="http://www.w3.org/2000/svg" width="28.413" height="40.87" viewBox="0 0 28.413 40.87">  <g id="Pin_CDM_white" data-name="Pin CDM white" transform="translate(-1421.265 -1455.122)">    <path id="Union_25" data-name="Union 25" d="M0,14.207a14.206,14.206,0,1,1,28.413,0c0,9.361-14.192,26.664-14.192,26.664S0,24.052,0,14.207Z" transform="translate(1421.265 1455.122)" fill="#e77543"/>    <path id="Path_121048" data-name="Path 121048" d="M189.221,106.442a2.9,2.9,0,1,1,2.9-2.9,1.16,1.16,0,0,0,2.32,0,5.229,5.229,0,0,0-4.061-5.089V97.16a1.16,1.16,0,1,0-2.32,0v1.292a5.22,5.22,0,0,0,1.16,10.31,2.9,2.9,0,1,1-2.9,2.9,1.16,1.16,0,1,0-2.32,0,5.229,5.229,0,0,0,4.061,5.089v1.292a1.16,1.16,0,1,0,2.32,0v-1.292a5.22,5.22,0,0,0-1.16-10.31Z" transform="translate(1246.03 1364.234)" fill="#fff"/>  </g></svg>